<?xml version="1.0" encoding="utf-8"?>
<!-- Generator: Adobe Illustrator 24.0.3, SVG Export Plug-In . SVG Version: 6.00 Build 0)  -->
<svg version="1.1" id="Layer_1" xmlns="http://www.w3.org/2000/svg" xmlns:xlink="http://www.w3.org/1999/xlink" x="0px" y="0px"
	 viewBox="0 0 1280 1024" style="enable-background:new 0 0 1280 1024;" xml:space="preserve">
<style type="text/css">
	.st0{fill:#A04902;}
	.st1{opacity:0.7;}
	.st2{fill:#232323;}
	.st3{display:none;}
	.st4{display:inline;}
	.st5{fill:#F7ADAD;}
	.st6{fill:#14BDC1;}
	.st7{opacity:0.4;}
	.st8{opacity:0.3;}
	.st9{fill:#7B27AD;}
	.st10{fill:#FFBDBD;}
	.st11{fill:#C1C1C1;}
	.st12{opacity:0.5;}
	.st13{opacity:0.9;}
	.st14{fill:#595B5B;}
	.st15{fill:#F4F4F4;}
</style>
<g>
	<g>
		<g>
			<path class="st0" d="M1014.67,715.89v28.71c0,6.6-5.4,12-12,12H258.29c-6.6,0-12-5.4-12-12v-28.71c0-6.6,5.4-12,12-12h744.38
				C1009.27,703.89,1014.67,709.29,1014.67,715.89z"/>
		</g>
		<g>
			<path class="st0" d="M1014.67,715.89H246.29c0-6.6,5.4-12,12-12h744.38C1009.27,703.89,1014.67,709.29,1014.67,715.89z"/>
		</g>
		<g class="st1">
			<path class="st0" d="M1014.67,741.95v2.65c0,6.6-5.4,12-12,12H258.29c-6.6,0-12-5.4-12-12v-2.65H1014.67z"/>
		</g>
	</g>
	<g>
		<path class="st2" d="M1002.66,758.6H258.29c-7.72,0-14-6.28-14-14v-28.71c0-7.72,6.28-14,14-14h744.38c7.72,0,14,6.28,14,14v28.71
			C1016.66,752.32,1010.38,758.6,1002.66,758.6z M258.29,705.88c-5.51,0-10,4.49-10,10v28.71c0,5.51,4.49,10,10,10h744.38
			c5.51,0,10-4.49,10-10v-28.71c0-5.51-4.49-10-10-10H258.29z"/>
	</g>
</g>
<g>
	<g class="st3">
		<g class="st4">
			<g>
				<path class="st0" d="M924.29,756.68H953c6.6,0,12,1.69,12,3.76v233.53c0,2.07-5.4,3.76-12,3.76h-28.71c-6.6,0-12-1.69-12-3.76
					V760.44C912.29,758.37,917.69,756.68,924.29,756.68z"/>
			</g>
			<g>
				<path class="st0" d="M924.29,756.68v241.06c-6.6,0-12-1.69-12-3.76V760.44C912.29,758.37,917.69,756.68,924.29,756.68z"/>
			</g>
			<g class="st1">
				<path class="st0" d="M950.35,756.68H953c6.6,0,12,1.69,12,3.76v233.53c0,2.07-5.4,3.76-12,3.76h-2.65V756.68z"/>
			</g>
		</g>
		<g class="st4">
			<path class="st2" d="M953,999.73h-28.71c-7.72,0-14-6.28-14-14V768.68c0-7.72,6.28-14,14-14H953c7.72,0,14,6.28,14,14v217.06
				C967,993.45,960.72,999.73,953,999.73z M924.29,758.68c-5.51,0-10,4.49-10,10v217.06c0,5.51,4.49,10,10,10H953
				c5.51,0,10-4.49,10-10V768.68c0-5.51-4.49-10-10-10H924.29z"/>
		</g>
	</g>
	<g class="st3">
		<g class="st4">
			<g>
				<path class="st0" d="M307.95,756.68h28.71c6.6,0,12,1.69,12,3.76v233.53c0,2.07-5.4,3.76-12,3.76h-28.71c-6.6,0-12-1.69-12-3.76
					V760.44C295.95,758.37,301.35,756.68,307.95,756.68z"/>
			</g>
			<g>
				<path class="st0" d="M307.95,756.68v241.06c-6.6,0-12-1.69-12-3.76V760.44C295.95,758.37,301.35,756.68,307.95,756.68z"/>
			</g>
			<g class="st1">
				<path class="st0" d="M334.01,756.68h2.65c6.6,0,12,1.69,12,3.76v233.53c0,2.07-5.4,3.76-12,3.76h-2.65V756.68z"/>
			</g>
		</g>
		<g class="st4">
			<path class="st2" d="M336.66,999.73h-28.71c-7.72,0-14-6.28-14-14V768.68c0-7.72,6.28-14,14-14h28.71c7.72,0,14,6.28,14,14
				v217.06C350.66,993.45,344.38,999.73,336.66,999.73z M307.95,758.68c-5.51,0-10,4.49-10,10v217.06c0,5.51,4.49,10,10,10h28.71
				c5.51,0,10-4.49,10-10V768.68c0-5.51-4.49-10-10-10H307.95z"/>
		</g>
	</g>
	<g>
		<g>
			<g>
				<path class="st0" d="M462.04,756.68h28.71c6.6,0,12,1.69,12,3.76v233.53c0,2.07-5.4,3.76-12,3.76h-28.71c-6.6,0-12-1.69-12-3.76
					V760.44C450.04,758.37,455.44,756.68,462.04,756.68z"/>
			</g>
			<g>
				<path class="st0" d="M462.04,756.68v241.06c-6.6,0-12-1.69-12-3.76V760.44C450.04,758.37,455.44,756.68,462.04,756.68z"/>
			</g>
			<g class="st1">
				<path class="st0" d="M488.1,756.68h2.65c6.6,0,12,1.69,12,3.76v233.53c0,2.07-5.4,3.76-12,3.76h-2.65V756.68z"/>
			</g>
		</g>
		<g>
			<path class="st2" d="M490.75,999.73h-28.71c-7.72,0-14-6.28-14-14V768.68c0-7.72,6.28-14,14-14h28.71c7.72,0,14,6.28,14,14
				v217.06C504.75,993.45,498.47,999.73,490.75,999.73z M462.04,758.68c-5.51,0-10,4.49-10,10v217.06c0,5.51,4.49,10,10,10h28.71
				c5.51,0,10-4.49,10-10V768.68c0-5.51-4.49-10-10-10H462.04z"/>
		</g>
	</g>
	<g>
		<g>
			<g>
				<path class="st0" d="M770.2,756.68h28.71c6.6,0,12,1.69,12,3.76v233.53c0,2.07-5.4,3.76-12,3.76H770.2c-6.6,0-12-1.69-12-3.76
					V760.44C758.2,758.37,763.6,756.68,770.2,756.68z"/>
			</g>
			<g>
				<path class="st0" d="M770.2,756.68v241.06c-6.6,0-12-1.69-12-3.76V760.44C758.2,758.37,763.6,756.68,770.2,756.68z"/>
			</g>
			<g class="st1">
				<path class="st0" d="M796.26,756.68h2.65c6.6,0,12,1.69,12,3.76v233.53c0,2.07-5.4,3.76-12,3.76h-2.65V756.68z"/>
			</g>
		</g>
		<g>
			<path class="st2" d="M798.91,999.73H770.2c-7.72,0-14-6.28-14-14V768.68c0-7.72,6.28-14,14-14h28.71c7.72,0,14,6.28,14,14v217.06
				C812.91,993.45,806.63,999.73,798.91,999.73z M770.2,758.68c-5.51,0-10,4.49-10,10v217.06c0,5.51,4.49,10,10,10h28.71
				c5.51,0,10-4.49,10-10V768.68c0-5.51-4.49-10-10-10H770.2z"/>
		</g>
	</g>
	<g>
		<g>
			<g>
				<path class="st0" d="M616.12,756.68h28.71c6.6,0,12,1.69,12,3.76v233.53c0,2.07-5.4,3.76-12,3.76h-28.71c-6.6,0-12-1.69-12-3.76
					V760.44C604.12,758.37,609.52,756.68,616.12,756.68z"/>
			</g>
			<g>
				<path class="st0" d="M616.12,756.68v241.06c-6.6,0-12-1.69-12-3.76V760.44C604.12,758.37,609.52,756.68,616.12,756.68z"/>
			</g>
			<g class="st1">
				<path class="st0" d="M642.18,756.68h2.65c6.6,0,12,1.69,12,3.76v233.53c0,2.07-5.4,3.76-12,3.76h-2.65V756.68z"/>
			</g>
		</g>
		<g>
			<path class="st2" d="M644.83,999.73h-28.71c-7.72,0-14-6.28-14-14V768.68c0-7.72,6.28-14,14-14h28.71c7.72,0,14,6.28,14,14
				v217.06C658.83,993.45,652.55,999.73,644.83,999.73z M616.12,758.68c-5.51,0-10,4.49-10,10v217.06c0,5.51,4.49,10,10,10h28.71
				c5.51,0,10-4.49,10-10V768.68c0-5.51-4.49-10-10-10H616.12z"/>
		</g>
	</g>
</g>
<g>
	<g>
		<path class="st5" d="M689.68,340.03h-35.32c-9.2,0-16.72-7.52-16.72-16.72v-49.59c0-9.2,7.52-16.72,16.72-16.72h35.32
			c9.2,0,16.72,7.52,16.72,16.72v49.59C706.4,332.51,698.87,340.03,689.68,340.03z"/>
		<path d="M689.68,341.53h-35.32c-10.05,0-18.22-8.17-18.22-18.22v-49.59c0-10.05,8.17-18.22,18.22-18.22h35.32
			c10.05,0,18.22,8.17,18.22,18.22v49.59C707.9,333.36,699.72,341.53,689.68,341.53z M654.36,258.5c-8.39,0-15.22,6.83-15.22,15.22
			v49.59c0,8.39,6.83,15.22,15.22,15.22h35.32c8.39,0,15.22-6.83,15.22-15.22v-49.59c0-8.39-6.83-15.22-15.22-15.22H654.36z"/>
	</g>
	<g>
		<g>
			<path class="st6" d="M791.76,541.32c-0.39-1.94-1.06-3.88-2.08-5.83c-2.41-4.59-5.21-9.02-7.8-13.51
				c-8.62-14.93-17.24-29.86-25.86-44.79c-4.7-8.14-9.39-16.27-14.09-24.41c-3.3-5.72-10.68-7.69-16.39-4.39l-37.95,21.91
				c-5.72,3.3-7.69,10.68-4.39,16.39l37.97,65.76l-19.15,72.81c-1.68,6.38,2.17,12.98,8.55,14.66l42.38,11.15
				c6.38,1.68,12.98-2.17,14.66-8.55c6.6-25.09,13.2-50.18,19.8-75.26C789.71,558.47,793.5,549.95,791.76,541.32z"/>
			<path d="M755.99,651.96c-1.05,0-2.12-0.13-3.18-0.41l-42.38-11.15c-3.22-0.85-5.92-2.9-7.61-5.8s-2.15-6.26-1.3-9.47l19.1-72.61
				l-37.87-65.59c-3.45-5.97-1.39-13.63,4.58-17.08l37.95-21.91c2.88-1.66,6.25-2.1,9.48-1.23c3.23,0.87,5.93,2.93,7.59,5.81
				l39.95,69.2c0.86,1.49,1.75,2.98,2.63,4.46c1.75,2.95,3.56,5.99,5.18,9.07c1,1.9,1.72,3.91,2.13,5.97l0,0
				c1.38,6.86-0.7,13.76-2.72,20.43c-0.57,1.87-1.15,3.81-1.66,5.73l-19.8,75.26C766.61,648.25,761.53,651.96,755.99,651.96z
				 M731.49,447.29c-1.99,0-3.95,0.52-5.71,1.54l-37.95,21.91c-5.49,3.17-7.38,10.22-4.21,15.71l38.07,65.94l-0.05,0.2l-19.15,72.81
				c-0.78,2.96-0.35,6.05,1.2,8.71s4.04,4.55,7,5.33l42.38,11.15c2.96,0.78,6.05,0.35,8.71-1.2c2.66-1.55,4.56-4.04,5.33-6.99
				l19.8-75.26c0.51-1.94,1.1-3.88,1.67-5.76c2.07-6.85,4.03-13.33,2.69-19.94l0,0c-0.4-1.99-1.07-3.85-2.04-5.7
				c-1.6-3.05-3.41-6.09-5.16-9.02c-0.89-1.49-1.77-2.98-2.63-4.47l-39.95-69.2c-1.53-2.65-4.01-4.55-6.99-5.34
				C733.51,447.42,732.5,447.29,731.49,447.29z"/>
		</g>
		<g class="st7">
			<path class="st6" d="M787.39,567.25c-6.6,25.09-13.2,50.18-19.8,75.27c-1.68,6.38-8.27,10.23-14.65,8.55l-6.88-1.81l26.38-104.88
				l-58.85-89.1l11.94-6.89c5.71-3.3,13.09-1.32,16.39,4.39c4.7,8.14,9.39,16.28,14.09,24.41l25.86,44.79
				c2.59,4.49,5.39,8.92,7.8,13.51c1.03,1.95,1.7,3.9,2.09,5.83C793.49,549.96,789.7,558.47,787.39,567.25z"/>
		</g>
		<g class="st8">
			<path class="st6" d="M707.22,504.3l37.95-21.91c5.72-3.3,7.69-10.68,4.39-16.39l-7.63-13.22c-3.3-5.72-10.68-7.69-16.39-4.39
				l-37.95,21.91c-5.72,3.3-7.69,10.68-4.39,16.39l7.63,13.22C694.13,505.62,701.5,507.6,707.22,504.3z"/>
		</g>
		<g>
			<path d="M755.99,652.96c-1.15,0-2.3-0.15-3.43-0.45l-42.38-11.15c-3.47-0.91-6.39-3.14-8.21-6.26
				c-1.82-3.12-2.32-6.76-1.41-10.23l18.99-72.21l-37.66-65.23c-3.72-6.45-1.5-14.72,4.94-18.44l37.95-21.91
				c3.11-1.8,6.75-2.27,10.24-1.33c3.49,0.94,6.41,3.16,8.2,6.28l39.95,69.2c0.86,1.49,1.74,2.97,2.62,4.45
				c1.76,2.96,3.58,6.01,5.21,9.11c1.04,1.99,1.79,4.08,2.23,6.23v0c1.43,7.11-0.69,14.13-2.74,20.92
				c-0.56,1.87-1.15,3.79-1.65,5.69l-19.8,75.26c-0.91,3.47-3.14,6.39-6.26,8.21C760.69,652.34,758.35,652.96,755.99,652.96z
				 M731.49,448.29c-1.82,0-3.6,0.47-5.21,1.4l-37.95,21.91c-5.01,2.9-6.74,9.33-3.84,14.34l38.28,66.3l-19.31,73.41
				c-0.71,2.7-0.32,5.52,1.1,7.96c1.42,2.43,3.69,4.16,6.39,4.87l42.38,11.15c2.7,0.71,5.53,0.32,7.96-1.1
				c2.43-1.42,4.16-3.69,4.87-6.39l19.8-75.26c0.51-1.95,1.1-3.91,1.67-5.8c2.03-6.73,3.95-13.08,2.67-19.46
				c-0.38-1.89-1.02-3.67-1.94-5.43c-1.59-3.03-3.39-6.05-5.13-8.97c-0.89-1.49-1.78-2.99-2.64-4.48l-39.95-69.2
				c-1.4-2.42-3.66-4.15-6.38-4.88C733.33,448.41,732.41,448.29,731.49,448.29z"/>
		</g>
	</g>
	<g>
		<g>
			<path class="st6" d="M605.41,702.64h43.82c6.6,0,12-5.4,12-12V471.81c0-6.6-5.4-12-12-12h-43.82c-6.6,0-12,5.4-12,12v218.83
				C593.41,697.24,598.81,702.64,605.41,702.64z"/>
			<path d="M649.23,704.14h-43.82c-7.44,0-13.5-6.06-13.5-13.5V471.81c0-7.44,6.06-13.5,13.5-13.5h43.82c7.44,0,13.5,6.06,13.5,13.5
				v218.83C662.73,698.09,656.67,704.14,649.23,704.14z M605.41,461.31c-5.79,0-10.5,4.71-10.5,10.5v218.83
				c0,5.79,4.71,10.5,10.5,10.5h43.82c5.79,0,10.5-4.71,10.5-10.5V471.81c0-5.79-4.71-10.5-10.5-10.5H605.41z"/>
		</g>
		<g class="st8">
			<path class="st6" d="M599.92,681.03h10.97c3.58,0,6.51-2.93,6.51-6.51V473.86c0-3.58-2.93-6.51-6.51-6.51h-10.97
				c-3.58,0-6.51,2.93-6.51,6.51v200.66C593.41,678.1,596.34,681.03,599.92,681.03z"/>
		</g>
		<g class="st8">
			<path class="st6" d="M605.41,488.96h43.82c6.6,0,12-5.4,12-12v-5.15c0-6.6-5.4-12-12-12h-43.82c-6.6,0-12,5.4-12,12v5.15
				C593.41,483.56,598.81,488.96,605.41,488.96z"/>
		</g>
		<g>
			<path d="M649.23,703.14h-43.82c-6.89,0-12.5-5.61-12.5-12.5V471.81c0-6.89,5.61-12.5,12.5-12.5h43.82c6.89,0,12.5,5.61,12.5,12.5
				v218.83C661.73,697.54,656.12,703.14,649.23,703.14z M605.41,460.31c-6.34,0-11.5,5.16-11.5,11.5v218.83
				c0,6.34,5.16,11.5,11.5,11.5h43.82c6.34,0,11.5-5.16,11.5-11.5V471.81c0-6.34-5.16-11.5-11.5-11.5H605.41z"/>
		</g>
	</g>
	<g>
		<g>
			<path class="st9" d="M735.7,479.35H605.41c-6.6,0-12-5.4-12-12V292.77c0-6.6,5.4-12,12-12H735.7c6.6,0,12,5.4,12,12v174.57
				C747.7,473.95,742.3,479.35,735.7,479.35z"/>
			<path d="M735.7,479.85H605.41c-6.89,0-12.5-5.61-12.5-12.5V292.77c0-6.89,5.61-12.5,12.5-12.5H735.7c6.89,0,12.5,5.61,12.5,12.5
				v174.57C748.2,474.24,742.59,479.85,735.7,479.85z M605.41,281.27c-6.34,0-11.5,5.16-11.5,11.5v174.57
				c0,6.34,5.16,11.5,11.5,11.5H735.7c6.34,0,11.5-5.16,11.5-11.5V292.77c0-6.34-5.16-11.5-11.5-11.5H605.41z"/>
		</g>
		<g>
			<path class="st9" d="M747.69,292.61H593.42c0.08-6.53,5.44-11.84,11.99-11.84H735.7C742.25,280.77,747.61,286.08,747.69,292.61z"
				/>
			<path d="M748.19,293.11H592.91l0.01-0.51c0.08-6.8,5.69-12.33,12.49-12.33H735.7c6.8,0,12.41,5.53,12.49,12.33L748.19,293.11z
				 M593.93,292.11h153.24c-0.34-6.02-5.38-10.84-11.47-10.84H605.41C599.32,281.27,594.27,286.09,593.93,292.11z"/>
		</g>
		<g>
			<path d="M735.7,481.35H605.41c-7.72,0-14-6.28-14-14V292.77c0-7.72,6.28-14,14-14H735.7c7.72,0,14,6.28,14,14v174.57
				C749.7,475.07,743.42,481.35,735.7,481.35z M605.41,282.77c-5.51,0-10,4.49-10,10v174.57c0,5.51,4.49,10,10,10H735.7
				c5.51,0,10-4.49,10-10V292.77c0-5.51-4.49-10-10-10H605.41z"/>
		</g>
	</g>
	<g>
		<g>
			<path class="st10" d="M635.14,270.88c-7.44,0-13.5-6.06-13.5-13.5V166c0-7.44,6.06-13.5,13.5-13.5h76.96
				c7.44,0,13.5,6.06,13.5,13.5v91.39c0,7.44-6.06,13.5-13.5,13.5H635.14z"/>
		</g>
		<g>
			<path d="M712.1,154c6.6,0,12,5.4,12,12v91.39c0,6.6-5.4,12-12,12h-76.96c-6.6,0-12-5.4-12-12V166c0-6.6,5.4-12,12-12H712.1
				 M712.1,151h-76.96c-8.27,0-15,6.73-15,15v91.39c0,8.27,6.73,15,15,15h76.96c8.27,0,15-6.73,15-15V166
				C727.1,157.72,720.37,151,712.1,151L712.1,151z"/>
		</g>
	</g>
	<g>
		<g>
			<path class="st11" d="M795.22,668.16l-86.43-22.73c-6.38-1.68-10.23-8.27-8.55-14.66l7.68-29.2c1.68-6.38,8.27-10.23,14.66-8.55
				l86.43,22.73c6.38,1.68,10.23,8.27,8.55,14.66l-7.68,29.2C808.2,665.99,801.61,669.84,795.22,668.16z"/>
			<path d="M798.28,669.06c-1.05,0-2.12-0.13-3.18-0.41l-86.43-22.73c-6.67-1.75-10.66-8.6-8.91-15.27l7.68-29.2
				c0.85-3.22,2.9-5.92,5.8-7.6s6.26-2.15,9.47-1.3l86.43,22.73c6.67,1.75,10.66,8.6,8.91,15.27l-7.68,29.2
				C808.89,665.34,803.82,669.06,798.28,669.06z M795.35,667.68c6.13,1.61,12.43-2.06,14.05-8.2l7.68-29.2
				c1.61-6.13-2.06-12.43-8.2-14.05l-86.43-22.73c-2.96-0.78-6.05-0.35-8.71,1.2c-2.66,1.55-4.55,4.04-5.33,6.99l-7.68,29.2
				c-0.78,2.96-0.35,6.05,1.2,8.71s4.04,4.55,6.99,5.33L795.35,667.68z"/>
		</g>
		<g>
			<path class="st11" d="M809.75,660.63c-2.35,5.26-8.27,8.22-14.01,6.71l-86.43-22.74c-5.58-1.46-9.22-6.69-8.92-12.24
				L809.75,660.63z"/>
		</g>
		<g class="st1">
			<path class="st11" d="M817.11,631.22l-0.3,1.14L707.4,602.68l0.08-0.3c1.67-6.38,8.27-10.23,14.65-8.55l86.43,22.73
				C814.95,618.24,818.8,624.84,817.11,631.22z"/>
		</g>
		<g>
			<path d="M798.27,670.06c-1.13,0-2.28-0.14-3.43-0.45l-86.43-22.73c-7.2-1.89-11.51-9.29-9.62-16.49l7.68-29.2
				c1.89-7.2,9.29-11.52,16.49-9.62l86.43,22.73c7.2,1.89,11.51,9.29,9.62,16.49l-7.68,29.2
				C809.74,666.04,804.26,670.06,798.27,670.06z M795.61,666.71c2.7,0.71,5.52,0.32,7.96-1.1c2.43-1.42,4.16-3.69,4.87-6.39
				l7.68-29.2c1.47-5.6-1.88-11.35-7.48-12.83l-86.43-22.73c-5.6-1.47-11.35,1.89-12.83,7.48l-7.68,29.2
				c-1.47,5.6,1.88,11.35,7.48,12.83L795.61,666.71z"/>
		</g>
	</g>
	<g>
		<g>
			<path class="st11" d="M672,703.8h-89.37c-6.6,0-12-5.4-12-12v-30.19c0-6.6,5.4-12,12-12H672c6.6,0,12,5.4,12,12v30.19
				C684,698.4,678.6,703.8,672,703.8z"/>
			<path d="M672,704.3h-89.37c-6.89,0-12.5-5.61-12.5-12.5v-30.19c0-6.89,5.61-12.5,12.5-12.5H672c6.89,0,12.5,5.61,12.5,12.5v30.19
				C684.5,698.69,678.9,704.3,672,704.3z M582.63,650.11c-6.34,0-11.5,5.16-11.5,11.5v30.19c0,6.34,5.16,11.5,11.5,11.5H672
				c6.34,0,11.5-5.16,11.5-11.5v-30.19c0-6.34-5.16-11.5-11.5-11.5H582.63z"/>
		</g>
		<g class="st1">
			<path class="st11" d="M683.92,660.25H570.71c0.68-5.97,5.78-10.64,11.92-10.64H672C678.14,649.61,683.24,654.28,683.92,660.25z"
				/>
		</g>
		<g>
			<path class="st11" d="M683.99,692.06c-0.13,6.48-5.48,11.74-11.99,11.74h-89.37c-6.51,0-11.86-5.26-11.99-11.74H683.99z"/>
		</g>
		<g>
			<path d="M672,705.3h-89.37c-7.44,0-13.5-6.06-13.5-13.5v-30.19c0-7.44,6.06-13.5,13.5-13.5H672c7.44,0,13.5,6.06,13.5,13.5v30.19
				C685.5,699.25,679.45,705.3,672,705.3z M582.63,651.11c-5.79,0-10.5,4.71-10.5,10.5v30.19c0,5.79,4.71,10.5,10.5,10.5H672
				c5.79,0,10.5-4.71,10.5-10.5v-30.19c0-5.79-4.71-10.5-10.5-10.5H582.63z"/>
		</g>
	</g>
	<g>
		<g>
			<path class="st6" d="M735.7,479.35H605.41c-6.6,0-12-5.4-12-12v-33.96c0-6.6,5.4-12,12-12H735.7c6.6,0,12,5.4,12,12v33.96
				C747.7,473.95,742.3,479.35,735.7,479.35z"/>
			<path d="M735.7,479.85H605.41c-6.89,0-12.5-5.61-12.5-12.5v-33.96c0-6.89,5.61-12.5,12.5-12.5H735.7c6.89,0,12.5,5.61,12.5,12.5
				v33.96C748.2,474.24,742.59,479.85,735.7,479.85z M605.41,421.89c-6.34,0-11.5,5.16-11.5,11.5v33.96c0,6.34,5.16,11.5,11.5,11.5
				H735.7c6.34,0,11.5-5.16,11.5-11.5v-33.96c0-6.34-5.16-11.5-11.5-11.5H605.41z"/>
		</g>
		<g class="st12">
			<path class="st6" d="M747.69,433.39v9.39H593.41v-9.39c0-6.6,5.4-12,12-12h130.28C742.29,421.39,747.69,426.79,747.69,433.39z"/>
		</g>
		<g>
			<path d="M735.7,481.35H605.41c-7.72,0-14-6.28-14-14v-33.96c0-7.72,6.28-14,14-14H735.7c7.72,0,14,6.28,14,14v33.96
				C749.7,475.07,743.42,481.35,735.7,481.35z M605.41,423.39c-5.51,0-10,4.49-10,10v33.96c0,5.51,4.49,10,10,10H735.7
				c5.51,0,10-4.49,10-10v-33.96c0-5.51-4.49-10-10-10H605.41z"/>
		</g>
		<g class="st12">
			<path class="st6" d="M747.67,468.65c-0.27,6.35-5.56,11.46-11.98,11.46H605.41c-6.42,0-11.71-5.11-11.98-11.46H747.67z"/>
		</g>
	</g>
	<g>
		<path class="st10" d="M724.1,172.96v10.37H623.14v-10.37c0-8.33,6.82-15.14,15.14-15.14h70.67
			C717.29,157.81,724.1,164.63,724.1,172.96z"/>
	</g>
	<g>
		<g>
			<g>
				<g>
					<path class="st9" d="M685.03,428.57c-0.55,7.53-7.52,12.96-14.94,11.56c-18.83-3.55-36.24-11.44-50.95-23.19
						c-18.28-14.59-31.06-34.52-35.99-56.1c-7.17-31.37,3.42-58.26,12.32-73.94c3.79-6.68,12.58-8.49,18.69-3.85l11.79,8.95
						c4.99,3.78,6.45,10.63,3.48,16.14c-5.29,9.82-11.35,25.97-7.28,43.78c5.49,24.02,26.92,42.9,53.86,48.57
						c6.23,1.31,10.55,6.98,10.09,13.33L685.03,428.57z"/>
					<path d="M672.41,440.84c-0.8,0-1.61-0.07-2.41-0.23c-18.84-3.55-36.54-11.6-51.17-23.29c-18.36-14.66-31.21-34.69-36.17-56.38
						c-7.07-30.92,2.83-57.47,12.37-74.29c1.88-3.31,5.09-5.64,8.81-6.41c3.72-0.77,7.59,0.11,10.62,2.41l11.79,8.95
						c5.21,3.95,6.73,11.01,3.62,16.78c-5.5,10.2-11.22,26.02-7.24,43.44c5.39,23.57,26.38,42.48,53.47,48.2
						c6.45,1.36,10.96,7.32,10.49,13.85l-1.07,14.74c-0.27,3.75-2.14,7.22-5.12,9.51C678.1,439.9,675.28,440.84,672.41,440.84z
						 M606.5,280.98c-0.82,0-1.64,0.08-2.45,0.25c-3.44,0.71-6.41,2.87-8.14,5.92c-9.46,16.67-19.26,42.97-12.26,73.58
						c4.91,21.48,17.63,41.3,35.81,55.82c14.51,11.58,32.05,19.56,50.73,23.09c3.38,0.64,6.88-0.21,9.61-2.31
						c2.76-2.12,4.48-5.33,4.73-8.79l1.07-14.74c0.44-6.04-3.73-11.54-9.7-12.8c-27.48-5.79-48.77-25.01-54.24-48.95
						c-4.05-17.72,1.75-33.78,7.33-44.13c2.87-5.33,1.47-11.85-3.34-15.5l-11.79-8.95C611.73,281.83,609.14,280.98,606.5,280.98z"/>
				</g>
			</g>
			<g>
				<g>
					<path class="st9" d="M680.82,437.12c-2.8,2.52-6.7,3.77-10.72,3.01c-18.84-3.55-36.24-11.44-50.95-23.19
						c-18.27-14.59-31.05-34.51-35.98-56.1c-7.17-31.38,3.42-58.26,12.32-73.94c2.62-4.62,7.65-6.92,12.52-6.34
						c-1,0.89-1.89,1.97-2.59,3.21c-8.89,15.68-19.49,42.57-12.32,73.94c4.94,21.58,17.71,41.51,35.99,56.1
						c14.71,11.75,32.12,19.64,50.95,23.19C680.3,437.05,680.56,437.08,680.82,437.12z"/>
					<path d="M672.45,440.85c-0.81,0-1.63-0.08-2.44-0.23c-18.86-3.56-36.55-11.61-51.17-23.29c-18.36-14.66-31.2-34.68-36.16-56.38
						c-7.07-30.94,2.82-57.48,12.37-74.3c2.63-4.63,7.74-7.22,13.02-6.59l1.1,0.13l-0.83,0.74c-0.99,0.89-1.83,1.92-2.48,3.08
						c-9.46,16.68-19.26,42.98-12.26,73.58c4.91,21.48,17.63,41.3,35.82,55.82c14.49,11.58,32.03,19.56,50.73,23.09
						c0.26,0.05,0.5,0.08,0.75,0.12l1.09,0.14l-0.82,0.73C678.71,439.68,675.64,440.85,672.45,440.85z M606.48,280.97
						c-4.34,0-8.39,2.32-10.57,6.17c-9.46,16.67-19.26,42.96-12.26,73.58c4.91,21.47,17.63,41.3,35.81,55.82
						c14.5,11.58,32.04,19.56,50.74,23.09c3.36,0.63,6.75-0.17,9.46-2.2c-18.74-3.59-36.33-11.62-50.87-23.24
						c-18.36-14.66-31.21-34.68-36.17-56.38c-7.07-30.92,2.83-57.47,12.37-74.3c0.52-0.92,1.15-1.77,1.88-2.54
						C606.73,280.98,606.61,280.97,606.48,280.97z"/>
				</g>
			</g>
			<g>
				<g>
					<path d="M672.41,441.84c-0.87,0-1.73-0.08-2.59-0.24c-19-3.58-36.85-11.7-51.61-23.49c-18.54-14.8-31.51-35.02-36.52-56.94
						c-7.14-31.24,2.84-58.03,12.47-75.01c2.02-3.56,5.47-6.07,9.48-6.9c4-0.83,8.17,0.12,11.43,2.59l11.79,8.95
						c5.6,4.25,7.24,11.84,3.89,18.05c-5.42,10.05-11.05,25.63-7.14,42.74c5.3,23.19,25.99,41.81,52.7,47.44
						c6.94,1.46,11.79,7.87,11.28,14.9l-1.07,14.74c-0.29,4.04-2.3,7.77-5.51,10.23C678.53,440.82,675.5,441.84,672.41,441.84z
						 M606.5,281.98c-0.75,0-1.5,0.08-2.25,0.23c-3.16,0.65-5.88,2.63-7.47,5.44c-9.37,16.52-19.08,42.56-12.16,72.86
						c4.86,21.26,17.45,40.88,35.46,55.26c14.38,11.48,31.77,19.39,50.29,22.89c3.1,0.58,6.31-0.19,8.82-2.12
						c2.53-1.95,4.12-4.89,4.35-8.07l1.07-14.74c0.4-5.54-3.43-10.6-8.91-11.75c-27.86-5.87-49.45-25.38-55.01-49.71
						c-4.12-18.02,1.77-34.32,7.43-44.83c2.64-4.9,1.35-10.88-3.07-14.23l-11.79-8.95C611.3,282.76,608.92,281.98,606.5,281.98z"/>
				</g>
			</g>
		</g>
		<g>
			<g>
				<path class="st10" d="M725.42,403.6l-3.95,46.2c-0.56,6.58-6.4,11.5-12.98,10.93l-27.38-2.34c-6.58-0.56-11.5-6.4-10.93-12.98
					l3.95-46.2c0.56-6.58,6.4-11.5,12.98-10.93l27.38,2.34C721.06,391.18,725.98,397.02,725.42,403.6z"/>
				<path d="M709.52,461.28c-0.36,0-0.71-0.02-1.07-0.05l-27.38-2.34c-6.87-0.59-11.98-6.65-11.39-13.52l3.95-46.2
					c0.28-3.31,1.85-6.33,4.41-8.48c2.56-2.16,5.79-3.19,9.11-2.91l27.38,2.34c6.87,0.59,11.98,6.65,11.39,13.52l-3.95,46.2
					c-0.28,3.31-1.85,6.33-4.41,8.48C715.27,460.25,712.46,461.28,709.52,461.28z M686.07,388.74c-2.7,0-5.29,0.95-7.39,2.72
					c-2.36,1.99-3.8,4.76-4.06,7.8l-3.95,46.2c-0.54,6.32,4.16,11.9,10.48,12.44l27.38,2.34c3.04,0.26,6.02-0.69,8.38-2.68
					c2.36-1.99,3.8-4.76,4.06-7.8l3.95-46.2c0.54-6.32-4.16-11.9-10.48-12.44l-27.38-2.34C686.73,388.75,686.4,388.74,686.07,388.74
					z"/>
			</g>
			<g class="st13">
				<path class="st10" d="M725.36,403.33l-3.95,46.2c-0.57,6.58-6.4,11.5-12.98,10.94l-1.01-0.09c-2.06-0.18-3.59-1.98-3.43-4.05
					l4.24-54.34c0.16-2-1.28-3.77-3.26-4.03l-18.74-2.47c-4.77-0.63-4.13-7.85,0.67-7.49c0.05,0,0.1,0.01,0.14,0.01l27.38,2.34
					C720.99,390.92,725.92,396.76,725.36,403.33z"/>
				<path d="M709.45,461.01c-0.35,0-0.71-0.02-1.06-0.05l-1.01-0.09c-2.33-0.2-4.07-2.26-3.89-4.58l4.24-54.34
					c0.13-1.73-1.11-3.27-2.83-3.49l-18.74-2.47c-2.7-0.36-3.89-2.64-3.68-4.72c0.2-1.96,1.68-3.98,4.46-3.77l0.15,0.01l27.38,2.34
					c3.31,0.28,6.32,1.85,8.48,4.41c2.16,2.56,3.19,5.79,2.91,9.11l-3.95,46.2C721.34,456.08,715.86,461.01,709.45,461.01z
					 M686.56,388.49c-1.92,0-2.93,1.42-3.08,2.89c-0.16,1.55,0.65,3.34,2.82,3.62l18.74,2.47c2.25,0.3,3.87,2.3,3.7,4.56
					l-4.24,54.34c-0.14,1.78,1.2,3.36,2.98,3.51l1.01,0.09c6.32,0.53,11.89-4.17,12.44-10.48l3.95-46.2
					c0.26-3.05-0.69-6.02-2.68-8.38c-1.99-2.36-4.76-3.8-7.8-4.06l-27.51-2.35C686.76,388.5,686.66,388.49,686.56,388.49z"/>
			</g>
			<g>
				<path d="M709.59,461.51c-0.38,0-0.77-0.02-1.16-0.05l-27.38-2.34c-7.42-0.63-12.94-7.18-12.3-14.6l3.95-46.2
					c0.63-7.42,7.2-12.93,14.6-12.3l27.38,2.34c3.58,0.31,6.83,2,9.16,4.76c2.33,2.77,3.44,6.26,3.14,9.84l-3.95,46.2
					C722.43,456.19,716.51,461.51,709.59,461.51z M686.14,388.97c-5.39,0-9.99,4.14-10.46,9.61l-3.95,46.2
					c-0.49,5.77,3.8,10.86,9.57,11.36l27.38,2.34c5.75,0.49,10.86-3.8,11.36-9.57l3.95-46.2c0.24-2.78-0.63-5.5-2.44-7.65
					s-4.34-3.47-7.12-3.71l-27.38-2.34C686.74,388.98,686.44,388.97,686.14,388.97z"/>
			</g>
		</g>
	</g>
	<g>
		<g>
			<g>
				<g>
					<path class="st9" d="M885.11,334.06c7.19-2.31,10.82-10.37,7.71-17.24c-7.9-17.46-19.68-32.51-34.56-44.03
						c-18.49-14.31-40.87-22.03-63.01-21.72c-32.18,0.44-55.8,17.08-68.94,29.43c-5.59,5.26-5.27,14.23,0.68,19.07l11.48,9.34
						c4.86,3.95,11.85,3.76,16.51-0.43c8.29-7.46,22.56-17.17,40.83-17.42c24.63-0.34,48.04,16.03,59.92,40.86
						c2.75,5.74,9.27,8.61,15.33,6.66L885.11,334.06z"/>
					<path d="M867.23,339.68c-4.97,0-9.72-2.84-11.97-7.54c-11.95-24.98-35.33-40.92-59.46-40.58c-17.86,0.25-31.88,9.54-40.5,17.29
						c-4.87,4.38-12.09,4.57-17.15,0.45l-11.48-9.34c-2.95-2.4-4.72-5.96-4.85-9.75c-0.13-3.8,1.38-7.47,4.15-10.07
						c14.09-13.25,37.55-29.13,69.27-29.56c22.27-0.3,44.74,7.45,63.33,21.83c14.81,11.46,26.81,26.75,34.71,44.22
						c1.53,3.39,1.54,7.29,0.03,10.7c-1.53,3.44-4.46,6.07-8.04,7.22l-14.07,4.52C869.89,339.47,868.55,339.68,867.23,339.68z
						 M796.54,290.55c24.29,0,47.63,16.08,59.62,41.15c2.63,5.5,8.97,8.25,14.73,6.4l14.07-4.52c3.31-1.06,6.02-3.5,7.43-6.68
						c1.4-3.15,1.39-6.76-0.03-9.89c-7.83-17.32-19.73-32.48-34.41-43.84c-18.06-13.97-39.83-21.63-61.44-21.63
						c-0.42,0-0.84,0-1.26,0.01c-31.4,0.43-54.63,16.17-68.6,29.29c-2.56,2.41-3.96,5.8-3.83,9.31c0.12,3.51,1.76,6.79,4.48,9.01
						l11.48,9.34c4.68,3.81,11.35,3.64,15.86-0.41c8.74-7.87,22.98-17.3,41.15-17.55C796.04,290.55,796.29,290.55,796.54,290.55z"/>
				</g>
			</g>
			<g>
				<g>
					<path class="st9" d="M892.43,327.94c1.79-3.32,2.08-7.4,0.39-11.13c-7.9-17.47-19.67-32.52-34.56-44.04
						c-18.5-14.31-40.87-22.02-63.01-21.72c-32.18,0.44-55.81,17.08-68.94,29.43c-3.87,3.64-4.92,9.07-3.2,13.67
						c0.63-1.18,1.47-2.3,2.5-3.27c13.13-12.34,36.76-28.99,68.94-29.43c22.14-0.3,44.51,7.41,63.01,21.73
						c14.89,11.52,26.66,26.57,34.57,44.03C892.24,327.46,892.33,327.7,892.43,327.94z"/>
					<path d="M892.35,329.14l-0.39-1.02c-0.09-0.24-0.18-0.46-0.29-0.7c-7.84-17.33-19.75-32.49-34.42-43.84
						c-18.4-14.24-40.7-21.94-62.7-21.62c-31.39,0.43-54.63,16.17-68.6,29.29c-0.97,0.91-1.78,1.97-2.41,3.14l-0.52,0.98l-0.39-1.04
						c-1.86-4.98-0.56-10.56,3.33-14.21c14.09-13.25,37.54-29.13,69.28-29.56c22.26-0.33,44.74,7.45,63.32,21.82
						c14.8,11.45,26.81,26.74,34.71,44.23c1.69,3.74,1.54,7.95-0.41,11.57L892.35,329.14z M795.8,260.94
						c21.85,0,43.84,7.73,62.06,21.84c14.72,11.39,26.68,26.58,34.59,43.95c1.34-3.11,1.32-6.59-0.09-9.71
						c-7.84-17.33-19.74-32.5-34.41-43.85c-18.41-14.24-40.7-21.92-62.7-21.61c-31.41,0.43-54.64,16.17-68.6,29.29
						c-3.32,3.12-4.6,7.77-3.41,12.09c0.58-0.89,1.26-1.7,2.03-2.43c14.1-13.25,37.56-29.13,69.28-29.56
						C794.96,260.95,795.38,260.94,795.8,260.94z"/>
				</g>
			</g>
			<g>
				<g>
					<path d="M867.23,340.67c-5.35,0-10.45-3.06-12.87-8.11c-11.78-24.63-34.79-40.36-58.54-40.01
						c-17.55,0.24-31.35,9.4-39.84,17.03c-5.24,4.71-13,4.92-18.46,0.48l-11.48-9.34c-3.17-2.58-5.07-6.41-5.22-10.49
						c-0.15-4.09,1.48-8.04,4.46-10.84c14.22-13.37,37.9-29.39,69.94-29.83c22.49-0.29,45.19,7.52,63.95,22.04
						c14.94,11.56,27.04,26.98,35.01,44.6c1.65,3.65,1.66,7.85,0.03,11.52c-1.64,3.7-4.79,6.53-8.64,7.77L871.5,340
						C870.09,340.46,868.65,340.67,867.23,340.67z M796.54,289.55c24.67,0,48.36,16.3,60.52,41.72c2.42,5.05,8.23,7.58,13.52,5.88
						l14.07-4.52c3.04-0.98,5.52-3.21,6.82-6.13c1.28-2.89,1.28-6.2-0.02-9.07c-7.77-17.17-19.56-32.2-34.11-43.47
						c-18.23-14.11-40.31-21.72-62.07-21.41c-31.08,0.43-54.09,16.02-67.93,29.02c-2.35,2.21-3.63,5.32-3.52,8.54
						s1.61,6.24,4.12,8.27l11.48,9.34c4.3,3.5,10.42,3.34,14.55-0.38c8.87-7.98,23.33-17.55,41.81-17.8
						C796.03,289.55,796.29,289.55,796.54,289.55z"/>
				</g>
			</g>
		</g>
		<g>
			<g>
				<path class="st10" d="M870.39,379.19l43.96-14.75c6.26-2.1,9.66-8.94,7.56-15.19l-8.74-26.05c-2.1-6.26-8.94-9.66-15.19-7.56
					l-43.96,14.75c-6.26,2.1-9.66,8.94-7.56,15.19l8.74,26.05C857.3,377.89,864.13,381.29,870.39,379.19z"/>
				<path d="M866.58,380.32c-5.23,0-10.11-3.3-11.86-8.53l-8.74-26.05c-2.19-6.54,1.34-13.63,7.88-15.83l43.96-14.75
					c6.53-2.19,13.63,1.34,15.83,7.88l8.74,26.05c2.19,6.53-1.34,13.63-7.88,15.83l-43.96,14.75
					C869.24,380.11,867.9,380.32,866.58,380.32z M901.79,315.52c-1.21,0-2.44,0.19-3.65,0.6l-43.96,14.75
					c-6.01,2.02-9.26,8.55-7.25,14.56l8.74,26.05c2.02,6.01,8.55,9.26,14.56,7.25l43.96-14.75c6.01-2.02,9.26-8.55,7.25-14.56
					l-8.74-26.05C911.09,318.56,906.6,315.52,901.79,315.52z"/>
			</g>
			<g class="st13">
				<path class="st10" d="M870.12,379.2l43.96-14.75c6.25-2.11,9.66-8.93,7.56-15.2l-0.32-0.96c-0.66-1.96-2.78-3.02-4.74-2.38
					l-51.8,16.95c-1.9,0.62-3.96-0.35-4.69-2.22l-6.83-17.63c-1.74-4.49-8.6-2.16-7.12,2.43c0.01,0.05,0.03,0.09,0.05,0.14
					l8.74,26.05C857.02,377.89,863.86,381.3,870.12,379.2z"/>
				<path d="M866.32,380.32c-1.91,0-3.81-0.44-5.58-1.32c-3-1.49-5.23-4.05-6.29-7.2l-8.79-26.19c-0.86-2.65,0.75-4.56,2.61-5.22
					c1.97-0.7,4.47-0.08,5.45,2.46l6.83,17.63c0.63,1.62,2.41,2.47,4.07,1.93l51.8-16.95c2.22-0.73,4.63,0.48,5.37,2.7l0.32,0.96
					c2.19,6.53-1.35,13.63-7.88,15.83l-43.96,14.75C868.98,380.11,867.65,380.32,866.32,380.32z M846.66,345.43l8.74,26.05
					c0.97,2.9,3.03,5.25,5.78,6.62c2.76,1.37,5.88,1.59,8.77,0.62l43.96-14.75c6.01-2.02,9.26-8.56,7.25-14.57l-0.32-0.96
					c-0.57-1.69-2.41-2.62-4.12-2.07l-51.8,16.95c-2.16,0.71-4.49-0.4-5.31-2.51l-6.83-17.63c-0.79-2.03-2.72-2.4-4.19-1.88
					c-1.46,0.52-2.65,1.95-1.99,3.97l-0.43,0.29L846.66,345.43z"/>
			</g>
			<g>
				<path d="M865.85,381.56c-5.64,0-10.92-3.57-12.81-9.21l-8.74-26.05c-2.37-7.06,1.45-14.73,8.51-17.09l43.96-14.75
					c7.06-2.36,14.73,1.45,17.09,8.51l8.74,26.05c2.37,7.06-1.45,14.73-8.51,17.09l-43.96,14.75
					C868.72,381.34,867.27,381.56,865.85,381.56z M901.06,316.77c-1.1,0-2.23,0.18-3.33,0.55l-43.96,14.75
					c-5.49,1.84-8.46,7.8-6.62,13.29l8.74,26.05c1.84,5.49,7.8,8.46,13.29,6.62l43.96-14.75c5.49-1.84,8.46-7.8,6.62-13.29
					l-8.74-26.05C909.55,319.54,905.45,316.77,901.06,316.77z"/>
			</g>
		</g>
	</g>
	<g>
		<g>
			<path class="st14" d="M724.96,121.99c-7.69,0-13.98,6.29-13.98,13.98V154h-80.39c-4.1,0-7.45,3.35-7.45,7.45v6.75
				c0,4.1,3.35,7.45,7.45,7.45h100.9c4.1,0,7.45-3.35,7.45-7.45v-6.53v-0.22v-25.47C738.94,128.29,732.65,121.99,724.96,121.99z"/>
			<path d="M731.49,176.15h-100.9c-4.38,0-7.95-3.57-7.95-7.95v-6.75c0-4.38,3.57-7.95,7.95-7.95h79.89v-17.52
				c0-7.98,6.5-14.48,14.48-14.48s14.48,6.5,14.48,14.48v32.22C739.44,172.58,735.87,176.15,731.49,176.15z M630.59,154.5
				c-3.83,0-6.95,3.12-6.95,6.95v6.75c0,3.83,3.12,6.95,6.95,6.95h100.9c3.83,0,6.95-3.12,6.95-6.95v-32.22
				c0-7.43-6.05-13.48-13.48-13.48s-13.48,6.05-13.48,13.48v18.52H630.59z"/>
		</g>
		<g>
			<path class="st14" d="M738.94,168.18v0.01c0,4.1-3.36,7.46-7.46,7.46h-100.9c-4.09,0-7.45-3.36-7.45-7.46v-0.01H738.94z"/>
		</g>
		<g>
			<path class="st14" d="M720.11,125.54v30.13c0,0.91-0.74,1.66-1.66,1.66h-88.37c-2.04,0-2.29-3.08-0.25-3.29
				c0.25-0.03,0.51-0.04,0.76-0.04h78.74c0.91,0,1.66-0.74,1.66-1.66v-16.37c0-4.98,2.65-9.38,6.6-11.86
				C718.68,123.43,720.11,124.25,720.11,125.54z"/>
		</g>
		<g>
			<path d="M724.96,121.99c7.69,0,13.98,6.29,13.98,13.98v25.47v0.22v6.53c0,4.1-3.35,7.45-7.45,7.45h-100.9
				c-4.1,0-7.45-3.35-7.45-7.45v-6.75c0-4.1,3.35-7.45,7.45-7.45h80.39v-18.02C710.98,128.29,717.27,121.99,724.96,121.99
				 M724.96,118.99c-9.36,0-16.98,7.62-16.98,16.98V151h-77.39c-5.76,0-10.45,4.69-10.45,10.45v6.75c0,5.76,4.69,10.45,10.45,10.45
				h100.9c5.76,0,10.45-4.69,10.45-10.45v-6.53v-0.22v-25.47C741.94,126.61,734.32,118.99,724.96,118.99L724.96,118.99z"/>
		</g>
	</g>
	<g>
		<g>
			<circle class="st15" cx="655.23" cy="206.11" r="13.15"/>
		</g>
		<g>
			<circle class="st2" cx="655.23" cy="206.11" r="5.69"/>
		</g>
		<g>
			<path class="st2" d="M664.82,190.37h-19.18c-1.19,0-2.16-0.97-2.16-2.16v-2.03c0-1.19,0.97-2.16,2.16-2.16h19.18
				c1.19,0,2.16,0.97,2.16,2.16v2.03C666.98,189.4,666.01,190.37,664.82,190.37z"/>
		</g>
	</g>
	<g>
		<g>
			<circle class="st15" cx="693.97" cy="206.11" r="13.15"/>
		</g>
		<g>
			<circle class="st2" cx="693.97" cy="206.11" r="5.69"/>
		</g>
		<g>
			<path class="st2" d="M703.56,186.51h-19.18c-1.19,0-2.16-0.97-2.16-2.16v-2.03c0-1.19,0.97-2.16,2.16-2.16h19.18
				c1.19,0,2.16,0.97,2.16,2.16v2.03C705.72,185.53,704.75,186.51,703.56,186.51z"/>
		</g>
	</g>
	<g>
		<path d="M672.02,252.55h-29.94c-0.83,0-1.5-0.67-1.5-1.5s0.67-1.5,1.5-1.5h29.94c0.83,0,1.5,0.67,1.5,1.5
			S672.85,252.55,672.02,252.55z"/>
	</g>
	<g>
		<path class="st2" d="M874.37,241.98c-0.53,0-1.05-0.28-1.32-0.78c-3.14-5.78-15.32-25.15-40.31-31.6
			c-22.73-5.87-41.1,2.62-47.94,6.54c-0.72,0.41-1.63,0.16-2.05-0.56c-0.41-0.72-0.16-1.64,0.56-2.05
			c7.16-4.1,26.38-12.99,50.18-6.84c26.16,6.76,38.91,27.02,42.2,33.07c0.4,0.73,0.12,1.64-0.6,2.03
			C874.86,241.92,874.61,241.98,874.37,241.98z"/>
	</g>
	<g>
		<path class="st2" d="M855.2,247.85c-0.53,0-1.05-0.28-1.32-0.78c-2.06-3.79-10.06-16.5-26.46-20.74
			c-14.92-3.85-26.97,1.72-31.46,4.29c-0.72,0.41-1.64,0.16-2.05-0.56c-0.41-0.72-0.16-1.64,0.55-2.05
			c4.81-2.76,17.72-8.72,33.71-4.59c17.57,4.54,26.14,18.15,28.34,22.21c0.4,0.73,0.12,1.64-0.6,2.03
			C855.68,247.79,855.44,247.85,855.2,247.85z"/>
	</g>
	<g>
		<path class="st2" d="M817.12,597.29c-0.44,0-0.88-0.2-1.18-0.57c-0.51-0.65-0.4-1.59,0.25-2.11c5.17-4.07,22.22-19.33,24.38-45.04
			c1.97-23.4-9.48-40.08-14.5-46.16c-0.53-0.64-0.44-1.58,0.2-2.11c0.64-0.53,1.58-0.44,2.11,0.2c5.25,6.37,17.23,23.82,15.17,48.32
			c-2.27,26.92-20.1,42.9-25.52,47.15C817.77,597.19,817.44,597.29,817.12,597.29z"/>
	</g>
	<g>
		<path class="st2" d="M808.12,579.38c-0.44,0-0.88-0.2-1.18-0.57c-0.51-0.65-0.4-1.59,0.25-2.11c3.39-2.67,14.58-12.68,16-29.56
			c1.29-15.36-6.22-26.3-9.51-30.29c-0.53-0.64-0.44-1.58,0.2-2.11c0.64-0.53,1.58-0.44,2.11,0.2c3.53,4.27,11.58,15.99,10.19,32.46
			c-1.52,18.09-13.5,28.81-17.14,31.67C808.77,579.27,808.44,579.38,808.12,579.38z"/>
	</g>
	<g>
		<path class="st2" d="M525.75,295.88c-0.11,0-0.21-0.01-0.32-0.04c-0.81-0.18-1.32-0.98-1.14-1.79
			c1.77-8.06,8.09-28.26,28.64-41.77c22.58-14.84,46.16-10.68,52.84-9.05c0.81,0.2,1.3,1.01,1.1,1.81s-1,1.3-1.81,1.1
			c-6.39-1.56-28.92-5.54-50.49,8.64c-19.62,12.9-25.67,32.21-27.35,39.91C527.06,295.4,526.44,295.88,525.75,295.88z"/>
	</g>
	<g>
		<path class="st2" d="M543.97,297.33c-0.11,0-0.21-0.01-0.32-0.04c-0.81-0.18-1.32-0.98-1.14-1.79
			c1.19-5.41,5.44-18.99,19.24-28.06c15.16-9.97,31-7.17,35.49-6.08c0.81,0.2,1.3,1.01,1.1,1.81s-1.01,1.3-1.81,1.1
			c-4.19-1.02-18.98-3.64-33.14,5.67c-12.88,8.47-16.84,21.14-17.95,26.19C545.28,296.86,544.66,297.33,543.97,297.33z"/>
	</g>
</g>
</svg>
