<?xml version="1.0" encoding="utf-8"?>
<!-- Generator: Adobe Illustrator 24.0.3, SVG Export Plug-In . SVG Version: 6.00 Build 0)  -->
<svg version="1.1" id="Layer_1" xmlns="http://www.w3.org/2000/svg" xmlns:xlink="http://www.w3.org/1999/xlink" x="0px" y="0px"
	 viewBox="0 0 1280 1024" style="enable-background:new 0 0 1280 1024;" xml:space="preserve">
<style type="text/css">
	.st0{fill:#A04902;}
	.st1{opacity:0.7;}
	.st2{fill:#232323;}
	.st3{display:none;}
	.st4{display:inline;}
	.st5{fill:#F7ADAD;}
	.st6{fill:#14BDC1;}
	.st7{opacity:0.4;}
	.st8{opacity:0.3;}
	.st9{fill:#7B27AD;}
	.st10{fill:#FFBDBD;}
	.st11{fill:#C1C1C1;}
	.st12{opacity:0.5;}
	.st13{opacity:0.9;}
	.st14{fill:#595B5B;}
	.st15{fill:#F4F4F4;}
</style>
<g>
	<g>
		<g>
			<path class="st0" d="M1014.67,715.89v28.71c0,6.6-5.4,12-12,12H258.29c-6.6,0-12-5.4-12-12v-28.71c0-6.6,5.4-12,12-12h744.38
				C1009.27,703.89,1014.67,709.29,1014.67,715.89z"/>
		</g>
		<g>
			<path class="st0" d="M1014.67,715.89H246.29c0-6.6,5.4-12,12-12h744.38C1009.27,703.89,1014.67,709.29,1014.67,715.89z"/>
		</g>
		<g class="st1">
			<path class="st0" d="M1014.67,741.95v2.65c0,6.6-5.4,12-12,12H258.29c-6.6,0-12-5.4-12-12v-2.65H1014.67z"/>
		</g>
	</g>
	<g>
		<path class="st2" d="M1002.66,758.6H258.29c-7.72,0-14-6.28-14-14v-28.71c0-7.72,6.28-14,14-14h744.38c7.72,0,14,6.28,14,14v28.71
			C1016.66,752.32,1010.38,758.6,1002.66,758.6z M258.29,705.88c-5.51,0-10,4.49-10,10v28.71c0,5.51,4.49,10,10,10h744.38
			c5.51,0,10-4.49,10-10v-28.71c0-5.51-4.49-10-10-10H258.29z"/>
	</g>
</g>
<g>
	<g class="st3">
		<g class="st4">
			<g>
				<path class="st0" d="M924.29,756.68H953c6.6,0,12,1.69,12,3.76v233.53c0,2.07-5.4,3.76-12,3.76h-28.71c-6.6,0-12-1.69-12-3.76
					V760.44C912.29,758.37,917.69,756.68,924.29,756.68z"/>
			</g>
			<g>
				<path class="st0" d="M924.29,756.68v241.06c-6.6,0-12-1.69-12-3.76V760.44C912.29,758.37,917.69,756.68,924.29,756.68z"/>
			</g>
			<g class="st1">
				<path class="st0" d="M950.35,756.68H953c6.6,0,12,1.69,12,3.76v233.53c0,2.07-5.4,3.76-12,3.76h-2.65V756.68z"/>
			</g>
		</g>
		<g class="st4">
			<path class="st2" d="M953,999.73h-28.71c-7.72,0-14-6.28-14-14V768.68c0-7.72,6.28-14,14-14H953c7.72,0,14,6.28,14,14v217.06
				C967,993.45,960.72,999.73,953,999.73z M924.29,758.68c-5.51,0-10,4.49-10,10v217.06c0,5.51,4.49,10,10,10H953
				c5.51,0,10-4.49,10-10V768.68c0-5.51-4.49-10-10-10H924.29z"/>
		</g>
	</g>
	<g class="st3">
		<g class="st4">
			<g>
				<path class="st0" d="M307.95,756.68h28.71c6.6,0,12,1.69,12,3.76v233.53c0,2.07-5.4,3.76-12,3.76h-28.71c-6.6,0-12-1.69-12-3.76
					V760.44C295.95,758.37,301.35,756.68,307.95,756.68z"/>
			</g>
			<g>
				<path class="st0" d="M307.95,756.68v241.06c-6.6,0-12-1.69-12-3.76V760.44C295.95,758.37,301.35,756.68,307.95,756.68z"/>
			</g>
			<g class="st1">
				<path class="st0" d="M334.01,756.68h2.65c6.6,0,12,1.69,12,3.76v233.53c0,2.07-5.4,3.76-12,3.76h-2.65V756.68z"/>
			</g>
		</g>
		<g class="st4">
			<path class="st2" d="M336.66,999.73h-28.71c-7.72,0-14-6.28-14-14V768.68c0-7.72,6.28-14,14-14h28.71c7.72,0,14,6.28,14,14
				v217.06C350.66,993.45,344.38,999.73,336.66,999.73z M307.95,758.68c-5.51,0-10,4.49-10,10v217.06c0,5.51,4.49,10,10,10h28.71
				c5.51,0,10-4.49,10-10V768.68c0-5.51-4.49-10-10-10H307.95z"/>
		</g>
	</g>
	<g>
		<g>
			<g>
				<path class="st0" d="M462.04,756.68h28.71c6.6,0,12,1.69,12,3.76v233.53c0,2.07-5.4,3.76-12,3.76h-28.71c-6.6,0-12-1.69-12-3.76
					V760.44C450.04,758.37,455.44,756.68,462.04,756.68z"/>
			</g>
			<g>
				<path class="st0" d="M462.04,756.68v241.06c-6.6,0-12-1.69-12-3.76V760.44C450.04,758.37,455.44,756.68,462.04,756.68z"/>
			</g>
			<g class="st1">
				<path class="st0" d="M488.1,756.68h2.65c6.6,0,12,1.69,12,3.76v233.53c0,2.07-5.4,3.76-12,3.76h-2.65V756.68z"/>
			</g>
		</g>
		<g>
			<path class="st2" d="M490.75,999.73h-28.71c-7.72,0-14-6.28-14-14V768.68c0-7.72,6.28-14,14-14h28.71c7.72,0,14,6.28,14,14
				v217.06C504.75,993.45,498.47,999.73,490.75,999.73z M462.04,758.68c-5.51,0-10,4.49-10,10v217.06c0,5.51,4.49,10,10,10h28.71
				c5.51,0,10-4.49,10-10V768.68c0-5.51-4.49-10-10-10H462.04z"/>
		</g>
	</g>
	<g class="st3">
		<g class="st4">
			<g>
				<path class="st0" d="M770.2,756.68h28.71c6.6,0,12,1.69,12,3.76v233.53c0,2.07-5.4,3.76-12,3.76H770.2c-6.6,0-12-1.69-12-3.76
					V760.44C758.2,758.37,763.6,756.68,770.2,756.68z"/>
			</g>
			<g>
				<path class="st0" d="M770.2,756.68v241.06c-6.6,0-12-1.69-12-3.76V760.44C758.2,758.37,763.6,756.68,770.2,756.68z"/>
			</g>
			<g class="st1">
				<path class="st0" d="M796.26,756.68h2.65c6.6,0,12,1.69,12,3.76v233.53c0,2.07-5.4,3.76-12,3.76h-2.65V756.68z"/>
			</g>
		</g>
		<g class="st4">
			<path class="st2" d="M798.91,999.73H770.2c-7.72,0-14-6.28-14-14V768.68c0-7.72,6.28-14,14-14h28.71c7.72,0,14,6.28,14,14v217.06
				C812.91,993.45,806.63,999.73,798.91,999.73z M770.2,758.68c-5.51,0-10,4.49-10,10v217.06c0,5.51,4.49,10,10,10h28.71
				c5.51,0,10-4.49,10-10V768.68c0-5.51-4.49-10-10-10H770.2z"/>
		</g>
	</g>
	<g>
		<g>
			<g>
				<path class="st0" d="M616.12,756.68h28.71c6.6,0,12,1.69,12,3.76v233.53c0,2.07-5.4,3.76-12,3.76h-28.71c-6.6,0-12-1.69-12-3.76
					V760.44C604.12,758.37,609.52,756.68,616.12,756.68z"/>
			</g>
			<g>
				<path class="st0" d="M616.12,756.68v241.06c-6.6,0-12-1.69-12-3.76V760.44C604.12,758.37,609.52,756.68,616.12,756.68z"/>
			</g>
			<g class="st1">
				<path class="st0" d="M642.18,756.68h2.65c6.6,0,12,1.69,12,3.76v233.53c0,2.07-5.4,3.76-12,3.76h-2.65V756.68z"/>
			</g>
		</g>
		<g>
			<path class="st2" d="M644.83,999.73h-28.71c-7.72,0-14-6.28-14-14V768.68c0-7.72,6.28-14,14-14h28.71c7.72,0,14,6.28,14,14
				v217.06C658.83,993.45,652.55,999.73,644.83,999.73z M616.12,758.68c-5.51,0-10,4.49-10,10v217.06c0,5.51,4.49,10,10,10h28.71
				c5.51,0,10-4.49,10-10V768.68c0-5.51-4.49-10-10-10H616.12z"/>
		</g>
	</g>
</g>
<g>
	<path class="st5" d="M565.04,340.11h35.32c9.2,0,16.72-7.52,16.72-16.72v-49.59c0-9.2-7.52-16.72-16.72-16.72h-35.32
		c-9.2,0-16.72,7.52-16.72,16.72v49.59C548.32,332.59,555.85,340.11,565.04,340.11z"/>
	<path d="M600.36,341.61h-35.32c-10.05,0-18.22-8.17-18.22-18.22v-49.59c0-10.05,8.17-18.22,18.22-18.22h35.32
		c10.05,0,18.22,8.17,18.22,18.22v49.59C618.58,333.44,610.41,341.61,600.36,341.61z M565.04,258.59c-8.39,0-15.22,6.83-15.22,15.22
		v49.59c0,8.39,6.83,15.22,15.22,15.22h35.32c8.39,0,15.22-6.83,15.22-15.22v-49.59c0-8.39-6.83-15.22-15.22-15.22H565.04z"/>
</g>
<g>
	<g>
		<path class="st6" d="M462.96,541.4c0.39-1.94,1.06-3.88,2.08-5.83c2.41-4.59,5.21-9.02,7.8-13.51
			c8.62-14.93,17.24-29.86,25.86-44.79c4.7-8.14,9.39-16.27,14.09-24.41c3.3-5.72,10.68-7.69,16.39-4.39l37.95,21.91
			c5.72,3.3,7.69,10.68,4.39,16.39l-37.97,65.76l19.15,72.81c1.68,6.38-2.17,12.98-8.55,14.66l-42.38,11.15
			c-6.38,1.68-12.98-2.17-14.66-8.55c-6.6-25.09-13.2-50.18-19.8-75.26C465.01,558.55,461.22,550.04,462.96,541.4z"/>
		<path d="M498.73,652.05c-5.54,0-10.62-3.72-12.09-9.32l-19.8-75.26c-0.5-1.92-1.09-3.86-1.66-5.73
			c-2.01-6.67-4.1-13.56-2.72-20.43l0,0c0.41-2.05,1.13-4.06,2.13-5.97c1.61-3.07,3.43-6.12,5.18-9.06
			c0.89-1.49,1.77-2.97,2.63-4.47l39.95-69.2c1.66-2.88,4.36-4.94,7.59-5.81c3.23-0.87,6.6-0.43,9.48,1.23l37.95,21.91
			c2.88,1.66,4.94,4.36,5.81,7.59c0.87,3.23,0.43,6.6-1.23,9.48l-37.87,65.59l19.1,72.61c0.85,3.22,0.38,6.58-1.3,9.47
			s-4.39,4.95-7.6,5.8l-42.38,11.15C500.85,651.91,499.78,652.05,498.73,652.05z M462.96,541.4l0.49,0.1
			c-1.33,6.62,0.62,13.09,2.69,19.94c0.57,1.88,1.16,3.83,1.67,5.77l19.8,75.26c0.78,2.96,2.67,5.44,5.33,6.99
			c2.66,1.55,5.76,1.98,8.71,1.2l42.38-11.15c2.96-0.78,5.44-2.67,6.99-5.33s1.98-5.76,1.2-8.71l-19.2-73.01l0.1-0.18l37.97-65.76
			c1.53-2.65,1.93-5.75,1.13-8.72c-0.8-2.98-2.7-5.46-5.34-6.99l-37.95-21.91c-5.49-3.17-12.54-1.28-15.71,4.21l-39.95,69.2
			c-0.86,1.5-1.75,2.99-2.64,4.48c-1.75,2.93-3.55,5.96-5.15,9.01c-0.97,1.85-1.64,3.71-2.04,5.7L462.96,541.4z"/>
	</g>
	<g class="st7">
		<path class="st6" d="M467.33,567.33c6.6,25.09,13.2,50.18,19.8,75.27c1.68,6.38,8.27,10.23,14.65,8.55l6.88-1.81l-26.38-104.88
			l58.85-89.1l-11.94-6.89c-5.71-3.3-13.09-1.32-16.39,4.39c-4.7,8.14-9.39,16.28-14.09,24.41l-25.86,44.79
			c-2.59,4.49-5.39,8.92-7.8,13.51c-1.03,1.95-1.7,3.9-2.09,5.83C461.23,550.04,465.02,558.55,467.33,567.33z"/>
	</g>
	<g class="st8">
		<path class="st6" d="M547.5,504.38l-37.95-21.91c-5.72-3.3-7.69-10.68-4.39-16.39l7.63-13.22c3.3-5.72,10.68-7.69,16.39-4.39
			l37.95,21.91c5.72,3.3,7.69,10.68,4.39,16.39l-7.63,13.22C560.59,505.71,553.22,507.68,547.5,504.38z"/>
	</g>
	<g>
		<path d="M498.73,653.05c-2.36,0-4.7-0.63-6.8-1.85c-3.12-1.82-5.35-4.74-6.26-8.21l-19.8-75.26c-0.5-1.9-1.08-3.83-1.65-5.7
			c-2.05-6.79-4.17-13.8-2.74-20.91h0c0.43-2.15,1.18-4.25,2.23-6.24c1.63-3.1,3.44-6.15,5.2-9.11c0.88-1.48,1.77-2.97,2.63-4.46
			l39.95-69.2c3.72-6.45,11.99-8.66,18.44-4.94l37.95,21.91c3.11,1.8,5.34,4.71,6.28,8.2c0.94,3.49,0.46,7.13-1.33,10.24
			l-37.66,65.23l18.99,72.21c0.91,3.47,0.41,7.11-1.41,10.23c-1.82,3.12-4.74,5.35-8.21,6.26l-42.38,11.15
			C501.03,652.9,499.87,653.05,498.73,653.05z M464.43,541.7c-1.28,6.37,0.64,12.73,2.67,19.45c0.57,1.89,1.16,3.85,1.68,5.8
			l19.8,75.26c1.47,5.6,7.23,8.95,12.83,7.48l42.38-11.15c2.7-0.71,4.97-2.44,6.39-4.87c1.42-2.43,1.81-5.26,1.1-7.96l-19.31-73.41
			l0.31-0.53l37.97-65.76c1.4-2.42,1.76-5.25,1.03-7.96c-0.73-2.72-2.46-4.98-4.88-6.38l-37.95-21.91c-2.42-1.4-5.24-1.76-7.96-1.03
			c-2.72,0.73-4.98,2.46-6.38,4.88l-39.95,69.2c-0.87,1.5-1.76,3-2.65,4.49c-1.74,2.92-3.54,5.94-5.12,8.97
			C465.45,538.03,464.81,539.8,464.43,541.7L464.43,541.7z"/>
	</g>
</g>
<g>
	<g>
		<path class="st6" d="M649.31,702.73h-43.82c-6.6,0-12-5.4-12-12V471.89c0-6.6,5.4-12,12-12h43.82c6.6,0,12,5.4,12,12v218.83
			C661.31,697.33,655.91,702.73,649.31,702.73z"/>
		<path d="M649.31,704.23h-43.82c-7.44,0-13.5-6.06-13.5-13.5V471.89c0-7.44,6.06-13.5,13.5-13.5h43.82c7.44,0,13.5,6.06,13.5,13.5
			v218.83C662.81,698.17,656.75,704.23,649.31,704.23z M605.49,461.39c-5.79,0-10.5,4.71-10.5,10.5v218.83
			c0,5.79,4.71,10.5,10.5,10.5h43.82c5.79,0,10.5-4.71,10.5-10.5V471.89c0-5.79-4.71-10.5-10.5-10.5H605.49z"/>
	</g>
	<g class="st8">
		<path class="st6" d="M654.8,681.11h-10.97c-3.58,0-6.51-2.93-6.51-6.51V473.94c0-3.58,2.93-6.51,6.51-6.51h10.97
			c3.58,0,6.51,2.93,6.51,6.51V674.6C661.31,678.18,658.38,681.11,654.8,681.11z"/>
	</g>
	<g class="st8">
		<path class="st6" d="M649.31,489.04h-43.82c-6.6,0-12-5.4-12-12v-5.15c0-6.6,5.4-12,12-12h43.82c6.6,0,12,5.4,12,12v5.15
			C661.31,483.64,655.91,489.04,649.31,489.04z"/>
	</g>
	<g>
		<path d="M649.31,703.23h-43.82c-6.89,0-12.5-5.61-12.5-12.5V471.89c0-6.89,5.61-12.5,12.5-12.5h43.82c6.89,0,12.5,5.61,12.5,12.5
			v218.83C661.81,697.62,656.2,703.23,649.31,703.23z M605.49,460.39c-6.34,0-11.5,5.16-11.5,11.5v218.83
			c0,6.34,5.16,11.5,11.5,11.5h43.82c6.34,0,11.5-5.16,11.5-11.5V471.89c0-6.34-5.16-11.5-11.5-11.5H605.49z"/>
	</g>
</g>
<g>
	<g>
		<path class="st9" d="M519.02,479.43h130.29c6.6,0,12-5.4,12-12V292.86c0-6.6-5.4-12-12-12H519.02c-6.6,0-12,5.4-12,12v174.57
			C507.02,474.03,512.42,479.43,519.02,479.43z"/>
		<path d="M649.31,479.93H519.02c-6.89,0-12.5-5.61-12.5-12.5V292.86c0-6.89,5.61-12.5,12.5-12.5h130.29c6.89,0,12.5,5.61,12.5,12.5
			v174.57C661.81,474.32,656.2,479.93,649.31,479.93z M519.02,281.36c-6.34,0-11.5,5.16-11.5,11.5v174.57
			c0,6.34,5.16,11.5,11.5,11.5h130.29c6.34,0,11.5-5.16,11.5-11.5V292.86c0-6.34-5.16-11.5-11.5-11.5H519.02z"/>
	</g>
	<g>
		<path class="st9" d="M507.03,292.7H661.3c-0.08-6.53-5.44-11.84-11.99-11.84H519.02C512.47,280.86,507.11,286.17,507.03,292.7z"/>
		<path d="M661.81,293.2H506.53l0.01-0.51c0.08-6.8,5.69-12.33,12.49-12.33h130.29c6.8,0,12.41,5.53,12.49,12.33L661.81,293.2z
			 M507.55,292.2h153.24c-0.34-6.02-5.38-10.84-11.47-10.84H519.02C512.93,281.36,507.89,286.17,507.55,292.2z"/>
	</g>
	<g>
		<path d="M649.31,481.43H519.02c-7.72,0-14-6.28-14-14V292.86c0-7.72,6.28-14,14-14h130.29c7.72,0,14,6.28,14,14v174.57
			C663.31,475.15,657.03,481.43,649.31,481.43z M519.02,282.86c-5.51,0-10,4.49-10,10v174.57c0,5.51,4.49,10,10,10h130.29
			c5.51,0,10-4.49,10-10V292.86c0-5.51-4.49-10-10-10H519.02z"/>
	</g>
</g>
<g>
	<g>
		<path class="st10" d="M542.62,270.96c-7.44,0-13.5-6.06-13.5-13.5v-91.39c0-7.44,6.06-13.5,13.5-13.5h76.96
			c7.44,0,13.5,6.06,13.5,13.5v91.39c0,7.44-6.06,13.5-13.5,13.5H542.62z"/>
	</g>
	<g>
		<path d="M619.58,154.08c6.6,0,12,5.4,12,12v91.39c0,6.6-5.4,12-12,12h-76.96c-6.6,0-12-5.4-12-12v-91.39c0-6.6,5.4-12,12-12
			H619.58 M619.58,151.08h-76.96c-8.27,0-15,6.73-15,15v91.39c0,8.27,6.73,15,15,15h76.96c8.27,0,15-6.73,15-15v-91.39
			C634.58,157.81,627.85,151.08,619.58,151.08L619.58,151.08z"/>
	</g>
</g>
<g>
	<g>
		<path class="st11" d="M459.5,668.24l86.43-22.73c6.38-1.68,10.23-8.27,8.55-14.66l-7.68-29.2c-1.68-6.38-8.27-10.23-14.66-8.55
			l-86.43,22.73c-6.38,1.68-10.23,8.27-8.55,14.66l7.68,29.2C446.52,666.07,453.11,669.92,459.5,668.24z"/>
		<path d="M456.45,669.14c-2.19,0-4.35-0.58-6.3-1.72c-2.89-1.69-4.95-4.39-5.8-7.6l-7.68-29.2c-1.75-6.67,2.24-13.51,8.91-15.27
			l86.43-22.73c3.21-0.85,6.58-0.38,9.47,1.3c2.89,1.69,4.95,4.39,5.8,7.6l7.68,29.2c0.85,3.22,0.38,6.58-1.3,9.47
			c-1.69,2.89-4.39,4.95-7.6,5.8l-86.43,22.73C458.57,669,457.51,669.14,456.45,669.14z M535.19,593.21c-0.98,0-1.96,0.13-2.92,0.38
			l-86.43,22.73c-6.13,1.61-9.81,7.92-8.2,14.05l7.68,29.2c1.61,6.13,7.91,9.81,14.05,8.2l86.43-22.73c2.96-0.78,5.44-2.67,7-5.33
			c1.55-2.66,1.98-5.76,1.2-8.71l-7.68-29.2c-0.78-2.96-2.67-5.44-5.33-7C539.19,593.74,537.2,593.21,535.19,593.21z"/>
	</g>
	<g>
		<path class="st11" d="M444.97,660.71c2.35,5.26,8.27,8.22,14.01,6.71l86.43-22.74c5.58-1.46,9.22-6.69,8.92-12.24L444.97,660.71z"
			/>
	</g>
	<g class="st1">
		<path class="st11" d="M437.6,631.3l0.3,1.14l109.42-29.68l-0.08-0.3c-1.67-6.38-8.27-10.23-14.65-8.55l-86.43,22.73
			C439.77,618.32,435.92,624.92,437.6,631.3z"/>
	</g>
	<g>
		<path d="M456.44,670.14c-2.36,0-4.7-0.63-6.8-1.85c-3.12-1.82-5.35-4.74-6.26-8.21l-7.68-29.2c-1.89-7.2,2.42-14.6,9.62-16.49
			l86.43-22.73c3.47-0.92,7.11-0.41,10.23,1.41c3.12,1.82,5.35,4.74,6.26,8.21l7.68,29.2c0.91,3.47,0.41,7.11-1.41,10.23
			c-1.82,3.12-4.74,5.35-8.21,6.26l-86.43,22.73C458.74,669.99,457.59,670.14,456.44,670.14z M535.19,594.21
			c-0.89,0-1.78,0.11-2.66,0.35l-86.43,22.73c-5.6,1.47-8.96,7.23-7.48,12.83l7.68,29.2c1.47,5.6,7.23,8.96,12.83,7.48l86.43-22.73
			c2.7-0.71,4.97-2.44,6.39-4.87c1.42-2.43,1.81-5.26,1.1-7.96l-7.68-29.2c-0.71-2.7-2.44-4.97-4.87-6.39
			C538.84,594.69,537.02,594.21,535.19,594.21z"/>
	</g>
</g>
<g>
	<g>
		<path class="st11" d="M582.72,703.89h89.37c6.6,0,12-5.4,12-12V661.7c0-6.6-5.4-12-12-12h-89.37c-6.6,0-12,5.4-12,12v30.19
			C570.72,698.49,576.12,703.89,582.72,703.89z"/>
		<path d="M672.09,704.38h-89.37c-6.89,0-12.5-5.61-12.5-12.5V661.7c0-6.89,5.61-12.5,12.5-12.5h89.37c6.89,0,12.5,5.61,12.5,12.5
			v30.19C684.59,698.78,678.98,704.38,672.09,704.38z M582.72,650.2c-6.34,0-11.5,5.16-11.5,11.5v30.19c0,6.34,5.16,11.5,11.5,11.5
			h89.37c6.34,0,11.5-5.16,11.5-11.5V661.7c0-6.34-5.16-11.5-11.5-11.5H582.72z"/>
	</g>
	<g class="st1">
		<path class="st11" d="M570.8,660.34h113.21c-0.68-5.97-5.78-10.64-11.92-10.64h-89.37C576.58,649.7,571.48,654.37,570.8,660.34z"
			/>
	</g>
	<g>
		<path class="st11" d="M570.73,692.15c0.13,6.48,5.48,11.74,11.99,11.74h89.37c6.51,0,11.86-5.26,11.99-11.74H570.73z"/>
	</g>
	<g>
		<path d="M672.09,705.38h-89.37c-7.44,0-13.5-6.06-13.5-13.5V661.7c0-7.44,6.06-13.5,13.5-13.5h89.37c7.44,0,13.5,6.06,13.5,13.5
			v30.19C685.59,699.33,679.53,705.38,672.09,705.38z M582.72,651.2c-5.79,0-10.5,4.71-10.5,10.5v30.19c0,5.79,4.71,10.5,10.5,10.5
			h89.37c5.79,0,10.5-4.71,10.5-10.5V661.7c0-5.79-4.71-10.5-10.5-10.5H582.72z"/>
	</g>
</g>
<g>
	<g>
		<path class="st6" d="M519.02,479.43h130.29c6.6,0,12-5.4,12-12v-33.96c0-6.6-5.4-12-12-12H519.02c-6.6,0-12,5.4-12,12v33.96
			C507.02,474.03,512.42,479.43,519.02,479.43z"/>
		<path d="M649.31,479.93H519.02c-6.89,0-12.5-5.61-12.5-12.5v-33.96c0-6.89,5.61-12.5,12.5-12.5h130.29c6.89,0,12.5,5.61,12.5,12.5
			v33.96C661.81,474.32,656.2,479.93,649.31,479.93z M519.02,421.97c-6.34,0-11.5,5.16-11.5,11.5v33.96c0,6.34,5.16,11.5,11.5,11.5
			h130.29c6.34,0,11.5-5.16,11.5-11.5v-33.96c0-6.34-5.16-11.5-11.5-11.5H519.02z"/>
	</g>
	<g class="st12">
		<path class="st6" d="M507.03,433.47v9.39h154.28v-9.39c0-6.6-5.4-12-12-12H519.03C512.43,421.47,507.03,426.87,507.03,433.47z"/>
	</g>
	<g>
		<path d="M649.31,481.43H519.02c-7.72,0-14-6.28-14-14v-33.96c0-7.72,6.28-14,14-14h130.29c7.72,0,14,6.28,14,14v33.96
			C663.31,475.15,657.03,481.43,649.31,481.43z M519.02,423.47c-5.51,0-10,4.49-10,10v33.96c0,5.51,4.49,10,10,10h130.29
			c5.51,0,10-4.49,10-10v-33.96c0-5.51-4.49-10-10-10H519.02z"/>
	</g>
	<g class="st12">
		<path class="st6" d="M507.05,468.74c0.27,6.35,5.56,11.46,11.98,11.46h130.28c6.42,0,11.71-5.11,11.98-11.46H507.05z"/>
	</g>
</g>
<g>
	<path class="st10" d="M530.62,173.04v10.37h100.96v-10.37c0-8.33-6.82-15.14-15.14-15.14h-70.67
		C537.43,157.9,530.62,164.71,530.62,173.04z"/>
</g>
<g>
	<g>
		<g>
			<g>
				<path class="st9" d="M569.69,428.65c0.55,7.53,7.52,12.96,14.94,11.56c18.83-3.55,36.24-11.44,50.95-23.19
					c18.28-14.59,31.06-34.52,35.99-56.1c7.17-31.37-3.42-58.26-12.32-73.94c-3.79-6.68-12.58-8.49-18.69-3.85l-11.79,8.95
					c-4.99,3.78-6.45,10.63-3.48,16.14c5.29,9.82,11.35,25.97,7.28,43.78c-5.49,24.02-26.92,42.9-53.86,48.57
					c-6.23,1.31-10.55,6.98-10.09,13.33L569.69,428.65z"/>
				<path d="M582.31,440.92c-2.87,0-5.69-0.95-8-2.72c-2.98-2.3-4.85-5.76-5.12-9.52l-1.07-14.74c-0.47-6.54,4.03-12.49,10.49-13.85
					c27.1-5.71,48.09-24.63,53.47-48.2c3.98-17.41-1.74-33.23-7.24-43.44c-3.11-5.77-1.59-12.83,3.62-16.78l11.79-8.95
					c3.03-2.3,6.9-3.18,10.62-2.41c3.72,0.77,6.93,3.1,8.81,6.41c9.54,16.82,19.44,43.37,12.37,74.29
					c-4.96,21.7-17.8,41.72-36.17,56.38c-14.63,11.68-32.33,19.74-51.17,23.29C583.92,440.85,583.11,440.92,582.31,440.92z
					 M648.22,281.06c-2.64,0-5.23,0.86-7.36,2.48l-11.79,8.95c-4.81,3.65-6.22,10.17-3.34,15.5c5.58,10.35,11.38,26.42,7.33,44.13
					c-5.47,23.95-26.76,43.16-54.24,48.95c-5.97,1.26-10.14,6.76-9.7,12.8l1.07,14.74c0.25,3.47,1.98,6.67,4.73,8.79
					c2.73,2.1,6.24,2.94,9.61,2.31c18.68-3.52,36.23-11.5,50.73-23.09c18.19-14.52,30.91-34.35,35.81-55.82
					c7-30.61-2.81-56.91-12.26-73.58c-1.73-3.06-4.7-5.22-8.14-5.92C649.86,281.14,649.04,281.06,648.22,281.06z"/>
			</g>
		</g>
		<g>
			<g>
				<path class="st9" d="M573.9,437.2c2.8,2.52,6.7,3.77,10.72,3.01c18.84-3.55,36.24-11.44,50.95-23.19
					c18.27-14.59,31.05-34.51,35.98-56.1c7.17-31.38-3.42-58.26-12.32-73.94c-2.62-4.62-7.65-6.92-12.52-6.34
					c1,0.89,1.89,1.97,2.59,3.21c8.89,15.68,19.49,42.57,12.32,73.94c-4.94,21.58-17.71,41.51-35.99,56.1
					c-14.71,11.75-32.12,19.64-50.95,23.19C574.42,437.13,574.16,437.17,573.9,437.2z"/>
				<path d="M582.27,440.93c-3.19,0-6.27-1.17-8.7-3.36l-0.82-0.73l1.09-0.14c0.25-0.03,0.49-0.07,0.75-0.12
					c18.7-3.53,36.24-11.51,50.73-23.09c18.19-14.52,30.91-34.34,35.82-55.82c7-30.6-2.81-56.91-12.26-73.58
					c-0.65-1.15-1.49-2.19-2.48-3.08l-0.83-0.74l1.1-0.13c5.28-0.63,10.39,1.95,13.02,6.59c9.55,16.82,19.44,43.36,12.37,74.3
					c-4.96,21.69-17.8,41.72-36.16,56.38c-14.62,11.68-32.32,19.73-51.17,23.29C583.9,440.85,583.08,440.93,582.27,440.93z
					 M575.07,437.51c2.71,2.04,6.09,2.84,9.46,2.21c18.7-3.53,36.24-11.51,50.73-23.09c18.18-14.52,30.9-34.35,35.81-55.82
					c7-30.62-2.81-56.92-12.26-73.58c-2.25-3.96-6.49-6.32-10.95-6.17c0.73,0.77,1.36,1.62,1.88,2.54
					c9.54,16.83,19.44,43.38,12.37,74.3c-4.96,21.7-17.81,41.72-36.17,56.38C611.4,425.9,593.81,433.93,575.07,437.51z"/>
			</g>
		</g>
		<g>
			<g>
				<path d="M582.31,441.92c-3.09,0-6.12-1.02-8.61-2.93c-3.21-2.47-5.22-6.2-5.51-10.24l-1.07-14.74
					c-0.51-7.03,4.34-13.44,11.28-14.9c26.72-5.63,47.41-24.25,52.7-47.44c3.91-17.11-1.73-32.69-7.14-42.74
					c-3.34-6.21-1.71-13.8,3.89-18.05l11.79-8.95c3.26-2.47,7.42-3.42,11.43-2.59c4,0.82,7.46,3.34,9.48,6.9
					c9.63,16.98,19.61,43.77,12.47,75.01c-5.01,21.92-17.98,42.14-36.52,56.94c-14.76,11.79-32.61,19.91-51.61,23.49
					C584.04,441.84,583.17,441.92,582.31,441.92z M648.22,282.06c-2.42,0-4.8,0.79-6.76,2.27l-11.79,8.95
					c-4.42,3.35-5.7,9.34-3.07,14.23c5.66,10.51,11.54,26.81,7.43,44.83c-5.56,24.32-27.15,43.84-55.01,49.71
					c-5.48,1.15-9.31,6.21-8.91,11.75l1.07,14.74c0.23,3.18,1.81,6.13,4.35,8.07c2.51,1.93,5.72,2.7,8.82,2.12
					c18.52-3.49,35.91-11.4,50.29-22.89c18.01-14.38,30.61-34.01,35.46-55.26c6.92-30.3-2.79-56.35-12.16-72.86
					c-1.59-2.81-4.32-4.79-7.47-5.44C649.72,282.13,648.97,282.06,648.22,282.06z"/>
			</g>
		</g>
	</g>
	<g>
		<g>
			<path class="st10" d="M529.3,403.68l3.95,46.2c0.56,6.58,6.4,11.5,12.98,10.93l27.38-2.34c6.58-0.56,11.5-6.4,10.93-12.98
				l-3.95-46.2c-0.56-6.58-6.4-11.5-12.98-10.93l-27.38,2.34C533.66,391.26,528.74,397.1,529.3,403.68z"/>
			<path d="M545.2,461.36c-6.42,0-11.89-4.93-12.44-11.44l-3.95-46.2c-0.59-6.87,4.52-12.93,11.39-13.52l27.38-2.34
				c6.86-0.59,12.93,4.52,13.52,11.39l3.95,46.2c0.59,6.87-4.52,12.93-11.39,13.52l-27.38,2.34
				C545.91,461.35,545.55,461.36,545.2,461.36z M529.8,403.64l3.95,46.2c0.54,6.32,6.13,11.02,12.44,10.48l27.38-2.34
				c6.32-0.54,11.02-6.12,10.48-12.44l-3.95-46.2c-0.54-6.32-6.11-11.02-12.44-10.48l-27.38,2.34
				C533.96,391.74,529.26,397.32,529.8,403.64L529.8,403.64z"/>
		</g>
		<g class="st13">
			<path class="st10" d="M529.36,403.41l3.95,46.2c0.57,6.58,6.4,11.5,12.98,10.94l1.01-0.09c2.06-0.18,3.59-1.98,3.43-4.05
				l-4.24-54.34c-0.16-2,1.28-3.77,3.26-4.03l18.74-2.47c4.77-0.63,4.13-7.85-0.67-7.49c-0.05,0-0.1,0.01-0.14,0.01l-27.38,2.34
				C533.73,391,528.8,396.84,529.36,403.41z"/>
			<path d="M545.27,461.1c-6.42,0-11.9-4.93-12.46-11.44l-3.95-46.2c-0.28-3.31,0.75-6.55,2.91-9.11c2.16-2.56,5.17-4.13,8.48-4.41
				l27.53-2.35c2.78-0.21,4.25,1.81,4.46,3.77c0.21,2.08-0.98,4.36-3.68,4.72l-18.74,2.47c-1.72,0.23-2.97,1.76-2.83,3.49
				l4.24,54.34c0.18,2.33-1.56,4.38-3.89,4.58l-1.01,0.09C545.98,461.08,545.62,461.1,545.27,461.1z M529.86,403.37l3.95,46.2
				c0.55,6.31,6.12,11.02,12.44,10.48l1-0.09c1.78-0.15,3.12-1.73,2.98-3.51l-4.24-54.34c-0.18-2.26,1.45-4.27,3.7-4.56l18.74-2.47
				c2.16-0.29,2.97-2.08,2.82-3.62c-0.16-1.54-1.27-3.04-3.39-2.87l-0.14,0.01l-27.38,2.34c-3.05,0.26-5.82,1.7-7.8,4.06
				C530.55,397.35,529.6,400.32,529.86,403.37L529.86,403.37z"/>
		</g>
		<g>
			<path d="M545.13,461.59c-6.93,0-12.84-5.32-13.44-12.35l-3.95-46.2c-0.63-7.42,4.89-13.97,12.3-14.6l27.38-2.34
				c7.42-0.63,13.97,4.89,14.6,12.3l3.95,46.2c0.63,7.42-4.89,13.97-12.3,14.6l-27.38,2.34
				C545.9,461.58,545.52,461.59,545.13,461.59z M530.73,402.78l3.95,46.2c0.49,5.77,5.58,10.06,11.36,9.57l27.38-2.34
				c5.77-0.49,10.06-5.59,9.57-11.36l-3.95-46.2c-0.49-5.77-5.59-10.07-11.36-9.57l-27.38,2.34
				C534.53,391.92,530.24,397.01,530.73,402.78L530.73,402.78z"/>
		</g>
	</g>
</g>
<g>
	<g>
		<g>
			<g>
				<path class="st9" d="M369.6,334.14c-7.19-2.31-10.82-10.37-7.71-17.24c7.9-17.46,19.68-32.51,34.56-44.03
					c18.49-14.31,40.87-22.03,63.01-21.72c32.18,0.44,55.8,17.08,68.94,29.43c5.59,5.26,5.27,14.23-0.68,19.07l-11.48,9.34
					c-4.86,3.95-11.85,3.76-16.51-0.43c-8.29-7.46-22.56-17.17-40.83-17.42c-24.63-0.34-48.04,16.03-59.92,40.86
					c-2.75,5.74-9.27,8.61-15.33,6.66L369.6,334.14z"/>
				<path d="M387.49,339.76c-1.32,0-2.66-0.2-3.97-0.62l-14.07-4.52c-3.58-1.15-6.51-3.78-8.04-7.22c-1.51-3.41-1.5-7.31,0.03-10.7
					c7.9-17.47,19.9-32.76,34.71-44.22c18.58-14.38,41.08-22.11,63.33-21.83c31.72,0.44,55.18,16.32,69.27,29.56
					c2.77,2.6,4.28,6.28,4.15,10.07c-0.14,3.8-1.9,7.35-4.85,9.75l-11.48,9.34c-5.07,4.13-12.28,3.94-17.16-0.45
					c-8.62-7.75-22.64-17.04-40.5-17.29c-24.16-0.31-47.51,15.6-59.46,40.58C397.21,336.91,392.46,339.76,387.49,339.76z
					 M458.21,251.63c-21.62,0-43.39,7.65-61.44,21.63c-14.68,11.36-26.58,26.52-34.41,43.84c-1.42,3.13-1.42,6.73-0.03,9.88
					c1.41,3.18,4.12,5.61,7.43,6.68l14.07,4.52c5.77,1.85,12.1-0.9,14.73-6.4c12.12-25.33,35.85-41.5,60.38-41.15
					c18.17,0.25,32.41,9.68,41.15,17.55c4.5,4.05,11.17,4.23,15.86,0.41l11.48-9.34c2.72-2.22,4.36-5.5,4.48-9.01
					c0.12-3.51-1.27-6.9-3.83-9.31c-13.97-13.12-37.2-28.86-68.6-29.29C459.05,251.63,458.63,251.63,458.21,251.63z"/>
			</g>
		</g>
		<g>
			<g>
				<path class="st9" d="M362.29,328.02c-1.79-3.32-2.08-7.4-0.39-11.13c7.9-17.47,19.67-32.52,34.56-44.04
					c18.5-14.31,40.87-22.02,63.01-21.72c32.18,0.44,55.81,17.08,68.94,29.43c3.87,3.64,4.92,9.07,3.2,13.67
					c-0.63-1.18-1.47-2.3-2.5-3.27c-13.13-12.34-36.76-28.99-68.94-29.43c-22.14-0.3-44.51,7.41-63.01,21.73
					c-14.89,11.52-26.66,26.57-34.57,44.03C362.48,327.54,362.38,327.78,362.29,328.02z"/>
				<path d="M362.37,329.23l-0.52-0.96c-1.95-3.62-2.1-7.84-0.41-11.57c7.91-17.48,19.91-32.78,34.71-44.23
					c18.58-14.38,41.06-22.13,63.32-21.82c31.73,0.43,55.19,16.32,69.28,29.56c3.88,3.65,5.19,9.22,3.33,14.21l-0.39,1.04
					l-0.52-0.98c-0.63-1.18-1.44-2.23-2.41-3.14c-13.97-13.13-37.21-28.86-68.61-29.29c-22.04-0.3-44.3,7.38-62.7,21.62
					c-14.67,11.35-26.57,26.51-34.42,43.84c-0.11,0.24-0.2,0.47-0.29,0.7L362.37,329.23z M458.22,251.63
					c-21.62,0-43.39,7.65-61.45,21.62c-14.67,11.35-26.57,26.51-34.42,43.85c-1.41,3.12-1.43,6.6-0.09,9.71
					c7.91-17.36,19.87-32.56,34.59-43.94c18.58-14.38,41.07-22.14,63.32-21.83c31.71,0.43,55.18,16.32,69.28,29.56
					c0.77,0.73,1.45,1.54,2.03,2.43c1.19-4.32-0.09-8.97-3.41-12.09c-13.96-13.13-37.19-28.86-68.6-29.29
					C459.05,251.63,458.63,251.63,458.22,251.63z"/>
			</g>
		</g>
		<g>
			<g>
				<path d="M387.49,340.76c-1.42,0-2.86-0.22-4.28-0.67l-14.07-4.52c-3.85-1.24-7-4.07-8.64-7.77c-1.63-3.67-1.62-7.87,0.03-11.52
					c7.97-17.62,20.08-33.04,35.01-44.6c18.76-14.52,41.5-22.35,63.95-22.04c32.04,0.44,55.72,16.47,69.94,29.83
					c2.98,2.8,4.61,6.75,4.46,10.84c-0.15,4.09-2.05,7.91-5.22,10.49l-11.48,9.34c-5.45,4.44-13.21,4.24-18.46-0.48
					c-8.49-7.64-22.29-16.79-39.84-17.03c-23.79-0.33-46.76,15.38-58.54,40.01C397.94,337.7,392.84,340.76,387.49,340.76z
					 M458.21,252.63c-21.4,0-42.95,7.58-60.83,21.42c-14.55,11.26-26.35,26.29-34.11,43.47c-1.3,2.87-1.31,6.17-0.02,9.07
					c1.3,2.92,3.78,5.15,6.82,6.13h0l14.07,4.52c5.29,1.7,11.11-0.83,13.52-5.88c12.28-25.68,36.33-42.05,61.29-41.72
					c18.48,0.25,32.94,9.82,41.81,17.8c4.14,3.72,10.26,3.88,14.55,0.38l11.48-9.34c2.5-2.04,4-5.05,4.12-8.27
					c0.11-3.22-1.17-6.34-3.52-8.54c-13.84-13-36.85-28.59-67.93-29.02C459.04,252.63,458.63,252.63,458.21,252.63z"/>
			</g>
		</g>
	</g>
	<g>
		<g>
			<path class="st10" d="M384.33,379.28l-43.96-14.75c-6.26-2.1-9.66-8.94-7.56-15.19l8.74-26.05c2.1-6.26,8.94-9.66,15.19-7.56
				l43.96,14.75c6.26,2.1,9.66,8.94,7.56,15.19l-8.74,26.05C397.42,377.97,390.59,381.38,384.33,379.28z"/>
			<path d="M388.14,380.4c-1.32,0-2.65-0.21-3.97-0.65L340.21,365c-3.15-1.06-5.71-3.29-7.2-6.29s-1.73-6.38-0.67-9.54l8.74-26.05
				c2.19-6.54,9.29-10.07,15.83-7.88L400.86,330c3.15,1.06,5.71,3.29,7.2,6.29c1.49,3,1.73,6.38,0.67,9.54L400,371.88
				C398.25,377.1,393.36,380.4,388.14,380.4z M384.49,378.8c6.01,2.02,12.54-1.23,14.56-7.25l8.74-26.05
				c0.97-2.9,0.75-6.02-0.62-8.77c-1.37-2.76-3.73-4.81-6.63-5.79l-43.96-14.75c-6.01-2.02-12.54,1.23-14.56,7.25l-8.74,26.05
				c-2.02,6.01,1.23,12.54,7.25,14.56L384.49,378.8z"/>
		</g>
		<g class="st13">
			<path class="st10" d="M384.6,379.28l-43.96-14.75c-6.25-2.11-9.66-8.93-7.56-15.2l0.32-0.96c0.66-1.96,2.78-3.02,4.74-2.38
				l51.8,16.95c1.9,0.62,3.96-0.35,4.69-2.22l6.83-17.63c1.74-4.49,8.6-2.16,7.12,2.43c-0.01,0.05-0.03,0.09-0.05,0.14l-8.74,26.05
				C397.7,377.97,390.86,381.38,384.6,379.28z"/>
			<path d="M388.4,380.41c-1.33,0-2.66-0.21-3.96-0.65l-43.96-14.75c-6.53-2.2-10.06-9.3-7.88-15.83l0.32-0.96
				c0.74-2.21,3.16-3.42,5.37-2.7l51.8,16.95c1.65,0.54,3.44-0.31,4.06-1.93l6.83-17.63c0.98-2.54,3.49-3.16,5.45-2.46
				c1.86,0.66,3.46,2.57,2.61,5.22l-0.05,0.15l-8.74,26.05c-1.06,3.15-3.29,5.71-6.29,7.2C392.21,379.96,390.31,380.41,388.4,380.41
				z M384.76,378.81c2.9,0.97,6.01,0.75,8.77-0.62c2.76-1.37,4.81-3.73,5.78-6.62l8.78-26.18c0.65-2.02-0.53-3.45-1.99-3.97
				c-1.46-0.52-3.4-0.15-4.19,1.88l-6.83,17.63c-0.82,2.12-3.15,3.22-5.31,2.51l-51.8-16.95c-1.7-0.56-3.55,0.37-4.11,2.06
				l-0.32,0.96c-2.01,6.01,1.24,12.54,7.25,14.57L384.76,378.81z"/>
		</g>
		<g>
			<path d="M388.87,381.65c-1.44,0-2.88-0.23-4.28-0.7v0l-43.96-14.75c-3.41-1.14-6.17-3.55-7.78-6.79s-1.87-6.9-0.73-10.3
				l8.74-26.05c1.14-3.41,3.55-6.17,6.79-7.78c3.24-1.61,6.9-1.87,10.3-0.73l43.96,14.75c7.06,2.37,10.87,10.04,8.51,17.09
				l-8.74,26.05c-1.14,3.41-3.55,6.17-6.79,7.78C392.98,381.17,390.93,381.65,388.87,381.65z M353.67,316.85
				c-1.6,0-3.2,0.37-4.69,1.11c-2.52,1.25-4.4,3.4-5.28,6.05l-8.74,26.05c-0.89,2.65-0.69,5.49,0.57,8.01
				c1.25,2.52,3.4,4.4,6.05,5.28l43.96,14.75c2.65,0.89,5.49,0.69,8.01-0.57c2.52-1.25,4.4-3.4,5.28-6.05l8.74-26.05
				c1.84-5.49-1.13-11.45-6.62-13.29l-43.96-14.75C355.91,317.03,354.79,316.85,353.67,316.85z"/>
		</g>
	</g>
</g>
<g>
	<g>
		<path class="st14" d="M529.76,122.08c7.69,0,13.98,6.29,13.98,13.98v18.02h80.39c4.1,0,7.45,3.35,7.45,7.45v6.75
			c0,4.1-3.35,7.45-7.45,7.45h-100.9c-4.1,0-7.45-3.35-7.45-7.45v-6.53v-0.22v-25.47C515.78,128.37,522.07,122.08,529.76,122.08z"/>
		<path d="M624.13,176.23h-100.9c-4.38,0-7.95-3.57-7.95-7.95v-32.22c0-7.98,6.5-14.48,14.48-14.48s14.48,6.5,14.48,14.48v17.52
			h79.89c4.38,0,7.95,3.57,7.95,7.95v6.75C632.08,172.66,628.51,176.23,624.13,176.23z M529.76,122.58
			c-7.43,0-13.48,6.05-13.48,13.48v32.22c0,3.83,3.12,6.95,6.95,6.95h100.9c3.83,0,6.95-3.12,6.95-6.95v-6.75
			c0-3.83-3.12-6.95-6.95-6.95h-80.89v-18.52C543.24,128.62,537.19,122.58,529.76,122.58z"/>
	</g>
	<g>
		<path class="st14" d="M515.78,168.26v0.01c0,4.1,3.36,7.46,7.46,7.46h100.9c4.09,0,7.45-3.36,7.45-7.46v-0.01H515.78z"/>
	</g>
	<g>
		<path class="st14" d="M534.61,125.62v30.13c0,0.91,0.74,1.66,1.66,1.66h88.37c2.04,0,2.29-3.08,0.25-3.29
			c-0.25-0.03-0.51-0.04-0.76-0.04h-78.74c-0.91,0-1.66-0.74-1.66-1.66v-16.37c0-4.98-2.65-9.38-6.6-11.86
			C536.04,123.52,534.61,124.33,534.61,125.62z"/>
	</g>
	<g>
		<path d="M529.76,122.08c7.69,0,13.98,6.29,13.98,13.98v18.02h80.39c4.1,0,7.45,3.35,7.45,7.45v6.75c0,4.1-3.35,7.45-7.45,7.45
			h-100.9c-4.1,0-7.45-3.35-7.45-7.45v-6.53v-0.22v-25.47C515.78,128.37,522.07,122.08,529.76,122.08 M529.76,119.08
			c-9.36,0-16.98,7.62-16.98,16.98v25.47v0.22v6.53c0,5.76,4.69,10.45,10.45,10.45h100.9c5.76,0,10.45-4.69,10.45-10.45v-6.75
			c0-5.76-4.69-10.45-10.45-10.45h-77.39v-15.02C546.74,126.69,539.12,119.08,529.76,119.08L529.76,119.08z"/>
	</g>
</g>
<g>
	<g>
		<circle class="st15" cx="599.49" cy="206.2" r="13.15"/>
	</g>
	<g>
		<circle class="st2" cx="599.49" cy="213.43" r="5.69"/>
	</g>
	<g>
		<path class="st2" d="M589.9,190.45h19.18c1.19,0,2.16-0.97,2.16-2.16v-2.03c0-1.19-0.97-2.16-2.16-2.16H589.9
			c-1.19,0-2.16,0.97-2.16,2.16v2.03C587.74,189.48,588.71,190.45,589.9,190.45z"/>
	</g>
</g>
<g>
	<g>
		<circle class="st15" cx="560.75" cy="206.2" r="13.15"/>
	</g>
	<g>
		<circle class="st2" cx="560.75" cy="213.43" r="5.69"/>
	</g>
	<g>
		<path class="st2" d="M551.16,186.59h19.18c1.19,0,2.16-0.97,2.16-2.16v-2.03c0-1.19-0.97-2.16-2.16-2.16h-19.18
			c-1.19,0-2.16,0.97-2.16,2.16v2.03C549,185.62,549.97,186.59,551.16,186.59z"/>
	</g>
</g>
<g>
	<path d="M612.64,252.63H582.7c-0.83,0-1.5-0.67-1.5-1.5s0.67-1.5,1.5-1.5h29.94c0.83,0,1.5,0.67,1.5,1.5
		S613.47,252.63,612.64,252.63z"/>
</g>
<g>
	<path class="st2" d="M358.26,253.27c-0.21,0-0.42-0.04-0.62-0.14c-0.75-0.34-1.09-1.23-0.74-1.99c3.43-7.51,13.87-25.93,36.79-34.8
		c25.19-9.76,47.37-0.72,53.56,2.28c0.75,0.36,1.06,1.26,0.7,2c-0.36,0.75-1.26,1.06-2,0.7c-5.92-2.87-27.11-11.5-51.17-2.18
		c-21.9,8.48-31.87,26.08-35.15,33.25C359.37,252.94,358.83,253.27,358.26,253.27z"/>
</g>
<g>
	<path class="st2" d="M375.76,258.53c-0.21,0-0.42-0.04-0.62-0.14c-0.75-0.34-1.09-1.23-0.74-1.99c2.3-5.04,9.31-17.41,24.71-23.38
		c16.93-6.55,31.82-0.48,35.98,1.53c0.75,0.36,1.06,1.26,0.7,2c-0.36,0.75-1.26,1.06-2,0.7c-3.88-1.88-17.79-7.55-33.59-1.43
		c-14.37,5.56-20.92,17.12-23.07,21.82C376.87,258.21,376.33,258.53,375.76,258.53z"/>
</g>
<g>
	<path class="st2" d="M432.98,582.13c-0.49,0-0.97-0.24-1.26-0.69c-4.48-6.93-14.38-25.64-9.52-49.74
		c5.34-26.49,24.9-40.31,30.76-43.91c0.7-0.43,1.63-0.21,2.06,0.49c0.43,0.71,0.21,1.63-0.49,2.06
		c-5.6,3.44-24.29,16.65-29.39,41.95c-4.64,23.02,4.82,40.9,9.1,47.52c0.45,0.7,0.25,1.62-0.44,2.07
		C433.54,582.05,433.26,582.13,432.98,582.13z"/>
</g>
<g>
	<path class="st2" d="M446.83,570.21c-0.49,0-0.97-0.24-1.26-0.69c-3.01-4.65-9.66-17.22-6.4-33.41
		c3.59-17.79,16.72-27.07,20.66-29.49c0.71-0.43,1.63-0.21,2.06,0.49c0.43,0.71,0.21,1.63-0.49,2.06
		c-3.68,2.26-15.94,10.93-19.29,27.53c-3.05,15.11,3.16,26.84,5.97,31.19c0.45,0.7,0.25,1.62-0.44,2.07
		C447.4,570.14,447.11,570.21,446.83,570.21z"/>
</g>
<g>
	<path class="st2" d="M708.54,322.27c-0.12,0-0.25-0.02-0.38-0.05c-0.8-0.21-1.28-1.03-1.07-1.83c1.66-6.37,5.99-28.83-7.84-50.62
		c-12.59-19.82-31.79-26.17-39.47-27.98c-0.81-0.19-1.31-1-1.12-1.8c0.19-0.81,0.99-1.31,1.8-1.12c8.03,1.89,28.13,8.54,41.31,29.29
		c14.48,22.81,9.95,46.32,8.21,52.98C709.82,321.83,709.21,322.27,708.54,322.27z"/>
</g>
<g>
	<path class="st2" d="M690.54,313.46c-0.12,0-0.25-0.02-0.38-0.05c-0.8-0.21-1.28-1.03-1.07-1.83c1.09-4.18,3.93-18.92-5.15-33.22
		c-8.26-13.01-20.87-17.18-25.91-18.36c-0.81-0.19-1.31-1-1.12-1.8c0.19-0.81,0.99-1.31,1.8-1.12c5.39,1.27,18.89,5.74,27.75,19.68
		c9.73,15.32,6.68,31.11,5.52,35.59C691.81,313.01,691.21,313.46,690.54,313.46z"/>
</g>
</svg>
