<?xml version="1.0" encoding="utf-8"?>
<!-- Generator: Adobe Illustrator 24.0.3, SVG Export Plug-In . SVG Version: 6.00 Build 0)  -->
<svg version="1.1" id="Layer_1" xmlns="http://www.w3.org/2000/svg" xmlns:xlink="http://www.w3.org/1999/xlink" x="0px" y="0px"
	 viewBox="0 0 1280 1024" style="enable-background:new 0 0 1280 1024;" xml:space="preserve">
<style type="text/css">
	.st0{fill:#A04902;}
	.st1{opacity:0.7;}
	.st2{fill:#232323;}
	.st3{fill:#F7ADAD;}
	.st4{fill:#14BDC1;}
	.st5{opacity:0.3;}
	.st6{fill:#7B27AD;}
	.st7{fill:#FFBDBD;}
	.st8{fill:#C1C1C1;}
	.st9{opacity:0.5;}
	.st10{opacity:0.9;}
	.st11{fill:#595B5B;}
	.st12{fill:#F4F4F4;}
</style>
<g>
	<g>
		<g>
			<path class="st0" d="M1014.67,715.89v28.71c0,6.6-5.4,12-12,12H258.29c-6.6,0-12-5.4-12-12v-28.71c0-6.6,5.4-12,12-12h744.38
				C1009.27,703.89,1014.67,709.29,1014.67,715.89z"/>
		</g>
		<g>
			<path class="st0" d="M1014.67,715.89H246.29c0-6.6,5.4-12,12-12h744.38C1009.27,703.89,1014.67,709.29,1014.67,715.89z"/>
		</g>
		<g class="st1">
			<path class="st0" d="M1014.67,741.95v2.65c0,6.6-5.4,12-12,12H258.29c-6.6,0-12-5.4-12-12v-2.65H1014.67z"/>
		</g>
	</g>
	<g>
		<path class="st2" d="M1002.66,758.6H258.29c-7.72,0-14-6.28-14-14v-28.71c0-7.72,6.28-14,14-14h744.38c7.72,0,14,6.28,14,14v28.71
			C1016.66,752.32,1010.38,758.6,1002.66,758.6z M258.29,705.88c-5.51,0-10,4.49-10,10v28.71c0,5.51,4.49,10,10,10h744.38
			c5.51,0,10-4.49,10-10v-28.71c0-5.51-4.49-10-10-10H258.29z"/>
	</g>
</g>
<g>
	<g>
		<g>
			<g>
				<path class="st0" d="M924.29,756.68H953c6.6,0,12,1.69,12,3.76v233.53c0,2.07-5.4,3.76-12,3.76h-28.71c-6.6,0-12-1.69-12-3.76
					V760.44C912.29,758.37,917.69,756.68,924.29,756.68z"/>
			</g>
			<g>
				<path class="st0" d="M924.29,756.68v241.06c-6.6,0-12-1.69-12-3.76V760.44C912.29,758.37,917.69,756.68,924.29,756.68z"/>
			</g>
			<g class="st1">
				<path class="st0" d="M950.35,756.68H953c6.6,0,12,1.69,12,3.76v233.53c0,2.07-5.4,3.76-12,3.76h-2.65V756.68z"/>
			</g>
		</g>
		<g>
			<path class="st2" d="M953,999.73h-28.71c-7.72,0-14-6.28-14-14V768.68c0-7.72,6.28-14,14-14H953c7.72,0,14,6.28,14,14v217.06
				C967,993.45,960.72,999.73,953,999.73z M924.29,758.68c-5.51,0-10,4.49-10,10v217.06c0,5.51,4.49,10,10,10H953
				c5.51,0,10-4.49,10-10V768.68c0-5.51-4.49-10-10-10H924.29z"/>
		</g>
	</g>
	<g>
		<g>
			<g>
				<path class="st0" d="M307.95,756.68h28.71c6.6,0,12,1.69,12,3.76v233.53c0,2.07-5.4,3.76-12,3.76h-28.71c-6.6,0-12-1.69-12-3.76
					V760.44C295.95,758.37,301.35,756.68,307.95,756.68z"/>
			</g>
			<g>
				<path class="st0" d="M307.95,756.68v241.06c-6.6,0-12-1.69-12-3.76V760.44C295.95,758.37,301.35,756.68,307.95,756.68z"/>
			</g>
			<g class="st1">
				<path class="st0" d="M334.01,756.68h2.65c6.6,0,12,1.69,12,3.76v233.53c0,2.07-5.4,3.76-12,3.76h-2.65V756.68z"/>
			</g>
		</g>
		<g>
			<path class="st2" d="M336.66,999.73h-28.71c-7.72,0-14-6.28-14-14V768.68c0-7.72,6.28-14,14-14h28.71c7.72,0,14,6.28,14,14
				v217.06C350.66,993.45,344.38,999.73,336.66,999.73z M307.95,758.68c-5.51,0-10,4.49-10,10v217.06c0,5.51,4.49,10,10,10h28.71
				c5.51,0,10-4.49,10-10V768.68c0-5.51-4.49-10-10-10H307.95z"/>
		</g>
	</g>
	<g>
		<g>
			<g>
				<path class="st0" d="M462.04,756.68h28.71c6.6,0,12,1.69,12,3.76v233.53c0,2.07-5.4,3.76-12,3.76h-28.71c-6.6,0-12-1.69-12-3.76
					V760.44C450.04,758.37,455.44,756.68,462.04,756.68z"/>
			</g>
			<g>
				<path class="st0" d="M462.04,756.68v241.06c-6.6,0-12-1.69-12-3.76V760.44C450.04,758.37,455.44,756.68,462.04,756.68z"/>
			</g>
			<g class="st1">
				<path class="st0" d="M488.1,756.68h2.65c6.6,0,12,1.69,12,3.76v233.53c0,2.07-5.4,3.76-12,3.76h-2.65V756.68z"/>
			</g>
		</g>
		<g>
			<path class="st2" d="M490.75,999.73h-28.71c-7.72,0-14-6.28-14-14V768.68c0-7.72,6.28-14,14-14h28.71c7.72,0,14,6.28,14,14
				v217.06C504.75,993.45,498.47,999.73,490.75,999.73z M462.04,758.68c-5.51,0-10,4.49-10,10v217.06c0,5.51,4.49,10,10,10h28.71
				c5.51,0,10-4.49,10-10V768.68c0-5.51-4.49-10-10-10H462.04z"/>
		</g>
	</g>
	<g>
		<g>
			<g>
				<path class="st0" d="M770.2,756.68h28.71c6.6,0,12,1.69,12,3.76v233.53c0,2.07-5.4,3.76-12,3.76H770.2c-6.6,0-12-1.69-12-3.76
					V760.44C758.2,758.37,763.6,756.68,770.2,756.68z"/>
			</g>
			<g>
				<path class="st0" d="M770.2,756.68v241.06c-6.6,0-12-1.69-12-3.76V760.44C758.2,758.37,763.6,756.68,770.2,756.68z"/>
			</g>
			<g class="st1">
				<path class="st0" d="M796.26,756.68h2.65c6.6,0,12,1.69,12,3.76v233.53c0,2.07-5.4,3.76-12,3.76h-2.65V756.68z"/>
			</g>
		</g>
		<g>
			<path class="st2" d="M798.91,999.73H770.2c-7.72,0-14-6.28-14-14V768.68c0-7.72,6.28-14,14-14h28.71c7.72,0,14,6.28,14,14v217.06
				C812.91,993.45,806.63,999.73,798.91,999.73z M770.2,758.68c-5.51,0-10,4.49-10,10v217.06c0,5.51,4.49,10,10,10h28.71
				c5.51,0,10-4.49,10-10V768.68c0-5.51-4.49-10-10-10H770.2z"/>
		</g>
	</g>
	<g>
		<g>
			<g>
				<path class="st0" d="M616.12,756.68h28.71c6.6,0,12,1.69,12,3.76v233.53c0,2.07-5.4,3.76-12,3.76h-28.71c-6.6,0-12-1.69-12-3.76
					V760.44C604.12,758.37,609.52,756.68,616.12,756.68z"/>
			</g>
			<g>
				<path class="st0" d="M616.12,756.68v241.06c-6.6,0-12-1.69-12-3.76V760.44C604.12,758.37,609.52,756.68,616.12,756.68z"/>
			</g>
			<g class="st1">
				<path class="st0" d="M642.18,756.68h2.65c6.6,0,12,1.69,12,3.76v233.53c0,2.07-5.4,3.76-12,3.76h-2.65V756.68z"/>
			</g>
		</g>
		<g>
			<path class="st2" d="M644.83,999.73h-28.71c-7.72,0-14-6.28-14-14V768.68c0-7.72,6.28-14,14-14h28.71c7.72,0,14,6.28,14,14
				v217.06C658.83,993.45,652.55,999.73,644.83,999.73z M616.12,758.68c-5.51,0-10,4.49-10,10v217.06c0,5.51,4.49,10,10,10h28.71
				c5.51,0,10-4.49,10-10V768.68c0-5.51-4.49-10-10-10H616.12z"/>
		</g>
	</g>
</g>
<g>
	<g>
		<path class="st3" d="M690.81,340.11h-35.32c-9.2,0-16.72-7.52-16.72-16.72v-49.59c0-9.2,7.52-16.72,16.72-16.72h35.32
			c9.2,0,16.72,7.52,16.72,16.72v49.59C707.53,332.59,700.01,340.11,690.81,340.11z"/>
		<path d="M690.81,341.61h-35.32c-10.05,0-18.22-8.17-18.22-18.22v-49.59c0-10.05,8.17-18.22,18.22-18.22h35.32
			c10.05,0,18.22,8.17,18.22,18.22v49.59C709.03,333.44,700.86,341.61,690.81,341.61z M655.49,258.59
			c-8.39,0-15.22,6.83-15.22,15.22v49.59c0,8.39,6.83,15.22,15.22,15.22h35.32c8.39,0,15.22-6.83,15.22-15.22v-49.59
			c0-8.39-6.83-15.22-15.22-15.22H655.49z"/>
	</g>
	<g>
		<g>
			<path class="st4" d="M606.54,702.73h43.82c6.6,0,12-5.4,12-12V471.89c0-6.6-5.4-12-12-12h-43.82c-6.6,0-12,5.4-12,12v218.83
				C594.54,697.33,599.94,702.73,606.54,702.73z"/>
			<path d="M650.36,704.23h-43.82c-7.44,0-13.5-6.06-13.5-13.5V471.89c0-7.44,6.06-13.5,13.5-13.5h43.82c7.44,0,13.5,6.06,13.5,13.5
				v218.83C663.86,698.17,657.8,704.23,650.36,704.23z M606.54,461.39c-5.79,0-10.5,4.71-10.5,10.5v218.83
				c0,5.79,4.71,10.5,10.5,10.5h43.82c5.79,0,10.5-4.71,10.5-10.5V471.89c0-5.79-4.71-10.5-10.5-10.5H606.54z"/>
		</g>
		<g class="st5">
			<path class="st4" d="M601.06,681.11h10.97c3.58,0,6.51-2.93,6.51-6.51V473.94c0-3.58-2.93-6.51-6.51-6.51h-10.97
				c-3.58,0-6.51,2.93-6.51,6.51V674.6C594.54,678.18,597.47,681.11,601.06,681.11z"/>
		</g>
		<g class="st5">
			<path class="st4" d="M606.54,489.04h43.82c6.6,0,12-5.4,12-12v-5.15c0-6.6-5.4-12-12-12h-43.82c-6.6,0-12,5.4-12,12v5.15
				C594.54,483.64,599.94,489.04,606.54,489.04z"/>
		</g>
		<g>
			<path d="M650.36,703.23h-43.82c-6.89,0-12.5-5.61-12.5-12.5V471.89c0-6.89,5.61-12.5,12.5-12.5h43.82c6.89,0,12.5,5.61,12.5,12.5
				v218.83C662.86,697.62,657.25,703.23,650.36,703.23z M606.54,460.39c-6.34,0-11.5,5.16-11.5,11.5v218.83
				c0,6.34,5.16,11.5,11.5,11.5h43.82c6.34,0,11.5-5.16,11.5-11.5V471.89c0-6.34-5.16-11.5-11.5-11.5H606.54z"/>
		</g>
	</g>
	<g>
		<g>
			<path class="st4" d="M692.06,702.15h43.82c6.6,0,12-5.4,12-12V471.31c0-6.6-5.4-12-12-12h-43.82c-6.6,0-12,5.4-12,12v218.83
				C680.06,696.75,685.46,702.15,692.06,702.15z"/>
			<path d="M735.88,703.65h-43.82c-7.44,0-13.5-6.06-13.5-13.5V471.31c0-7.44,6.06-13.5,13.5-13.5h43.82c7.44,0,13.5,6.06,13.5,13.5
				v218.83C749.38,697.59,743.32,703.65,735.88,703.65z M692.06,460.81c-5.79,0-10.5,4.71-10.5,10.5v218.83
				c0,5.79,4.71,10.5,10.5,10.5h43.82c5.79,0,10.5-4.71,10.5-10.5V471.31c0-5.79-4.71-10.5-10.5-10.5H692.06z"/>
		</g>
		<g class="st5">
			<path class="st4" d="M686.57,680.53h10.97c3.58,0,6.51-2.93,6.51-6.51V473.36c0-3.58-2.93-6.51-6.51-6.51h-10.97
				c-3.58,0-6.51,2.93-6.51,6.51v200.66C680.06,677.6,682.99,680.53,686.57,680.53z"/>
		</g>
		<g class="st5">
			<path class="st4" d="M692.06,488.46h43.82c6.6,0,12-5.4,12-12v-5.15c0-6.6-5.4-12-12-12h-43.82c-6.6,0-12,5.4-12,12v5.15
				C680.06,483.06,685.46,488.46,692.06,488.46z"/>
		</g>
		<g>
			<path d="M735.88,702.65h-43.82c-6.89,0-12.5-5.61-12.5-12.5V471.31c0-6.89,5.61-12.5,12.5-12.5h43.82c6.89,0,12.5,5.61,12.5,12.5
				v218.83C748.38,697.04,742.77,702.65,735.88,702.65z M692.06,459.81c-6.34,0-11.5,5.16-11.5,11.5v218.83
				c0,6.34,5.16,11.5,11.5,11.5h43.82c6.34,0,11.5-5.16,11.5-11.5V471.31c0-6.34-5.16-11.5-11.5-11.5H692.06z"/>
		</g>
	</g>
	<g>
		<g>
			<path class="st6" d="M736.83,479.43H606.54c-6.6,0-12-5.4-12-12V292.86c0-6.6,5.4-12,12-12h130.29c6.6,0,12,5.4,12,12v174.57
				C748.83,474.03,743.43,479.43,736.83,479.43z"/>
			<path d="M736.83,479.93H606.54c-6.89,0-12.5-5.61-12.5-12.5V292.86c0-6.89,5.61-12.5,12.5-12.5h130.29
				c6.89,0,12.5,5.61,12.5,12.5v174.57C749.33,474.32,743.72,479.93,736.83,479.93z M606.54,281.36c-6.34,0-11.5,5.16-11.5,11.5
				v174.57c0,6.34,5.16,11.5,11.5,11.5h130.29c6.34,0,11.5-5.16,11.5-11.5V292.86c0-6.34-5.16-11.5-11.5-11.5H606.54z"/>
		</g>
		<g>
			<path class="st6" d="M748.82,292.7H594.55c0.08-6.53,5.44-11.84,11.99-11.84h130.29C743.38,280.86,748.74,286.17,748.82,292.7z"
				/>
			<path d="M749.33,293.2H594.04l0.01-0.51c0.08-6.8,5.69-12.33,12.49-12.33h130.29c6.8,0,12.41,5.53,12.49,12.33L749.33,293.2z
				 M595.07,292.2H748.3c-0.34-6.02-5.38-10.84-11.47-10.84H606.54C600.45,281.36,595.41,286.17,595.07,292.2z"/>
		</g>
		<g>
			<path d="M736.83,481.43H606.54c-7.72,0-14-6.28-14-14V292.86c0-7.72,6.28-14,14-14h130.29c7.72,0,14,6.28,14,14v174.57
				C750.83,475.15,744.55,481.43,736.83,481.43z M606.54,282.86c-5.51,0-10,4.49-10,10v174.57c0,5.51,4.49,10,10,10h130.29
				c5.51,0,10-4.49,10-10V292.86c0-5.51-4.49-10-10-10H606.54z"/>
		</g>
	</g>
	<g>
		<g>
			<path class="st7" d="M636.27,270.96c-7.44,0-13.5-6.06-13.5-13.5v-91.39c0-7.44,6.06-13.5,13.5-13.5h76.96
				c7.44,0,13.5,6.06,13.5,13.5v91.39c0,7.44-6.06,13.5-13.5,13.5H636.27z"/>
		</g>
		<g>
			<path d="M713.24,154.08c6.6,0,12,5.4,12,12v91.39c0,6.6-5.4,12-12,12h-76.96c-6.6,0-12-5.4-12-12v-91.39c0-6.6,5.4-12,12-12
				H713.24 M713.24,151.08h-76.96c-8.27,0-15,6.73-15,15v91.39c0,8.27,6.73,15,15,15h76.96c8.27,0,15-6.73,15-15v-91.39
				C728.24,157.81,721.51,151.08,713.24,151.08L713.24,151.08z"/>
		</g>
	</g>
	<g>
		<g>
			<path class="st8" d="M673.14,703.89h-89.37c-6.6,0-12-5.4-12-12V661.7c0-6.6,5.4-12,12-12h89.37c6.6,0,12,5.4,12,12v30.19
				C685.14,698.48,679.74,703.89,673.14,703.89z"/>
			<path d="M673.14,704.38h-89.37c-6.89,0-12.5-5.61-12.5-12.5V661.7c0-6.89,5.61-12.5,12.5-12.5h89.37c6.89,0,12.5,5.61,12.5,12.5
				v30.19C685.64,698.78,680.03,704.38,673.14,704.38z M583.77,650.2c-6.34,0-11.5,5.16-11.5,11.5v30.19c0,6.34,5.16,11.5,11.5,11.5
				h89.37c6.34,0,11.5-5.16,11.5-11.5V661.7c0-6.34-5.16-11.5-11.5-11.5H583.77z"/>
		</g>
		<g class="st1">
			<path class="st8" d="M685.06,660.34H571.85c0.68-5.97,5.78-10.64,11.92-10.64h89.37C679.28,649.7,684.38,654.37,685.06,660.34z"
				/>
		</g>
		<g>
			<path class="st8" d="M685.13,692.15c-0.13,6.48-5.48,11.74-11.99,11.74h-89.37c-6.51,0-11.86-5.26-11.99-11.74H685.13z"/>
		</g>
		<g>
			<path d="M673.14,705.38h-89.37c-7.44,0-13.5-6.06-13.5-13.5V661.7c0-7.44,6.06-13.5,13.5-13.5h89.37c7.44,0,13.5,6.06,13.5,13.5
				v30.19C686.64,699.33,680.58,705.38,673.14,705.38z M583.77,651.2c-5.79,0-10.5,4.71-10.5,10.5v30.19c0,5.79,4.71,10.5,10.5,10.5
				h89.37c5.79,0,10.5-4.71,10.5-10.5V661.7c0-5.79-4.71-10.5-10.5-10.5H583.77z"/>
		</g>
	</g>
	<g>
		<g>
			<path class="st8" d="M758.65,703.31h-89.37c-6.6,0-12-5.4-12-12v-30.19c0-6.6,5.4-12,12-12h89.37c6.6,0,12,5.4,12,12v30.19
				C770.65,697.91,765.25,703.31,758.65,703.31z"/>
			<path d="M758.65,703.81h-89.37c-6.89,0-12.5-5.61-12.5-12.5v-30.19c0-6.89,5.61-12.5,12.5-12.5h89.37c6.89,0,12.5,5.61,12.5,12.5
				v30.19C771.15,698.2,765.55,703.81,758.65,703.81z M669.28,649.62c-6.34,0-11.5,5.16-11.5,11.5v30.19c0,6.34,5.16,11.5,11.5,11.5
				h89.37c6.34,0,11.5-5.16,11.5-11.5v-30.19c0-6.34-5.16-11.5-11.5-11.5H669.28z"/>
		</g>
		<g class="st1">
			<path class="st8" d="M770.57,659.76H657.36c0.68-5.97,5.78-10.64,11.92-10.64h89.37C764.79,649.12,769.89,653.79,770.57,659.76z"
				/>
		</g>
		<g>
			<path class="st8" d="M770.64,691.57c-0.13,6.48-5.48,11.74-11.99,11.74h-89.37c-6.51,0-11.86-5.26-11.99-11.74H770.64z"/>
		</g>
		<g>
			<path d="M758.65,704.81h-89.37c-7.44,0-13.5-6.06-13.5-13.5v-30.19c0-7.44,6.06-13.5,13.5-13.5h89.37c7.44,0,13.5,6.06,13.5,13.5
				v30.19C772.15,698.75,766.1,704.81,758.65,704.81z M669.28,650.62c-5.79,0-10.5,4.71-10.5,10.5v30.19c0,5.79,4.71,10.5,10.5,10.5
				h89.37c5.79,0,10.5-4.71,10.5-10.5v-30.19c0-5.79-4.71-10.5-10.5-10.5H669.28z"/>
		</g>
	</g>
	<g>
		<g>
			<path class="st4" d="M736.83,479.43H606.54c-6.6,0-12-5.4-12-12v-33.96c0-6.6,5.4-12,12-12h130.29c6.6,0,12,5.4,12,12v33.96
				C748.83,474.03,743.43,479.43,736.83,479.43z"/>
			<path d="M736.83,479.93H606.54c-6.89,0-12.5-5.61-12.5-12.5v-33.96c0-6.89,5.61-12.5,12.5-12.5h130.29
				c6.89,0,12.5,5.61,12.5,12.5v33.96C749.33,474.32,743.72,479.93,736.83,479.93z M606.54,421.97c-6.34,0-11.5,5.16-11.5,11.5
				v33.96c0,6.34,5.16,11.5,11.5,11.5h130.29c6.34,0,11.5-5.16,11.5-11.5v-33.96c0-6.34-5.16-11.5-11.5-11.5H606.54z"/>
		</g>
		<g class="st9">
			<path class="st4" d="M748.83,433.47v9.39H594.55v-9.39c0-6.6,5.4-12,12-12h130.28C743.43,421.47,748.83,426.87,748.83,433.47z"/>
		</g>
		<g>
			<path d="M736.83,481.43H606.54c-7.72,0-14-6.28-14-14v-33.96c0-7.72,6.28-14,14-14h130.29c7.72,0,14,6.28,14,14v33.96
				C750.83,475.15,744.55,481.43,736.83,481.43z M606.54,423.47c-5.51,0-10,4.49-10,10v33.96c0,5.51,4.49,10,10,10h130.29
				c5.51,0,10-4.49,10-10v-33.96c0-5.51-4.49-10-10-10H606.54z"/>
		</g>
		<g class="st9">
			<path class="st4" d="M748.81,468.74c-0.27,6.35-5.56,11.46-11.98,11.46H606.55c-6.42,0-11.71-5.11-11.98-11.46H748.81z"/>
		</g>
	</g>
	<g>
		<path class="st7" d="M725.24,173.04v10.37H624.27v-10.37c0-8.33,6.82-15.14,15.14-15.14h70.67
			C718.42,157.9,725.24,164.71,725.24,173.04z"/>
	</g>
	<g>
		<g>
			<g>
				<g>
					<path class="st6" d="M580.57,447.06c-5.29,5.38-14.12,5-18.87-0.87c-12.05-14.91-20.2-32.19-23.79-50.67
						c-4.47-22.96-1.3-46.41,8.93-66.05c14.86-28.54,40.35-42.16,57.28-48.35c7.21-2.63,15.08,1.69,16.73,9.18l3.19,14.45
						c1.35,6.11-1.97,12.27-7.81,14.55c-10.39,4.05-25.47,12.43-33.91,28.64c-11.38,21.85-7.28,50.12,9.56,71.89
						c3.89,5.03,3.52,12.15-0.94,16.69L580.57,447.06z"/>
					<path d="M563,448.24c-0.61-0.52-1.18-1.1-1.69-1.73C549.26,431.6,541,414,537.42,395.62c-4.49-23.07-1.31-46.64,8.97-66.38
						c14.65-28.14,39.38-41.95,57.55-48.58c3.57-1.3,7.53-1,10.86,0.82c3.33,1.83,5.71,5.01,6.53,8.72l3.19,14.45
						c1.41,6.38-2.01,12.74-8.11,15.12c-10.8,4.21-25.4,12.56-33.65,28.4c-11.16,21.44-7.43,49.45,9.51,71.36
						c4.03,5.22,3.61,12.67-0.98,17.35l-10.36,10.53c-2.64,2.68-6.31,4.11-10.06,3.93C567.95,451.2,565.19,450.1,563,448.24z
						 M616.35,283.76c-0.62-0.53-1.3-1-2.03-1.4c-3.08-1.69-6.74-1.97-10.04-0.76c-18,6.57-42.5,20.26-57.01,48.11
						c-10.17,19.54-13.33,42.88-8.88,65.73c3.55,18.22,11.74,35.67,23.69,50.45c2.16,2.67,5.37,4.3,8.82,4.47
						c3.47,0.17,6.86-1.16,9.3-3.63l10.36-10.53c4.25-4.32,4.64-11.21,0.91-16.04c-17.18-22.21-20.95-50.64-9.61-72.43
						c8.39-16.12,23.22-24.6,34.17-28.87c5.64-2.2,8.8-8.08,7.5-13.98l-3.19-14.45C619.78,287.8,618.36,285.46,616.35,283.76z"/>
				</g>
			</g>
			<g>
				<g>
					<path class="st6" d="M571.82,450.85c-3.77,0.1-7.54-1.47-10.12-4.65c-12.05-14.91-20.2-32.19-23.8-50.67
						c-4.46-22.95-1.29-46.41,8.93-66.05c14.86-28.55,40.35-42.17,57.28-48.35c4.99-1.82,10.31-0.31,13.65,3.29
						c-1.34,0.03-2.71,0.28-4.05,0.77c-16.93,6.18-42.42,19.8-57.28,48.35c-10.22,19.64-13.39,43.09-8.92,66.05
						c3.6,18.48,11.75,35.76,23.79,50.67C571.47,450.46,571.64,450.65,571.82,450.85z"/>
					<path d="M563.02,448.27c-0.62-0.53-1.19-1.11-1.71-1.76c-12.06-14.92-20.33-32.52-23.9-50.89c-4.49-23.06-1.3-46.63,8.98-66.37
						c14.65-28.15,39.39-41.96,57.55-48.59c5-1.83,10.57-0.49,14.19,3.42l0.75,0.81l-1.11,0.03c-1.33,0.03-2.64,0.28-3.89,0.74
						c-18.01,6.58-42.51,20.26-57.01,48.11c-10.17,19.54-13.32,42.89-8.87,65.72c3.54,18.21,11.73,35.65,23.69,50.45
						c0.16,0.21,0.33,0.39,0.5,0.58l0.74,0.81l-1.1,0.03C568.56,451.44,565.45,450.34,563.02,448.27z M616.34,283.74
						c-3.31-2.81-7.89-3.66-12.05-2.15c-18,6.57-42.5,20.25-57.01,48.11c-10.17,19.54-13.32,42.88-8.88,65.72
						c3.54,18.21,11.74,35.66,23.69,50.45c2.16,2.66,5.26,4.25,8.63,4.45c-11.95-14.87-20.15-32.38-23.7-50.66
						c-4.49-23.06-1.31-46.63,8.97-66.38c14.64-28.13,39.38-41.95,57.55-48.59c0.99-0.36,2.03-0.61,3.08-0.72
						C616.53,283.91,616.43,283.82,616.34,283.74z"/>
				</g>
			</g>
			<g>
				<g>
					<path d="M562.35,449c-0.66-0.56-1.27-1.18-1.82-1.86c-12.16-15.04-20.49-32.79-24.1-51.33c-4.53-23.29-1.31-47.09,9.07-67.03
						c14.8-28.42,39.76-42.37,58.09-49.06c3.84-1.4,8.1-1.08,11.69,0.89c3.58,1.97,6.14,5.38,7.02,9.38l3.19,14.45
						c1.51,6.87-2.16,13.71-8.72,16.27c-10.64,4.15-25.02,12.36-33.13,27.93c-10.98,21.1-7.29,48.68,9.42,70.28
						c4.34,5.61,3.88,13.63-1.06,18.66l-10.36,10.53c-2.84,2.88-6.78,4.43-10.83,4.23C567.68,452.19,564.71,451,562.35,449z
						 M615.71,284.52c-0.57-0.49-1.19-0.92-1.86-1.28c-2.83-1.55-6.19-1.81-9.22-0.7c-17.84,6.51-42.11,20.06-56.46,47.63
						c-10.07,19.34-13.19,42.45-8.78,65.07c3.52,18.06,11.64,35.35,23.49,50.01c1.98,2.45,4.93,3.94,8.09,4.1
						c3.19,0.16,6.3-1.06,8.54-3.34l10.36-10.53c3.9-3.96,4.25-10.29,0.83-14.72c-17.42-22.52-21.23-51.37-9.71-73.5
						c8.54-16.39,23.58-25.01,34.7-29.34c5.18-2.02,8.08-7.42,6.89-12.83l-3.19-14.45C618.85,288.23,617.55,286.09,615.71,284.52z"
						/>
				</g>
			</g>
		</g>
		<g>
			<g>
				<path class="st7" d="M627.51,454.2l-32.94,32.64c-4.69,4.65-12.32,4.61-16.97-0.08l-19.34-19.52
					c-4.65-4.69-4.61-12.32,0.08-16.97l32.94-32.64c4.69-4.65,12.32-4.61,16.97,0.08l19.34,19.52
					C632.23,441.92,632.19,449.56,627.51,454.2z"/>
				<path d="M578.03,487.85c-0.27-0.23-0.53-0.47-0.79-0.73L557.9,467.6c-2.34-2.36-3.62-5.51-3.61-8.85
					c0.01-3.35,1.32-6.48,3.69-8.82l32.94-32.64c2.36-2.34,5.51-3.62,8.86-3.61c3.35,0.02,6.47,1.32,8.82,3.69l19.34,19.52
					c2.34,2.36,3.62,5.51,3.61,8.85c-0.02,3.35-1.32,6.48-3.69,8.82l-32.94,32.64c-2.36,2.34-5.51,3.62-8.86,3.61
					C583.08,490.79,580.27,489.75,578.03,487.85z M607.16,417.4c-2.05-1.75-4.64-2.71-7.39-2.72c-3.08-0.01-5.97,1.16-8.15,3.32
					l-32.94,32.64c-2.17,2.15-3.38,5.04-3.39,8.12c-0.01,3.08,1.16,5.97,3.32,8.15l19.34,19.52c2.16,2.18,5.04,3.38,8.12,3.39
					c3.08,0.01,5.97-1.16,8.15-3.32l32.94-32.64c2.17-2.15,3.38-5.04,3.39-8.12c0.01-3.08-1.16-5.97-3.32-8.15l-19.34-19.52
					C607.66,417.83,607.41,417.61,607.16,417.4z"/>
			</g>
			<g class="st10">
				<path class="st7" d="M627.64,453.96L594.7,486.6c-4.69,4.64-12.32,4.61-16.98-0.08l-0.71-0.72c-1.46-1.47-1.45-3.84,0.01-5.31
					l38.43-38.65c1.41-1.42,1.47-3.7,0.12-5.18l-12.68-14.02c-3.23-3.57,1.94-8.65,5.37-5.27c0.03,0.03,0.07,0.07,0.1,0.1
					L627.71,437C632.35,441.68,632.32,449.32,627.64,453.96z"/>
				<path d="M578.15,487.6c-0.27-0.23-0.53-0.47-0.78-0.72l-0.71-0.72c-1.64-1.66-1.64-4.36,0.01-6.01l38.43-38.65
					c1.22-1.23,1.27-3.21,0.11-4.5l-12.68-14.02c-1.82-2.02-1.25-4.54,0.25-5.98c1.42-1.36,3.85-1.94,5.84,0.02l0.11,0.11
					l19.34,19.52c2.34,2.36,3.62,5.5,3.61,8.85c-0.01,3.35-1.32,6.48-3.68,8.82l-32.94,32.64
					C590.41,491.55,583.04,491.76,578.15,487.6z M607.69,417.53c-1.46-1.24-3.15-0.82-4.22,0.2c-1.12,1.07-1.66,2.97-0.2,4.59
					l12.68,14.02c1.52,1.68,1.46,4.26-0.14,5.87l-38.43,38.65c-1.26,1.27-1.26,3.33,0,4.6l0.71,0.72
					c4.45,4.49,11.76,4.53,16.27,0.07l32.94-32.64c2.17-2.15,3.37-5.03,3.39-8.12c0.01-3.08-1.16-5.97-3.32-8.15l-19.34-19.52
					l0.25-0.45l-0.35,0.36C607.84,417.66,607.77,417.59,607.69,417.53z"/>
			</g>
			<g>
				<path d="M577.93,488.07c-0.29-0.25-0.58-0.51-0.85-0.79l-19.34-19.52c-2.53-2.55-3.91-5.95-3.9-9.56c0.02-3.62,1.43-7,3.98-9.53
					l32.94-32.64c5.29-5.24,13.85-5.2,19.09,0.09l19.34,19.52c2.53,2.55,3.91,5.95,3.9,9.56c-0.02,3.62-1.43,7-3.98,9.53
					l-32.94,32.64C591.16,492.33,583.21,492.56,577.93,488.07z M607.07,417.62c-4.11-3.49-10.29-3.32-14.19,0.55l-32.94,32.64
					c-1.98,1.97-3.08,4.6-3.09,7.41c-0.01,2.81,1.06,5.46,3.03,7.44l19.34,19.52c4.07,4.1,10.74,4.14,14.85,0.07L627,452.6l0,0
					c1.98-1.97,3.08-4.6,3.09-7.41c0.01-2.81-1.06-5.46-3.03-7.44l-19.34-19.52C607.51,418.02,607.29,417.81,607.07,417.62z"/>
			</g>
		</g>
	</g>
	<g>
		<g>
			<g>
				<g>
					<path class="st6" d="M783.98,442.55c5.91,4.7,14.62,3.25,18.62-3.15c10.15-16.26,16.15-34.4,17.48-53.18
						c1.66-23.33-4.33-46.23-16.86-64.48c-18.21-26.53-45.16-36.96-62.71-41.05c-7.47-1.74-14.77,3.5-15.5,11.14l-1.41,14.73
						c-0.6,6.23,3.45,11.95,9.51,13.5c10.8,2.76,26.79,9.25,37.13,24.32c13.94,20.31,13.3,48.86-0.78,72.52
						c-3.26,5.47-2.02,12.49,2.96,16.45L783.98,442.55z"/>
					<path d="M769.39,430.78c-2.76-4.14-3.02-9.66-0.36-14.14c14.16-23.8,14.45-52.08,0.8-71.98
						c-10.11-14.73-25.62-21.24-36.84-24.11c-6.35-1.62-10.51-7.52-9.88-14.03l1.41-14.73c0.36-3.78,2.34-7.23,5.42-9.44
						c3.09-2.22,6.98-3,10.68-2.13c18.84,4.38,45.06,15.1,63.01,41.25c12.59,18.36,18.61,41.36,16.95,64.8
						c-1.32,18.68-7.4,37.15-17.55,53.41c-1.97,3.15-5.21,5.33-8.89,5.96c-3.71,0.64-7.52-0.34-10.47-2.68l-11.56-9.2
						C771.03,432.88,770.12,431.88,769.39,430.78z M771.08,344.72c13.47,20.21,13.03,48.55-1.19,72.43
						c-3.12,5.24-1.9,12.04,2.84,15.81l11.56,9.2c2.72,2.17,6.25,3.07,9.68,2.48c3.4-0.58,6.39-2.59,8.21-5.5
						c10.07-16.12,16.09-34.43,17.4-52.95c1.65-23.22-4.31-45.99-16.78-64.17c-17.77-25.89-43.75-36.5-62.41-40.84
						c-3.42-0.8-7.02-0.08-9.87,1.97c-2.85,2.05-4.68,5.23-5.01,8.73l-1.41,14.73c-0.58,6.01,3.27,11.46,9.14,12.97
						c11.39,2.91,27.14,9.53,37.42,24.52C770.8,344.3,770.94,344.51,771.08,344.72z"/>
				</g>
			</g>
			<g>
				<g>
					<path class="st6" d="M793.13,445.24c3.75-0.35,7.31-2.37,9.48-5.84c10.15-16.26,16.15-34.4,17.48-53.18
						c1.65-23.33-4.34-46.22-16.87-64.48c-18.21-26.54-45.16-36.97-62.72-41.05c-5.18-1.2-10.28,0.94-13.15,4.92
						c1.33-0.13,2.72-0.05,4.11,0.27c17.55,4.09,44.51,14.52,62.72,41.05c12.53,18.26,18.52,41.15,16.86,64.48
						c-1.33,18.78-7.33,36.92-17.47,53.18C793.43,444.82,793.28,445.03,793.13,445.24z"/>
					<path d="M792.08,445.85l0.64-0.89c0.15-0.21,0.29-0.41,0.42-0.63c10.07-16.14,16.09-34.45,17.4-52.95
						c1.65-23.21-4.34-46.04-16.77-64.17c-17.76-25.88-43.75-36.5-62.42-40.85c-1.29-0.3-2.62-0.39-3.95-0.26l-1.1,0.11l0.65-0.9
						c3.11-4.31,8.48-6.32,13.67-5.11c18.84,4.38,45.06,15.09,63.02,41.26c12.61,18.32,18.61,41.36,16.95,64.8
						c-1.32,18.67-7.39,37.14-17.55,53.41c-2.17,3.48-5.77,5.69-9.86,6.08L792.08,445.85z M795.3,327.68
						c12.11,18.18,17.88,40.77,16.24,63.76c-1.31,18.57-7.32,36.94-17.39,53.16c3.33-0.61,6.22-2.56,8.03-5.46
						c10.08-16.14,16.1-34.45,17.41-52.95c1.61-22.77-4.1-45.14-16.08-63.13c-0.23-0.35-0.46-0.69-0.7-1.03
						c-17.77-25.9-43.76-36.51-62.42-40.85c-4.44-1.03-9.02,0.48-11.95,3.87c1.06-0.01,2.11,0.1,3.14,0.34
						c18.84,4.39,45.07,15.11,63.02,41.26C794.83,326.99,795.07,327.34,795.3,327.68z"/>
				</g>
			</g>
			<g>
				<g>
					<path d="M768.56,431.33c-2.97-4.45-3.25-10.39-0.39-15.21c13.97-23.46,14.33-51.29,0.83-70.9
						c-9.93-14.47-25.2-20.88-36.27-23.71c-6.83-1.75-11.3-8.1-10.63-15.09l1.41-14.73c0.39-4.07,2.52-7.77,5.84-10.16
						c3.32-2.39,7.51-3.22,11.49-2.3c19.01,4.43,45.48,15.24,63.61,41.66c12.71,18.53,18.8,41.77,17.12,65.44
						c-1.34,18.84-7.46,37.47-17.7,53.87c-2.12,3.4-5.61,5.73-9.57,6.41c-3.99,0.69-8.09-0.37-11.26-2.89l-11.56-9.2
						C770.33,433.6,769.35,432.52,768.56,431.33z M771.91,344.16c13.68,20.53,13.25,49.29-1.16,73.5
						c-2.86,4.81-1.75,11.05,2.6,14.51l11.56,9.2c2.5,1.99,5.74,2.82,8.88,2.28c3.12-0.54,5.86-2.37,7.53-5.05
						c9.99-15.99,15.95-34.14,17.25-52.49c1.63-22.99-4.27-45.6-16.61-63.53c-17.59-25.62-43.32-36.13-61.82-40.44
						c-3.14-0.73-6.45-0.07-9.06,1.81c-2.62,1.88-4.29,4.8-4.6,8.01l-1.41,14.73c-0.53,5.52,3,10.52,8.39,11.9
						c11.56,2.96,27.54,9.68,38,24.92C771.62,343.73,771.77,343.95,771.91,344.16z"/>
				</g>
			</g>
		</g>
		<g>
			<g>
				<path class="st7" d="M738.26,455.32l36.65,28.41c5.22,4.04,12.79,3.08,16.84-2.13l16.83-21.72c4.04-5.22,3.08-12.79-2.13-16.84
					l-36.65-28.41c-5.22-4.04-12.79-3.08-16.84,2.13l-16.83,21.72C732.08,443.71,733.04,451.28,738.26,455.32z"/>
				<path d="M735.21,452.78c-2.9-4.35-2.86-10.25,0.52-14.6l16.83-21.72c4.22-5.45,12.09-6.44,17.54-2.22l36.65,28.41
					c5.44,4.22,6.44,12.09,2.22,17.54l-16.83,21.72c-4.22,5.45-12.09,6.44-17.54,2.22l-36.65-28.41
					C736.86,454.87,735.94,453.88,735.21,452.78z M808.66,446.15c-0.67-1.01-1.51-1.92-2.52-2.7l-36.65-28.41
					c-5.01-3.88-12.25-2.97-16.13,2.04l-16.83,21.72c-3.88,5.01-2.97,12.25,2.04,16.13l36.65,28.41c5.01,3.88,12.25,2.97,16.13-2.04
					l16.83-21.72C811.28,455.57,811.32,450.15,808.66,446.15z"/>
			</g>
			<g class="st10">
				<path class="st7" d="M738.1,455.1l36.65,28.41c5.22,4.04,12.79,3.08,16.84-2.13l0.62-0.8c1.27-1.64,0.98-3.99-0.65-5.27
					l-42.83-33.7c-1.57-1.24-1.9-3.49-0.75-5.13l10.88-15.46c2.77-3.94-2.98-8.35-5.97-4.58c-0.03,0.04-0.06,0.08-0.09,0.11
					l-16.83,21.72C731.93,443.48,732.89,451.06,738.1,455.1z"/>
				<path d="M735.06,452.56c-2.9-4.35-2.85-10.24,0.52-14.6l16.93-21.84c1.73-2.18,4.21-1.9,5.79-0.72c1.67,1.25,2.54,3.68,0.97,5.9
					l-10.88,15.46c-1,1.42-0.71,3.38,0.65,4.45l42.83,33.7c1.84,1.44,2.16,4.12,0.73,5.97l-0.62,0.8
					c-4.22,5.44-12.09,6.44-17.54,2.22l-36.65-28.41C736.7,454.65,735.79,453.65,735.06,452.56z M758.55,417.1
					c-0.23-0.35-0.53-0.66-0.85-0.9c-1.24-0.93-3.09-1.12-4.41,0.54l-16.92,21.83c-1.87,2.42-2.69,5.43-2.3,8.49
					c0.39,3.06,1.93,5.77,4.35,7.64l36.65,28.41c5.01,3.88,12.25,2.96,16.14-2.05l0.62-0.8c1.09-1.41,0.84-3.46-0.56-4.57
					L748.42,442c-1.78-1.4-2.16-3.96-0.85-5.81l10.88-15.46C759.38,419.41,759.2,418.08,758.55,417.1z"/>
			</g>
			<g>
				<path d="M733.77,452.87c-1.14-1.72-1.88-3.69-2.15-5.8c-0.46-3.59,0.51-7.13,2.71-9.97l16.83-21.72
					c2.2-2.84,5.39-4.65,8.98-5.11c3.59-0.45,7.13,0.51,9.97,2.71l36.65,28.41c2.84,2.2,4.65,5.39,5.11,8.97s-0.51,7.13-2.71,9.96
					l-16.83,21.72c-4.56,5.88-13.06,6.96-18.94,2.4l-36.65-28.41C735.56,455.13,734.57,454.06,733.77,452.87z M807.21,446.22
					c-0.62-0.93-1.39-1.76-2.3-2.46l-36.65-28.41c-2.21-1.71-4.96-2.46-7.75-2.1c-2.79,0.35-5.27,1.76-6.98,3.97l-16.83,21.72
					c-1.71,2.21-2.46,4.96-2.1,7.75c0.35,2.79,1.76,5.27,3.97,6.98l36.65,28.41c4.58,3.55,11.18,2.71,14.73-1.87l16.83-21.72
					c1.71-2.21,2.46-4.96,2.1-7.75C808.67,449.1,808.1,447.56,807.21,446.22z"/>
			</g>
		</g>
	</g>
	<g>
		<g>
			<path class="st11" d="M726.09,122.08c-7.69,0-13.98,6.29-13.98,13.98v18.02h-80.39c-4.1,0-7.45,3.35-7.45,7.45v6.75
				c0,4.1,3.35,7.45,7.45,7.45h100.9c4.1,0,7.45-3.35,7.45-7.45v-6.53v-0.22v-25.47C740.07,128.37,733.78,122.08,726.09,122.08z"/>
			<path d="M732.62,176.23h-100.9c-4.38,0-7.95-3.57-7.95-7.95v-6.75c0-4.38,3.57-7.95,7.95-7.95h79.89v-17.52
				c0-7.98,6.5-14.48,14.48-14.48s14.48,6.5,14.48,14.48v32.22C740.57,172.66,737.01,176.23,732.62,176.23z M631.72,154.58
				c-3.83,0-6.95,3.12-6.95,6.95v6.75c0,3.83,3.12,6.95,6.95,6.95h100.9c3.83,0,6.95-3.12,6.95-6.95v-32.22
				c0-7.43-6.05-13.48-13.48-13.48s-13.48,6.05-13.48,13.48v18.52H631.72z"/>
		</g>
		<g>
			<path class="st11" d="M740.08,168.26v0.01c0,4.1-3.36,7.46-7.46,7.46h-100.9c-4.09,0-7.45-3.36-7.45-7.46v-0.01H740.08z"/>
		</g>
		<g>
			<path class="st11" d="M721.24,125.62v30.13c0,0.91-0.74,1.66-1.66,1.66h-88.37c-2.04,0-2.29-3.08-0.25-3.29
				c0.25-0.03,0.51-0.04,0.76-0.04h78.74c0.91,0,1.66-0.74,1.66-1.66v-16.37c0-4.98,2.65-9.38,6.6-11.86
				C719.81,123.52,721.24,124.33,721.24,125.62z"/>
		</g>
		<g>
			<path d="M726.09,122.08c7.69,0,13.98,6.29,13.98,13.98v25.47v0.22v6.53c0,4.1-3.35,7.45-7.45,7.45h-100.9
				c-4.1,0-7.45-3.35-7.45-7.45v-6.75c0-4.1,3.35-7.45,7.45-7.45h80.39v-18.02C712.11,128.37,718.41,122.08,726.09,122.08
				 M726.09,119.08c-9.36,0-16.98,7.62-16.98,16.98v15.02h-77.39c-5.76,0-10.45,4.69-10.45,10.45v6.75
				c0,5.76,4.69,10.45,10.45,10.45h100.9c5.76,0,10.45-4.69,10.45-10.45v-6.53v-0.22v-25.47
				C743.07,126.69,735.46,119.08,726.09,119.08L726.09,119.08z"/>
		</g>
	</g>
	<g>
		<path d="M664.87,253.48c-3.38,0-6.67-0.85-9.56-2.57c-5.11-3.04-7.35-7.81-8.23-10.38c-0.27-0.78,0.15-1.64,0.93-1.9
			c0.79-0.27,1.64,0.15,1.91,0.93c0.75,2.18,2.64,6.23,6.93,8.77c5.17,3.07,11.91,2.84,17.61-0.59c0.71-0.43,1.63-0.2,2.06,0.51
			c0.43,0.71,0.2,1.63-0.51,2.06C672.5,252.41,668.63,253.48,664.87,253.48z"/>
	</g>
	<g>
		<g>
			<circle class="st12" cx="656.36" cy="206.2" r="13.15"/>
		</g>
		<g>
			<circle class="st2" cx="656.36" cy="206.2" r="5.69"/>
		</g>
		<g>
			<path class="st2" d="M665.95,190.45h-19.18c-1.19,0-2.16-0.97-2.16-2.16v-2.03c0-1.19,0.97-2.16,2.16-2.16h19.18
				c1.19,0,2.16,0.97,2.16,2.16v2.03C668.11,189.48,667.14,190.45,665.95,190.45z"/>
		</g>
	</g>
	<g>
		<g>
			<circle class="st12" cx="695.1" cy="206.2" r="13.15"/>
		</g>
		<g>
			<circle class="st2" cx="695.1" cy="206.2" r="5.69"/>
		</g>
		<g>
			<path class="st2" d="M704.69,190.45h-19.18c-1.19,0-2.16-0.97-2.16-2.16v-2.03c0-1.19,0.97-2.16,2.16-2.16h19.18
				c1.19,0,2.16,0.97,2.16,2.16v2.03C706.85,189.48,705.88,190.45,704.69,190.45z"/>
		</g>
	</g>
</g>
</svg>
