<?xml version="1.0" encoding="utf-8"?>
<!-- Generator: Adobe Illustrator 24.0.3, SVG Export Plug-In . SVG Version: 6.00 Build 0)  -->
<svg version="1.1" id="Layer_1" xmlns="http://www.w3.org/2000/svg" xmlns:xlink="http://www.w3.org/1999/xlink" x="0px" y="0px"
	 viewBox="0 0 1280 1024" style="enable-background:new 0 0 1280 1024;" xml:space="preserve">
<style type="text/css">
	.st0{fill:#A04902;}
	.st1{opacity:0.7;}
	.st2{fill:#232323;}
	.st3{display:none;}
	.st4{display:inline;}
	.st5{fill:#F7ADAD;}
	.st6{fill:#14BDC1;}
	.st7{opacity:0.4;}
	.st8{opacity:0.3;}
	.st9{fill:#C1C1C1;}
	.st10{fill:#7B27AD;}
	.st11{fill:#FFBDBD;}
	.st12{opacity:0.5;}
	.st13{opacity:0.9;}
	.st14{fill:#595B5B;}
	.st15{fill:#F4F4F4;}
	.st16{fill:none;}
	.st17{fill:#22EFE0;}
	.st18{opacity:0.6;}
	.st19{fill:#9FF4EB;}
</style>
<g>
	<g>
		<g>
			<path class="st0" d="M1014.67,715.89v28.71c0,6.6-5.4,12-12,12H258.29c-6.6,0-12-5.4-12-12v-28.71c0-6.6,5.4-12,12-12h744.38
				C1009.27,703.89,1014.67,709.29,1014.67,715.89z"/>
		</g>
		<g>
			<path class="st0" d="M1014.67,715.89H246.29c0-6.6,5.4-12,12-12h744.38C1009.27,703.89,1014.67,709.29,1014.67,715.89z"/>
		</g>
		<g class="st1">
			<path class="st0" d="M1014.67,741.95v2.65c0,6.6-5.4,12-12,12H258.29c-6.6,0-12-5.4-12-12v-2.65H1014.67z"/>
		</g>
	</g>
	<g>
		<path class="st2" d="M1002.66,758.6H258.29c-7.72,0-14-6.28-14-14v-28.71c0-7.72,6.28-14,14-14h744.38c7.72,0,14,6.28,14,14v28.71
			C1016.66,752.32,1010.38,758.6,1002.66,758.6z M258.29,705.88c-5.51,0-10,4.49-10,10v28.71c0,5.51,4.49,10,10,10h744.38
			c5.51,0,10-4.49,10-10v-28.71c0-5.51-4.49-10-10-10H258.29z"/>
	</g>
</g>
<g>
	<g class="st3">
		<g class="st4">
			<g>
				<path class="st0" d="M924.29,756.68H953c6.6,0,12,1.69,12,3.76v233.53c0,2.07-5.4,3.76-12,3.76h-28.71c-6.6,0-12-1.69-12-3.76
					V760.44C912.29,758.37,917.69,756.68,924.29,756.68z"/>
			</g>
			<g>
				<path class="st0" d="M924.29,756.68v241.06c-6.6,0-12-1.69-12-3.76V760.44C912.29,758.37,917.69,756.68,924.29,756.68z"/>
			</g>
			<g class="st1">
				<path class="st0" d="M950.35,756.68H953c6.6,0,12,1.69,12,3.76v233.53c0,2.07-5.4,3.76-12,3.76h-2.65V756.68z"/>
			</g>
		</g>
		<g class="st4">
			<path class="st2" d="M953,999.73h-28.71c-7.72,0-14-6.28-14-14V768.68c0-7.72,6.28-14,14-14H953c7.72,0,14,6.28,14,14v217.06
				C967,993.45,960.72,999.73,953,999.73z M924.29,758.68c-5.51,0-10,4.49-10,10v217.06c0,5.51,4.49,10,10,10H953
				c5.51,0,10-4.49,10-10V768.68c0-5.51-4.49-10-10-10H924.29z"/>
		</g>
	</g>
	<g class="st3">
		<g class="st4">
			<g>
				<path class="st0" d="M307.95,756.68h28.71c6.6,0,12,1.69,12,3.76v233.53c0,2.07-5.4,3.76-12,3.76h-28.71c-6.6,0-12-1.69-12-3.76
					V760.44C295.95,758.37,301.35,756.68,307.95,756.68z"/>
			</g>
			<g>
				<path class="st0" d="M307.95,756.68v241.06c-6.6,0-12-1.69-12-3.76V760.44C295.95,758.37,301.35,756.68,307.95,756.68z"/>
			</g>
			<g class="st1">
				<path class="st0" d="M334.01,756.68h2.65c6.6,0,12,1.69,12,3.76v233.53c0,2.07-5.4,3.76-12,3.76h-2.65V756.68z"/>
			</g>
		</g>
		<g class="st4">
			<path class="st2" d="M336.66,999.73h-28.71c-7.72,0-14-6.28-14-14V768.68c0-7.72,6.28-14,14-14h28.71c7.72,0,14,6.28,14,14
				v217.06C350.66,993.45,344.38,999.73,336.66,999.73z M307.95,758.68c-5.51,0-10,4.49-10,10v217.06c0,5.51,4.49,10,10,10h28.71
				c5.51,0,10-4.49,10-10V768.68c0-5.51-4.49-10-10-10H307.95z"/>
		</g>
	</g>
	<g class="st3">
		<g class="st4">
			<g>
				<path class="st0" d="M462.04,756.68h28.71c6.6,0,12,1.69,12,3.76v233.53c0,2.07-5.4,3.76-12,3.76h-28.71c-6.6,0-12-1.69-12-3.76
					V760.44C450.04,758.37,455.44,756.68,462.04,756.68z"/>
			</g>
			<g>
				<path class="st0" d="M462.04,756.68v241.06c-6.6,0-12-1.69-12-3.76V760.44C450.04,758.37,455.44,756.68,462.04,756.68z"/>
			</g>
			<g class="st1">
				<path class="st0" d="M488.1,756.68h2.65c6.6,0,12,1.69,12,3.76v233.53c0,2.07-5.4,3.76-12,3.76h-2.65V756.68z"/>
			</g>
		</g>
		<g class="st4">
			<path class="st2" d="M490.75,999.73h-28.71c-7.72,0-14-6.28-14-14V768.68c0-7.72,6.28-14,14-14h28.71c7.72,0,14,6.28,14,14
				v217.06C504.75,993.45,498.47,999.73,490.75,999.73z M462.04,758.68c-5.51,0-10,4.49-10,10v217.06c0,5.51,4.49,10,10,10h28.71
				c5.51,0,10-4.49,10-10V768.68c0-5.51-4.49-10-10-10H462.04z"/>
		</g>
	</g>
	<g class="st3">
		<g class="st4">
			<g>
				<path class="st0" d="M770.2,756.68h28.71c6.6,0,12,1.69,12,3.76v233.53c0,2.07-5.4,3.76-12,3.76H770.2c-6.6,0-12-1.69-12-3.76
					V760.44C758.2,758.37,763.6,756.68,770.2,756.68z"/>
			</g>
			<g>
				<path class="st0" d="M770.2,756.68v241.06c-6.6,0-12-1.69-12-3.76V760.44C758.2,758.37,763.6,756.68,770.2,756.68z"/>
			</g>
			<g class="st1">
				<path class="st0" d="M796.26,756.68h2.65c6.6,0,12,1.69,12,3.76v233.53c0,2.07-5.4,3.76-12,3.76h-2.65V756.68z"/>
			</g>
		</g>
		<g class="st4">
			<path class="st2" d="M798.91,999.73H770.2c-7.72,0-14-6.28-14-14V768.68c0-7.72,6.28-14,14-14h28.71c7.72,0,14,6.28,14,14v217.06
				C812.91,993.45,806.63,999.73,798.91,999.73z M770.2,758.68c-5.51,0-10,4.49-10,10v217.06c0,5.51,4.49,10,10,10h28.71
				c5.51,0,10-4.49,10-10V768.68c0-5.51-4.49-10-10-10H770.2z"/>
		</g>
	</g>
	<g>
		<g>
			<g>
				<path class="st0" d="M616.12,756.68h28.71c6.6,0,12,1.69,12,3.76v233.53c0,2.07-5.4,3.76-12,3.76h-28.71c-6.6,0-12-1.69-12-3.76
					V760.44C604.12,758.37,609.52,756.68,616.12,756.68z"/>
			</g>
			<g>
				<path class="st0" d="M616.12,756.68v241.06c-6.6,0-12-1.69-12-3.76V760.44C604.12,758.37,609.52,756.68,616.12,756.68z"/>
			</g>
			<g class="st1">
				<path class="st0" d="M642.18,756.68h2.65c6.6,0,12,1.69,12,3.76v233.53c0,2.07-5.4,3.76-12,3.76h-2.65V756.68z"/>
			</g>
		</g>
		<g>
			<path class="st2" d="M644.83,999.73h-28.71c-7.72,0-14-6.28-14-14V768.68c0-7.72,6.28-14,14-14h28.71c7.72,0,14,6.28,14,14
				v217.06C658.83,993.45,652.55,999.73,644.83,999.73z M616.12,758.68c-5.51,0-10,4.49-10,10v217.06c0,5.51,4.49,10,10,10h28.71
				c5.51,0,10-4.49,10-10V768.68c0-5.51-4.49-10-10-10H616.12z"/>
		</g>
	</g>
</g>
<g>
	<g>
		<path class="st5" d="M648.01,402.47h-35.32c-9.2,0-16.72-7.52-16.72-16.72v-49.59c0-9.2,7.52-16.72,16.72-16.72h35.32
			c9.2,0,16.72,7.52,16.72,16.72v49.59C664.73,394.95,657.21,402.47,648.01,402.47z"/>
		<path d="M648.01,403.97h-35.32c-10.05,0-18.22-8.17-18.22-18.22v-49.59c0-10.05,8.17-18.22,18.22-18.22h35.32
			c10.05,0,18.22,8.17,18.22,18.22v49.59C666.23,395.8,658.06,403.97,648.01,403.97z M612.69,320.95c-8.39,0-15.22,6.83-15.22,15.22
			v49.59c0,8.39,6.83,15.22,15.22,15.22h35.32c8.39,0,15.22-6.83,15.22-15.22v-49.59c0-8.39-6.83-15.22-15.22-15.22H612.69z"/>
	</g>
	<g>
		<g>
			<g>
				<path class="st6" d="M491.36,580.18c0.85-1.78,1.97-3.51,3.44-5.15c3.46-3.87,7.24-7.48,10.85-11.21
					c11.99-12.39,23.99-24.77,35.98-37.15c6.53-6.75,13.07-13.5,19.6-20.24c4.59-4.74,12.23-4.86,16.97-0.27l31.48,30.48
					c4.74,4.59,4.86,12.23,0.27,16.97l-52.83,54.55l0.87,75.28c0.08,6.6-5.26,12.06-11.86,12.14l-43.82,0.5
					c-6.6,0.08-12.06-5.26-12.14-11.86c-0.3-25.94-0.6-51.88-0.89-77.82C489.18,597.31,487.57,588.13,491.36,580.18z"/>
				<path d="M502.17,696.58c-3.27,0-6.36-1.26-8.72-3.57c-2.39-2.34-3.73-5.46-3.77-8.79l-0.89-77.82c-0.02-1.98-0.12-4-0.21-5.96
					c-0.33-6.96-0.68-14.15,2.34-20.47h0c0.9-1.89,2.08-3.66,3.52-5.27c2.31-2.59,4.81-5.1,7.23-7.53c1.22-1.23,2.44-2.45,3.64-3.69
					l55.58-57.4c4.79-4.95,12.73-5.08,17.68-0.28l31.48,30.48c4.95,4.79,5.08,12.72,0.28,17.68l-52.68,54.41l0.86,75.08
					c0.08,6.89-5.46,12.56-12.36,12.64l-43.81,0.5C502.27,696.58,502.22,696.58,502.17,696.58z M569.86,503.28
					c-3.01,0-6.01,1.17-8.26,3.49l-55.58,57.4c-1.2,1.24-2.42,2.47-3.65,3.7c-2.41,2.42-4.89,4.92-7.19,7.49
					c-1.39,1.56-2.49,3.2-3.36,5.03l0,0c-2.9,6.09-2.58,12.85-2.24,20c0.09,1.96,0.19,3.99,0.21,6l0.89,77.82
					c0.04,3.06,1.27,5.93,3.47,8.08c2.2,2.15,5.09,3.36,8.16,3.29l43.81-0.5c6.34-0.07,11.44-5.29,11.37-11.63l-0.87-75.49
					l0.14-0.15l52.83-54.55c4.41-4.56,4.29-11.85-0.26-16.26l-31.48-30.48C575.62,504.35,572.74,503.28,569.86,503.28z"/>
			</g>
			<g class="st7">
				<path class="st6" d="M489.29,606.39c0.3,25.94,0.6,51.88,0.9,77.83c0.08,6.6,5.53,11.93,12.13,11.86l7.11-0.08l-0.08-108.15
					l78.76-72.11l-9.91-9.59c-4.74-4.59-12.38-4.46-16.97,0.27c-6.54,6.75-13.07,13.51-19.6,20.25l-35.98,37.15
					c-3.6,3.73-7.4,7.34-10.85,11.21c-1.47,1.64-2.6,3.37-3.45,5.15C487.58,588.14,489.18,597.32,489.29,606.39z"/>
			</g>
			<g class="st8">
				<path class="st6" d="M582.37,564.84l-31.48-30.48c-4.74-4.59-4.86-12.23-0.27-16.97l10.62-10.97
					c4.59-4.74,12.23-4.86,16.97-0.27l31.48,30.48c4.74,4.59,4.86,12.23,0.27,16.97l-10.62,10.97
					C594.74,569.31,587.11,569.43,582.37,564.84z"/>
			</g>
			<g>
				<path d="M502.17,698.08c-3.67,0-7.13-1.42-9.77-4c-2.68-2.62-4.18-6.12-4.22-9.84l-0.89-77.82c-0.02-1.96-0.12-3.96-0.21-5.91
					c-0.34-7.14-0.69-14.53,2.48-21.19l0,0c0.96-2.02,2.22-3.91,3.76-5.62c2.34-2.62,4.85-5.14,7.28-7.59
					c1.22-1.22,2.43-2.44,3.62-3.68l55.58-57.4c5.37-5.55,14.25-5.69,19.8-0.32l31.48,30.48c5.55,5.37,5.69,14.25,0.32,19.8
					l-52.25,53.96l0.86,74.46c0.09,7.72-6.12,14.07-13.84,14.16l-43.81,0.5C502.28,698.08,502.23,698.08,502.17,698.08z
					 M569.86,504.78c-2.62,0-5.23,1.02-7.19,3.04l-55.58,57.4c-1.21,1.25-2.43,2.48-3.66,3.71c-2.39,2.41-4.87,4.89-7.14,7.43
					c-1.29,1.45-2.32,2.98-3.13,4.68l0,0c-2.74,5.75-2.43,12.32-2.1,19.28c0.09,1.98,0.19,4.02,0.22,6.05l0.89,77.82
					c0.03,2.66,1.1,5.15,3.02,7.03c1.92,1.87,4.44,2.93,7.09,2.86l43.81-0.5c5.51-0.06,9.95-4.6,9.88-10.11l-0.87-76.11l0.57-0.59
					l52.83-54.55c3.84-3.96,3.73-10.3-0.23-14.14l-31.48-30.48C574.87,505.71,572.36,504.78,569.86,504.78z"/>
			</g>
		</g>
		<g>
			<g>
				<path class="st9" d="M457.14,702.37l89.36-1.03c6.6-0.08,11.94-5.54,11.86-12.14l-0.35-30.19c-0.08-6.6-5.54-11.94-12.14-11.86
					l-89.36,1.03c-6.6,0.08-11.94,5.54-11.86,12.14l0.35,30.19C445.08,697.11,450.54,702.45,457.14,702.37z"/>
				<path d="M457,702.87c-6.83,0-12.42-5.51-12.5-12.36l-0.35-30.19c-0.08-6.89,5.46-12.56,12.36-12.64l89.36-1.03
					c3.32-0.07,6.48,1.23,8.87,3.57c2.39,2.34,3.73,5.46,3.77,8.79l0.35,30.19c0.08,6.89-5.46,12.56-12.36,12.64l-89.37,1.03
					C457.1,702.87,457.05,702.87,457,702.87z M546.03,647.66c-0.04,0-0.09,0-0.13,0l-89.36,1.03c-6.34,0.07-11.44,5.29-11.37,11.63
					l0.35,30.19c0.07,6.3,5.22,11.37,11.5,11.37c0.04,0,0.09,0,0.13,0l89.37-1.03c6.34-0.07,11.44-5.29,11.37-11.63l-0.35-30.19
					c-0.04-3.06-1.27-5.93-3.47-8.08C551.88,648.82,549.04,647.66,546.03,647.66z"/>
			</g>
			<g>
				<path class="st9" d="M444.88,691.53c1,5.67,6.02,9.98,11.96,9.92l89.37-1.03c5.77-0.06,10.57-4.25,11.63-9.7L444.88,691.53z"/>
			</g>
			<g class="st1">
				<path class="st9" d="M444.9,661.21l0.01,1.18l113.35-2.17l0-0.31c-0.07-6.59-5.53-11.93-12.13-11.86l-89.36,1.02
					C450.16,649.15,444.82,654.62,444.9,661.21z"/>
			</g>
			<g>
				<path d="M457,703.87c-7.37,0-13.41-5.95-13.5-13.34l-0.35-30.19c-0.09-7.44,5.9-13.57,13.34-13.66l89.36-1.03
					c3.61-0.03,6.99,1.33,9.58,3.85c2.59,2.53,4.03,5.9,4.07,9.49l0.35,30.19c0.09,7.44-5.9,13.57-13.34,13.66l-89.37,1.03
					C457.11,703.87,457.06,703.87,457,703.87z M546.03,648.66c-0.04,0-0.08,0-0.12,0l-89.36,1.03c-5.79,0.07-10.44,4.83-10.38,10.62
					l0.35,30.19c0.07,5.75,4.76,10.38,10.5,10.38c0.04,0,0.08,0,0.12,0l89.37-1.03c5.79-0.07,10.44-4.83,10.38-10.62l-0.35-30.19
					c-0.03-2.79-1.16-5.41-3.17-7.38C551.37,649.72,548.77,648.66,546.03,648.66z"/>
			</g>
		</g>
	</g>
	<g>
		<g>
			<path class="st10" d="M694.03,541.79H563.75c-6.6,0-12-5.4-12-12V355.22c0-6.6,5.4-12,12-12h130.29c6.6,0,12,5.4,12,12v174.57
				C706.03,536.39,700.63,541.79,694.03,541.79z"/>
			<path d="M694.03,542.29H563.75c-6.89,0-12.5-5.61-12.5-12.5V355.22c0-6.89,5.61-12.5,12.5-12.5h130.29
				c6.89,0,12.5,5.61,12.5,12.5v174.57C706.53,536.68,700.92,542.29,694.03,542.29z M563.75,343.72c-6.34,0-11.5,5.16-11.5,11.5
				v174.57c0,6.34,5.16,11.5,11.5,11.5h130.29c6.34,0,11.5-5.16,11.5-11.5V355.22c0-6.34-5.16-11.5-11.5-11.5H563.75z"/>
		</g>
		<g>
			<path class="st10" d="M706.02,355.06H551.75c0.08-6.53,5.44-11.84,11.99-11.84h130.29C700.58,343.22,705.94,348.53,706.02,355.06
				z"/>
			<path d="M706.53,355.56H551.25l0.01-0.51c0.08-6.8,5.69-12.33,12.49-12.33h130.29c6.8,0,12.41,5.53,12.49,12.33L706.53,355.56z
				 M552.27,354.56h153.24c-0.34-6.02-5.38-10.84-11.47-10.84H563.74C557.65,343.72,552.61,348.53,552.27,354.56z"/>
		</g>
		<g>
			<path d="M694.03,543.79H563.75c-7.72,0-14-6.28-14-14V355.22c0-7.72,6.28-14,14-14h130.29c7.72,0,14,6.28,14,14v174.57
				C708.03,537.51,701.75,543.79,694.03,543.79z M563.75,345.22c-5.51,0-10,4.49-10,10v174.57c0,5.51,4.49,10,10,10h130.29
				c5.51,0,10-4.49,10-10V355.22c0-5.51-4.49-10-10-10H563.75z"/>
		</g>
	</g>
	<g>
		<g>
			<path class="st11" d="M593.47,333.32c-7.44,0-13.5-6.06-13.5-13.5v-91.39c0-7.44,6.06-13.5,13.5-13.5h76.96
				c7.44,0,13.5,6.06,13.5,13.5v91.39c0,7.44-6.06,13.5-13.5,13.5H593.47z"/>
		</g>
		<g>
			<path d="M670.44,216.44c6.6,0,12,5.4,12,12v91.39c0,6.6-5.4,12-12,12h-76.96c-6.6,0-12-5.4-12-12v-91.39c0-6.6,5.4-12,12-12
				H670.44 M670.44,213.44h-76.96c-8.27,0-15,6.73-15,15v91.39c0,8.27,6.73,15,15,15h76.96c8.27,0,15-6.73,15-15v-91.39
				C685.44,220.17,678.71,213.44,670.44,213.44L670.44,213.44z"/>
		</g>
	</g>
	<g>
		<g>
			<g>
				<path class="st6" d="M761.11,580.18c-0.85-1.78-1.97-3.51-3.44-5.15c-3.46-3.87-7.24-7.48-10.85-11.21
					c-11.99-12.39-23.99-24.77-35.98-37.15c-6.53-6.75-13.07-13.5-19.6-20.24c-4.59-4.74-12.23-4.86-16.97-0.27l-31.48,30.48
					c-4.74,4.59-4.86,12.23-0.27,16.97l52.83,54.55l-0.87,75.28c-0.08,6.6,5.26,12.06,11.86,12.14l43.82,0.5
					c6.6,0.08,12.06-5.26,12.14-11.86c0.3-25.94,0.6-51.88,0.89-77.82C763.29,597.31,764.9,588.13,761.11,580.18z"/>
				<path d="M750.29,696.58c-0.05,0-0.1,0-0.15,0l-43.81-0.5c-6.89-0.08-12.43-5.75-12.36-12.64l0.86-75.08l-52.68-54.41
					c-4.79-4.95-4.67-12.88,0.29-17.68l31.48-30.48c4.95-4.79,12.88-4.67,17.68,0.28l55.58,57.4c1.2,1.24,2.41,2.46,3.63,3.68
					c2.42,2.43,4.92,4.94,7.23,7.54c1.44,1.61,2.62,3.38,3.52,5.27l0,0c3.01,6.32,2.67,13.51,2.33,20.47
					c-0.09,1.96-0.19,3.98-0.21,5.96l-0.89,77.82c-0.04,3.33-1.38,6.45-3.77,8.79C756.66,695.31,753.57,696.58,750.29,696.58z
					 M682.62,503.28c-2.88,0-5.77,1.07-8,3.23l-31.48,30.48c-4.56,4.41-4.67,11.71-0.26,16.26l52.97,54.7l0,0.21l-0.87,75.28
					c-0.07,6.34,5.03,11.56,11.37,11.63l43.81,0.5c0.04,0,0.09,0,0.13,0c3.01,0,5.85-1.16,8.03-3.29c2.2-2.15,3.44-5.02,3.47-8.08
					l0.89-77.82c0.02-2,0.12-4.03,0.21-6c0.34-7.15,0.66-13.9-2.24-20l0,0c-0.87-1.83-1.97-3.48-3.36-5.03
					c-2.3-2.57-4.79-5.08-7.2-7.5c-1.22-1.23-2.44-2.46-3.64-3.69l-55.58-57.4C688.63,504.45,685.62,503.28,682.62,503.28z"/>
			</g>
			<g class="st7">
				<path class="st6" d="M763.18,606.39c-0.3,25.94-0.6,51.88-0.9,77.83c-0.08,6.6-5.53,11.93-12.13,11.86l-7.11-0.08l0.08-108.15
					l-78.76-72.11l9.91-9.59c4.74-4.59,12.38-4.46,16.97,0.27c6.54,6.75,13.07,13.51,19.6,20.25l35.98,37.15
					c3.6,3.73,7.4,7.34,10.85,11.21c1.47,1.64,2.6,3.37,3.45,5.15C764.9,588.14,763.29,597.32,763.18,606.39z"/>
			</g>
			<g class="st8">
				<path class="st6" d="M670.1,564.84l31.48-30.48c4.74-4.59,4.86-12.23,0.27-16.97l-10.62-10.97c-4.59-4.74-12.23-4.86-16.97-0.27
					l-31.48,30.48c-4.74,4.59-4.86,12.23-0.27,16.97l10.62,10.97C657.73,569.31,665.36,569.43,670.1,564.84z"/>
			</g>
			<g>
				<path d="M750.3,698.08c-0.05,0-0.11,0-0.17,0l-43.81-0.5c-7.72-0.09-13.93-6.44-13.84-14.16l0.86-74.46l-52.25-53.96
					c-5.37-5.55-5.23-14.43,0.32-19.8l31.48-30.48c5.55-5.37,14.43-5.23,19.8,0.32l55.58,57.4c1.19,1.23,2.41,2.45,3.62,3.67
					c2.43,2.45,4.94,4.97,7.29,7.59c1.53,1.71,2.79,3.61,3.76,5.62c3.17,6.66,2.82,14.05,2.48,21.19c-0.09,1.94-0.19,3.95-0.21,5.91
					l-0.89,77.82c-0.04,3.73-1.54,7.22-4.22,9.84C757.43,696.66,753.96,698.08,750.3,698.08z M682.62,504.78
					c-2.51,0-5.02,0.93-6.96,2.81l-31.48,30.48c-3.96,3.84-4.06,10.18-0.23,14.14l53.4,55.14l-0.88,76.11
					c-0.06,5.51,4.37,10.05,9.88,10.11l43.81,0.5c2.66,0.05,5.18-0.98,7.09-2.86c1.92-1.87,2.99-4.37,3.02-7.03l0.89-77.82
					c0.02-2.03,0.12-4.07,0.21-6.05c0.33-6.96,0.65-13.53-2.09-19.28l0,0c-0.81-1.7-1.83-3.23-3.13-4.68
					c-2.27-2.54-4.75-5.03-7.14-7.44c-1.23-1.23-2.45-2.46-3.66-3.71l-55.58-57.4C687.84,505.79,685.23,504.78,682.62,504.78z"/>
			</g>
		</g>
		<g>
			<g>
				<path class="st9" d="M795.33,702.37l-89.36-1.03c-6.6-0.08-11.94-5.54-11.86-12.14l0.35-30.19c0.08-6.6,5.54-11.94,12.14-11.86
					l89.36,1.03c6.6,0.08,11.94,5.54,11.86,12.14l-0.35,30.19C807.39,697.11,801.93,702.45,795.33,702.37z"/>
				<path d="M795.46,702.87c-0.05,0-0.1,0-0.14,0l-89.37-1.03c-6.89-0.08-12.43-5.75-12.36-12.64l0.35-30.19
					c0.04-3.33,1.38-6.45,3.77-8.79c2.39-2.34,5.55-3.61,8.87-3.57l89.37,1.03c6.89,0.08,12.43,5.75,12.36,12.64l-0.35,30.19
					c-0.04,3.33-1.38,6.45-3.77,8.79C801.83,701.61,798.74,702.87,795.46,702.87z M795.33,701.87c0.04,0,0.09,0,0.13,0
					c6.28,0,11.43-5.07,11.5-11.37l0.35-30.19c0.07-6.34-5.03-11.56-11.37-11.63l-89.37-1.03c-3.03-0.05-5.96,1.13-8.16,3.29
					c-2.2,2.15-3.44,5.02-3.47,8.08l-0.35,30.19c-0.07,6.34,5.03,11.56,11.37,11.63L795.33,701.87z"/>
			</g>
			<g>
				<path class="st9" d="M807.59,691.53c-1,5.67-6.02,9.98-11.96,9.92l-89.37-1.03c-5.77-0.06-10.57-4.25-11.63-9.7L807.59,691.53z"
					/>
			</g>
			<g class="st1">
				<path class="st9" d="M807.57,661.21l-0.01,1.18l-113.35-2.17l0-0.31c0.07-6.59,5.53-11.93,12.13-11.86l89.36,1.02
					C802.31,649.15,807.65,654.62,807.57,661.21z"/>
			</g>
			<g>
				<path d="M795.47,703.87c-0.05,0-0.1,0-0.16,0l-89.37-1.03c-7.44-0.09-13.43-6.21-13.34-13.66l0.35-30.19
					c0.04-3.59,1.49-6.96,4.07-9.49c2.59-2.53,5.99-3.94,9.58-3.85l89.37,1.03c7.44,0.09,13.43,6.21,13.34,13.66l-0.35,30.19
					c-0.04,3.59-1.49,6.96-4.07,9.49C802.34,702.5,799,703.87,795.47,703.87z M795.34,700.87c0.04,0,0.08,0,0.12,0
					c2.75,0,5.34-1.06,7.33-3c2.01-1.97,3.14-4.59,3.17-7.38l0.35-30.19c0.07-5.79-4.59-10.55-10.38-10.62l-89.37-1.03
					c-2.78-0.04-5.44,1.03-7.45,3c-2.01,1.97-3.14,4.59-3.17,7.38l-0.35,30.19c-0.07,5.79,4.59,10.55,10.38,10.62L795.34,700.87
					L795.34,700.87z"/>
			</g>
		</g>
	</g>
	<g>
		<g>
			<path class="st6" d="M694.03,541.79H563.75c-6.6,0-12-5.4-12-12v-33.96c0-6.6,5.4-12,12-12h130.29c6.6,0,12,5.4,12,12v33.96
				C706.03,536.39,700.63,541.79,694.03,541.79z"/>
			<path d="M694.03,542.29H563.75c-6.89,0-12.5-5.61-12.5-12.5v-33.96c0-6.89,5.61-12.5,12.5-12.5h130.29
				c6.89,0,12.5,5.61,12.5,12.5v33.96C706.53,536.68,700.92,542.29,694.03,542.29z M563.75,484.33c-6.34,0-11.5,5.16-11.5,11.5
				v33.96c0,6.34,5.16,11.5,11.5,11.5h130.29c6.34,0,11.5-5.16,11.5-11.5v-33.96c0-6.34-5.16-11.5-11.5-11.5H563.75z"/>
		</g>
		<g class="st12">
			<path class="st6" d="M706.03,495.83v9.39H551.75v-9.39c0-6.6,5.4-12,12-12h130.28C700.63,483.83,706.03,489.23,706.03,495.83z"/>
		</g>
		<g>
			<path d="M694.03,543.79H563.75c-7.72,0-14-6.28-14-14v-33.96c0-7.72,6.28-14,14-14h130.29c7.72,0,14,6.28,14,14v33.96
				C708.03,537.51,701.75,543.79,694.03,543.79z M563.75,485.83c-5.51,0-10,4.49-10,10v33.96c0,5.51,4.49,10,10,10h130.29
				c5.51,0,10-4.49,10-10v-33.96c0-5.51-4.49-10-10-10H563.75z"/>
		</g>
		<g class="st12">
			<path class="st6" d="M706.01,531.1c-0.27,6.35-5.56,11.46-11.98,11.46H563.75c-6.42,0-11.71-5.11-11.98-11.46H706.01z"/>
		</g>
	</g>
	<g>
		<path class="st11" d="M682.44,235.4v10.37H581.48V235.4c0-8.33,6.82-15.14,15.14-15.14h70.67
			C675.62,220.26,682.44,227.07,682.44,235.4z"/>
	</g>
	<g>
		<g>
			<g>
				<g>
					<path class="st10" d="M843.45,396.5c7.19-2.31,10.82-10.37,7.71-17.24c-7.9-17.46-19.68-32.51-34.56-44.03
						c-18.49-14.31-40.87-22.03-63.01-21.72c-32.18,0.44-55.8,17.08-68.94,29.43c-5.59,5.26-5.27,14.23,0.68,19.07l11.48,9.34
						c4.86,3.95,11.85,3.76,16.51-0.43c8.29-7.46,22.56-17.17,40.83-17.42c24.63-0.34,48.04,16.03,59.92,40.86
						c2.75,5.74,9.27,8.61,15.33,6.66L843.45,396.5z"/>
					<path d="M825.56,402.12c-4.97,0-9.72-2.84-11.97-7.54c-11.95-24.98-35.32-40.89-59.46-40.58c-17.86,0.25-31.88,9.54-40.5,17.29
						c-4.87,4.38-12.09,4.57-17.15,0.45l-11.48-9.34c-2.95-2.4-4.72-5.95-4.85-9.75c-0.14-3.8,1.38-7.47,4.15-10.07
						c14.09-13.25,37.55-29.13,69.27-29.56c22.27-0.3,44.74,7.45,63.33,21.83c14.81,11.46,26.81,26.75,34.71,44.22
						c1.53,3.39,1.54,7.29,0.03,10.7c-1.53,3.44-4.46,6.07-8.04,7.22l-14.07,4.52C828.22,401.92,826.88,402.12,825.56,402.12z
						 M754.88,352.99c24.29,0,47.63,16.08,59.62,41.15c2.63,5.5,8.96,8.25,14.73,6.4l14.07-4.52c3.31-1.06,6.02-3.5,7.43-6.67
						c1.4-3.15,1.39-6.76-0.03-9.89c-7.83-17.32-19.73-32.48-34.41-43.84c-18.41-14.24-40.63-21.93-62.7-21.62
						c-31.4,0.43-54.63,16.17-68.6,29.29c-2.56,2.41-3.96,5.8-3.83,9.31c0.12,3.51,1.76,6.79,4.48,9.01l11.48,9.34
						c4.68,3.81,11.35,3.64,15.86-0.41c8.74-7.87,22.98-17.3,41.15-17.55C754.38,352.99,754.63,352.99,754.88,352.99z"/>
				</g>
			</g>
			<g>
				<g>
					<path class="st10" d="M850.76,390.38c1.79-3.32,2.08-7.4,0.39-11.13c-7.9-17.47-19.67-32.52-34.56-44.04
						c-18.5-14.31-40.87-22.02-63.01-21.72c-32.18,0.44-55.81,17.08-68.94,29.43c-3.87,3.64-4.92,9.07-3.2,13.67
						c0.63-1.18,1.47-2.3,2.5-3.27c13.13-12.34,36.76-28.99,68.94-29.43c22.14-0.3,44.51,7.41,63.01,21.73
						c14.89,11.52,26.66,26.57,34.57,44.03C850.58,389.9,850.67,390.14,850.76,390.38z"/>
					<path d="M850.69,391.59l-0.39-1.02c-0.09-0.24-0.18-0.46-0.29-0.7c-7.84-17.33-19.75-32.49-34.42-43.84
						c-18.4-14.25-40.71-21.94-62.7-21.62c-31.39,0.43-54.63,16.17-68.6,29.29c-0.97,0.91-1.78,1.96-2.41,3.14l-0.52,0.98
						l-0.39-1.04c-1.86-4.98-0.55-10.56,3.33-14.21c14.09-13.25,37.54-29.13,69.28-29.56c22.26-0.33,44.74,7.45,63.32,21.82
						c14.8,11.45,26.81,26.74,34.71,44.23c1.69,3.73,1.54,7.95-0.41,11.57L850.69,391.59z M754.14,323.39
						c21.84,0,43.84,7.73,62.06,21.84c14.72,11.39,26.68,26.58,34.59,43.94c1.34-3.11,1.32-6.59-0.09-9.71
						c-7.84-17.33-19.74-32.5-34.41-43.85c-18.41-14.24-40.7-21.91-62.7-21.61c-31.41,0.43-54.65,16.17-68.6,29.29
						c-3.32,3.12-4.6,7.77-3.41,12.09c0.58-0.89,1.26-1.7,2.03-2.43c14.1-13.25,37.56-29.13,69.28-29.56
						C753.3,323.39,753.72,323.39,754.14,323.39z"/>
				</g>
			</g>
			<g>
				<g>
					<path d="M825.57,403.12c-5.35,0-10.45-3.06-12.87-8.11c-11.78-24.63-34.77-40.34-58.54-40.01
						c-17.55,0.24-31.35,9.4-39.84,17.03c-5.24,4.71-13,4.92-18.46,0.48l-11.48-9.34c-3.17-2.58-5.07-6.41-5.22-10.49
						c-0.15-4.09,1.48-8.04,4.46-10.84c14.22-13.37,37.9-29.39,69.94-29.83c22.49-0.31,45.19,7.52,63.95,22.04
						c14.94,11.56,27.04,26.98,35.01,44.6c1.65,3.65,1.66,7.85,0.03,11.52c-1.64,3.7-4.79,6.53-8.64,7.77l-14.07,4.52
						C828.43,402.9,826.99,403.12,825.57,403.12z M754.88,351.99c24.67,0,48.36,16.3,60.52,41.72c2.42,5.05,8.23,7.58,13.52,5.88
						l14.07-4.52c3.04-0.98,5.52-3.21,6.82-6.13c1.28-2.89,1.28-6.2-0.02-9.07c-7.76-17.17-19.56-32.2-34.11-43.47
						C797.45,322.3,775.36,314.7,753.6,315c-31.08,0.43-54.09,16.02-67.93,29.02c-2.35,2.21-3.63,5.32-3.52,8.55
						c0.12,3.22,1.62,6.24,4.12,8.27l11.48,9.34c4.3,3.5,10.42,3.34,14.55-0.38c8.87-7.98,23.33-17.55,41.81-17.8
						C754.37,351.99,754.62,351.99,754.88,351.99z"/>
				</g>
			</g>
		</g>
		<g>
			<g>
				<path class="st11" d="M828.73,441.64l43.96-14.75c6.26-2.1,9.66-8.94,7.56-15.19l-8.74-26.05c-2.1-6.26-8.94-9.66-15.19-7.56
					l-43.96,14.75c-6.26,2.1-9.66,8.94-7.56,15.19l8.74,26.05C815.63,440.33,822.47,443.73,828.73,441.64z"/>
				<path d="M824.93,442.76c-1.91,0-3.81-0.44-5.58-1.32c-3-1.49-5.23-4.05-6.29-7.2l-8.74-26.05c-2.19-6.53,1.34-13.63,7.88-15.83
					l43.96-14.75c6.53-2.19,13.63,1.34,15.83,7.88l8.74,26.05c1.06,3.15,0.82,6.54-0.67,9.54c-1.49,3-4.05,5.23-7.2,6.29
					l-43.96,14.75C827.59,442.54,826.26,442.76,824.93,442.76z M860.13,377.96c-1.21,0-2.44,0.19-3.65,0.6l-43.96,14.75
					c-6.01,2.02-9.26,8.55-7.25,14.56l8.74,26.05c0.97,2.9,3.03,5.25,5.79,6.63c2.76,1.37,5.87,1.59,8.77,0.62l0.16,0.47l-0.16-0.47
					l43.96-14.75c2.9-0.97,5.25-3.03,6.63-5.79s1.59-5.87,0.62-8.77l-8.74-26.05C869.43,381,864.94,377.96,860.13,377.96z"/>
			</g>
			<g class="st13">
				<path class="st11" d="M828.45,441.64l43.96-14.75c6.25-2.11,9.66-8.93,7.56-15.2l-0.32-0.96c-0.66-1.96-2.78-3.02-4.74-2.38
					l-51.8,16.95c-1.9,0.62-3.96-0.35-4.69-2.22l-6.83-17.63c-1.74-4.49-8.6-2.16-7.12,2.43c0.01,0.05,0.03,0.09,0.05,0.14
					l8.74,26.05C815.36,440.33,822.2,443.74,828.45,441.64z"/>
				<path d="M824.66,442.76c-1.91,0-3.81-0.44-5.58-1.32c-3-1.49-5.23-4.05-6.29-7.2L804,408.04c-0.86-2.65,0.75-4.56,2.61-5.22
					c1.96-0.7,4.47-0.08,5.45,2.46l6.83,17.63c0.63,1.62,2.41,2.47,4.07,1.93l51.8-16.95c2.22-0.73,4.63,0.48,5.37,2.7l0.32,0.96
					c2.19,6.53-1.35,13.63-7.88,15.83l-43.96,14.75C827.32,442.55,825.98,442.76,824.66,442.76z M805,407.87l8.74,26.05
					c0.97,2.9,3.03,5.25,5.78,6.62c2.76,1.37,5.88,1.59,8.77,0.62l43.96-14.75c6.01-2.02,9.26-8.56,7.25-14.57l-0.32-0.96
					c-0.57-1.69-2.41-2.62-4.12-2.07l-51.8,16.95c-2.16,0.71-4.49-0.4-5.31-2.51l-6.83-17.63c-0.79-2.03-2.72-2.4-4.19-1.88
					c-1.46,0.52-2.65,1.95-1.99,3.97l-0.43,0.29L805,407.87z"/>
			</g>
			<g>
				<path d="M824.19,444.01c-2.06,0-4.12-0.48-6.02-1.43c-3.24-1.61-5.65-4.37-6.79-7.78l-8.74-26.05
					c-2.37-7.06,1.45-14.73,8.51-17.09l43.96-14.75c3.4-1.14,7.06-0.88,10.3,0.73c3.24,1.61,5.65,4.37,6.79,7.78l8.74,26.05
					c2.37,7.06-1.45,14.73-8.51,17.09l-43.96,14.75C827.07,443.77,825.63,444.01,824.19,444.01z M859.39,379.21
					c-1.12,0-2.24,0.18-3.32,0.55L812.1,394.5c-5.49,1.84-8.46,7.8-6.62,13.29l8.74,26.05c0.89,2.65,2.76,4.79,5.28,6.05
					s5.36,1.46,8.01,0.57l43.96-14.75c5.49-1.84,8.46-7.8,6.62-13.29l-8.74-26.05c-0.89-2.65-2.76-4.79-5.28-6.05
					C862.59,379.58,860.99,379.21,859.39,379.21z"/>
			</g>
		</g>
	</g>
	<g>
		<g>
			<path class="st14" d="M683.3,184.44c-7.69,0-13.98,6.29-13.98,13.98v18.02h-80.39c-4.1,0-7.45,3.35-7.45,7.45v6.75
				c0,4.1,3.35,7.45,7.45,7.45h100.9c4.1,0,7.45-3.35,7.45-7.45v-6.53v-0.22v-25.47C697.28,190.73,690.99,184.44,683.3,184.44z"/>
			<path d="M689.82,238.59h-100.9c-4.38,0-7.95-3.57-7.95-7.95v-6.75c0-4.38,3.57-7.95,7.95-7.95h79.89v-17.52
				c0-7.98,6.5-14.48,14.48-14.48s14.48,6.5,14.48,14.48v32.22C697.78,235.02,694.21,238.59,689.82,238.59z M588.93,216.94
				c-3.83,0-6.95,3.12-6.95,6.95v6.75c0,3.83,3.12,6.95,6.95,6.95h100.9c3.83,0,6.95-3.12,6.95-6.95v-32.22
				c0-7.43-6.05-13.48-13.48-13.48s-13.48,6.05-13.48,13.48v18.52H588.93z"/>
		</g>
		<g>
			<path class="st14" d="M697.28,230.62v0.01c0,4.1-3.36,7.46-7.46,7.46h-100.9c-4.09,0-7.45-3.36-7.45-7.46v-0.01H697.28z"/>
		</g>
		<g>
			<path class="st14" d="M678.44,187.98v30.13c0,0.91-0.74,1.66-1.66,1.66h-88.37c-2.04,0-2.29-3.08-0.25-3.29
				c0.25-0.03,0.51-0.04,0.76-0.04h78.74c0.91,0,1.66-0.74,1.66-1.66v-16.37c0-4.98,2.65-9.38,6.6-11.86
				C677.02,185.87,678.44,186.69,678.44,187.98z"/>
		</g>
		<g>
			<path d="M683.3,184.44c7.69,0,13.98,6.29,13.98,13.98v25.47v0.22v6.53c0,4.1-3.35,7.45-7.45,7.45h-100.9
				c-4.1,0-7.45-3.35-7.45-7.45v-6.75c0-4.1,3.35-7.45,7.45-7.45h80.39v-18.02C669.32,190.73,675.61,184.44,683.3,184.44
				 M683.3,181.44c-9.36,0-16.98,7.62-16.98,16.98v15.02h-77.39c-5.76,0-10.45,4.69-10.45,10.45v6.75c0,5.76,4.69,10.45,10.45,10.45
				h100.9c5.76,0,10.45-4.69,10.45-10.45v-6.53v-0.22v-25.47C700.28,189.05,692.66,181.44,683.3,181.44L683.3,181.44z"/>
		</g>
	</g>
	<g>
		<g>
			<circle class="st15" cx="613.57" cy="268.56" r="13.15"/>
		</g>
		<g>
			<circle class="st2" cx="613.57" cy="268.56" r="5.69"/>
		</g>
		<g>
			<path class="st2" d="M623.65,249.02l-17.81,7.12c-1.1,0.44-2.37-0.1-2.81-1.2l-0.75-1.88c-0.44-1.1,0.1-2.37,1.2-2.81l17.81-7.12
				c1.1-0.44,2.37,0.1,2.81,1.2l0.75,1.88C625.3,247.32,624.75,248.58,623.65,249.02z"/>
		</g>
	</g>
	<g>
		<g>
			<circle class="st15" cx="652.3" cy="268.56" r="13.15"/>
		</g>
		<g>
			<circle class="st2" cx="652.3" cy="268.56" r="5.69"/>
		</g>
		<g>
			<path class="st2" d="M660.37,255.72l-18.17-6.16c-1.13-0.38-1.73-1.61-1.35-2.74l0.65-1.92c0.38-1.13,1.61-1.73,2.74-1.35
				l18.17,6.16c1.12,0.38,1.73,1.61,1.35,2.74l-0.65,1.92C662.73,255.5,661.49,256.1,660.37,255.72z"/>
		</g>
	</g>
	<g>
		<g>
			<g>
				<g>
					<path class="st10" d="M417.34,396.9c-7.18-2.33-10.78-10.4-7.65-17.27c7.95-17.44,19.78-32.45,34.7-43.92
						c18.54-14.25,40.94-21.9,63.08-21.52c32.17,0.54,55.75,17.26,68.84,29.65c5.58,5.27,5.23,14.25-0.74,19.07l-11.51,9.31
						c-4.87,3.94-11.86,3.72-16.5-0.48c-8.27-7.48-22.5-17.24-40.77-17.55c-24.63-0.42-48.09,15.87-60.05,40.67
						c-2.76,5.73-9.3,8.58-15.36,6.61L417.34,396.9z"/>
					<path d="M435.25,402.57c-1.34,0-2.69-0.21-4.01-0.64l-14.05-4.56c-3.58-1.16-6.5-3.8-8.01-7.25c-1.5-3.42-1.48-7.32,0.06-10.7
						c7.96-17.45,20.01-32.7,34.85-44.11c18.63-14.32,41.14-22,63.39-21.63c31.72,0.54,55.12,16.49,69.18,29.78
						c2.76,2.61,4.26,6.29,4.12,10.09c-0.15,3.8-1.93,7.35-4.88,9.74l-11.51,9.31c-5.08,4.11-12.29,3.9-17.15-0.5
						c-8.59-7.78-22.58-17.11-40.44-17.42c-24.19-0.43-47.56,15.45-59.59,40.39C444.94,399.75,440.21,402.57,435.25,402.57z
						 M417.49,396.42l14.05,4.56c5.76,1.87,12.1-0.86,14.75-6.35c12.2-25.29,35.96-41.37,60.51-40.96
						c18.17,0.31,32.38,9.78,41.1,17.68c4.49,4.07,11.16,4.26,15.85,0.46l11.51-9.31c2.73-2.21,4.38-5.49,4.51-9
						c0.14-3.51-1.25-6.91-3.8-9.32c-13.92-13.17-37.11-28.98-68.51-29.51c-22.02-0.37-44.32,7.23-62.77,21.42
						c-14.72,11.31-26.66,26.44-34.55,43.73c-1.43,3.12-1.45,6.73-0.06,9.88C411.49,392.91,414.19,395.35,417.49,396.42
						L417.49,396.42z"/>
				</g>
			</g>
			<g>
				<g>
					<path class="st10" d="M410.04,390.76c-1.78-3.32-2.06-7.4-0.36-11.13c7.96-17.44,19.77-32.45,34.7-43.93
						c18.54-14.25,40.94-21.89,63.08-21.52c32.18,0.54,55.75,17.26,68.85,29.65c3.86,3.65,4.89,9.09,3.16,13.68
						c-0.63-1.18-1.46-2.3-2.49-3.28c-13.09-12.38-36.67-29.11-68.85-29.65c-22.14-0.37-44.54,7.27-63.08,21.53
						c-14.93,11.47-26.75,26.49-34.7,43.92C410.23,390.28,410.14,390.51,410.04,390.76z"/>
					<path d="M410.12,391.96l-0.52-0.97c-1.94-3.62-2.07-7.84-0.37-11.57c7.96-17.46,20.02-32.71,34.85-44.12
						c18.63-14.32,41.15-22,63.39-21.62c31.73,0.54,55.14,16.49,69.18,29.78c3.87,3.66,5.16,9.24,3.28,14.22l-0.39,1.04l-0.52-0.98
						c-0.62-1.18-1.43-2.24-2.4-3.15c-13.93-13.17-37.12-28.98-68.51-29.51c-22.03-0.38-44.32,7.24-62.76,21.43
						c-14.71,11.3-26.66,26.42-34.55,43.73c-0.11,0.24-0.2,0.47-0.29,0.7L410.12,391.96z M505.92,314.67
						c-21.52,0-43.21,7.58-61.23,21.43c-14.71,11.3-26.66,26.43-34.55,43.74c-1.42,3.11-1.45,6.6-0.12,9.71
						c7.97-17.34,19.97-32.49,34.73-43.83c18.62-14.32,41.14-22,63.39-21.63c31.71,0.53,55.12,16.49,69.18,29.78
						c0.77,0.73,1.45,1.54,2.02,2.43c1.21-4.32-0.06-8.97-3.37-12.1c-13.92-13.17-37.1-28.98-68.51-29.51
						C506.95,314.67,506.44,314.67,505.92,314.67z"/>
				</g>
			</g>
			<g>
				<g>
					<path d="M435.25,403.57c-1.44,0-2.89-0.22-4.32-0.68l-14.05-4.56c-3.85-1.25-6.99-4.09-8.62-7.8
						c-1.62-3.68-1.59-7.88,0.07-11.52c8.02-17.59,20.18-32.98,35.15-44.49c18.81-14.46,41.56-22.21,64.02-21.83
						c32.04,0.54,55.67,16.64,69.85,30.06c2.97,2.81,4.59,6.77,4.43,10.85c-0.16,4.08-2.07,7.9-5.25,10.47l-11.51,9.31
						c-5.47,4.42-13.23,4.2-18.45-0.54c-8.47-7.66-22.24-16.86-39.79-17.16c-23.75-0.42-46.81,15.23-58.67,39.82
						C445.67,400.53,440.58,403.57,435.25,403.57z M417.8,395.47l14.05,4.56c5.28,1.72,11.11-0.79,13.54-5.84
						c12.37-25.64,36.48-41.93,61.42-41.52c18.48,0.31,32.91,9.93,41.75,17.93c4.12,3.73,10.24,3.91,14.55,0.43l11.51-9.31
						c2.51-2.03,4.02-5.04,4.14-8.26c0.12-3.22-1.15-6.34-3.49-8.56c-13.8-13.05-36.76-28.71-67.84-29.23
						c-21.82-0.38-43.87,7.16-62.14,21.21c-14.59,11.22-26.43,26.21-34.25,43.36c-1.31,2.87-1.33,6.17-0.05,9.07
						C412.29,392.24,414.77,394.49,417.8,395.47L417.8,395.47z"/>
				</g>
			</g>
		</g>
		<g>
			<g>
				<path class="st11" d="M431.92,442.08L388,427.2c-6.25-2.12-9.63-8.97-7.51-15.22l8.82-26.02c2.12-6.25,8.97-9.63,15.22-7.51
					l43.92,14.89c6.25,2.12,9.63,8.97,7.51,15.22l-8.82,26.02C445.02,440.82,438.17,444.2,431.92,442.08z"/>
				<path d="M435.76,443.22c-1.34,0-2.69-0.22-4-0.66l-43.92-14.89c-6.53-2.21-10.04-9.32-7.83-15.85l8.82-26.02
					c2.21-6.53,9.32-10.04,15.85-7.83l43.92,14.89c3.15,1.07,5.7,3.31,7.18,6.31c1.48,3,1.71,6.39,0.64,9.54l-8.82,26.02
					c-1.07,3.15-3.31,5.7-6.31,7.18C439.54,442.78,437.65,443.22,435.76,443.22z M432.08,441.61c2.9,0.98,6.01,0.77,8.78-0.59
					c2.76-1.36,4.82-3.71,5.81-6.61l8.82-26.02c0.98-2.9,0.77-6.01-0.59-8.78c-1.36-2.76-3.71-4.82-6.61-5.81l-43.92-14.89
					c-6.01-2.04-12.55,1.19-14.58,7.2l-8.82,26.02c-2.04,6.01,1.19,12.55,7.2,14.58L432.08,441.61z"/>
			</g>
			<g class="st13">
				<path class="st11" d="M432.19,442.09l-43.92-14.88c-6.25-2.13-9.63-8.97-7.51-15.22l0.32-0.96c0.67-1.96,2.79-3.02,4.75-2.37
					l51.74,17.12c1.9,0.63,3.96-0.34,4.69-2.21l6.88-17.61c1.75-4.48,8.61-2.13,7.11,2.45c-0.01,0.05-0.03,0.09-0.05,0.14
					l-8.82,26.02C445.29,440.82,438.44,444.2,432.19,442.09z"/>
				<path d="M436.03,443.22c-1.34,0-2.69-0.22-3.99-0.66l-43.92-14.88c-6.52-2.22-10.03-9.33-7.83-15.86l0.32-0.96
					c0.75-2.21,3.17-3.41,5.38-2.68l51.74,17.12c1.65,0.55,3.44-0.3,4.07-1.91l6.88-17.61c0.99-2.53,3.5-3.15,5.46-2.44
					c1.85,0.66,3.46,2.58,2.59,5.23l-0.05,0.14l-8.82,26.02c-1.07,3.15-3.31,5.7-6.31,7.18
					C439.81,442.78,437.92,443.22,436.03,443.22z M432.36,441.61c2.89,0.98,6.01,0.77,8.77-0.59s4.82-3.71,5.8-6.61l8.87-26.16
					c0.66-2.02-0.52-3.45-1.98-3.98c-1.46-0.52-3.4-0.16-4.19,1.87l-6.88,17.61c-0.83,2.11-3.16,3.21-5.32,2.5l-51.74-17.12
					c-1.7-0.56-3.55,0.36-4.12,2.05l-0.32,0.96c-2.03,6,1.2,12.55,7.2,14.59L432.36,441.61z"/>
			</g>
			<g>
				<path d="M436.49,444.47c-1.43,0-2.89-0.23-4.32-0.72l-43.92-14.89c-3.4-1.15-6.16-3.57-7.76-6.82s-1.85-6.9-0.69-10.3
					l8.82-26.02c2.39-7.05,10.07-10.84,17.12-8.45l43.92,14.89c3.4,1.15,6.16,3.57,7.76,6.82s1.85,6.9,0.69,10.3l-8.82,26.02
					C447.39,440.92,442.12,444.47,436.49,444.47z M401.43,379.56c-1.59,0-3.18,0.37-4.66,1.1c-2.52,1.25-4.41,3.39-5.3,6.03
					l-8.82,26.02c-0.9,2.64-0.7,5.49,0.54,8.01c1.25,2.52,3.39,4.41,6.03,5.3l43.92,14.89c5.49,1.86,11.46-1.09,13.32-6.57
					l8.82-26.02c0.9-2.64,0.7-5.49-0.54-8.01c-1.25-2.52-3.39-4.41-6.03-5.3l-43.92-14.89
					C403.68,379.74,402.55,379.56,401.43,379.56z"/>
			</g>
		</g>
	</g>
	<g>
		<g>
			<path class="st15" d="M655.74,295.12c-0.77,6.18-3.97,11.61-8.61,15.3c-0.16,0.14-0.33,0.27-0.5,0.39
				c-0.17,0.13-0.33,0.25-0.5,0.36c-2.51,1.8-5.38,3.1-8.49,3.78c-0.16,0.04-0.33,0.08-0.5,0.11c-0.17,0.03-0.33,0.06-0.5,0.09
				c-1.31,0.23-2.66,0.35-4.04,0.35c-1.52,0-3-0.14-4.44-0.42c-0.17-0.03-0.34-0.07-0.5-0.11c-0.17-0.03-0.34-0.07-0.5-0.11
				c-3.12-0.74-6-2.11-8.49-3.97c-0.17-0.12-0.34-0.25-0.5-0.39c-0.17-0.13-0.34-0.26-0.5-0.41c-4.42-3.68-7.46-8.97-8.21-14.97
				H655.74z"/>
		</g>
		<g>
			<path d="M654.79,295.53c-1.38,11.02-10.79,19.55-22.19,19.55c-11.41,0-20.82-8.53-22.2-19.55H654.79 M654.79,293.53H610.4
				c-0.57,0-1.12,0.25-1.5,0.68c-0.38,0.43-0.56,1-0.48,1.57c1.52,12.14,11.92,21.3,24.18,21.3c12.26,0,22.65-9.16,24.17-21.3
				c0.07-0.57-0.11-1.14-0.48-1.57C655.91,293.78,655.36,293.53,654.79,293.53L654.79,293.53z M654.79,297.53L654.79,297.53
				L654.79,297.53L654.79,297.53z"/>
		</g>
		<g>
			<g>
				<line class="st16" x1="627.66" y1="314.97" x2="627.66" y2="295.12"/>
			</g>
			<g>
				<path d="M628.16,295.12v19.96c-0.17-0.03-0.34-0.07-0.5-0.11c-0.17-0.03-0.34-0.07-0.5-0.11v-19.74H628.16z"/>
			</g>
		</g>
		<g>
			<g>
				<line class="st16" x1="637.14" y1="315.06" x2="637.14" y2="295.12"/>
			</g>
			<g>
				<path d="M637.64,295.12v19.83c-0.16,0.04-0.33,0.08-0.5,0.11c-0.17,0.03-0.33,0.06-0.5,0.09v-20.03H637.64z"/>
			</g>
		</g>
		<g>
			<g>
				<line class="st16" x1="646.63" y1="310.81" x2="646.63" y2="295.12"/>
			</g>
			<g>
				<path d="M647.13,295.12v15.3c-0.16,0.14-0.33,0.27-0.5,0.39c-0.17,0.13-0.33,0.25-0.5,0.36v-16.05H647.13z"/>
			</g>
		</g>
		<g>
			<g>
				<line class="st16" x1="618.17" y1="310.5" x2="618.17" y2="295.12"/>
			</g>
			<g>
				<path d="M618.67,295.12v15.77c-0.17-0.12-0.34-0.25-0.5-0.39c-0.17-0.13-0.34-0.26-0.5-0.41v-14.97H618.67z"/>
			</g>
		</g>
	</g>
	<g>
		<g>
			<path class="st17" d="M589.76,245.3l-9.29-15.8l-9.18,15.92l-2.99,5.19c-3.85,6.69-0.97,15.44,6.27,18.1
				c1.86,0.68,3.91,1.06,6.06,1.06c3.6,0,6.92-1.06,9.56-2.84c5-3.38,6.31-10.19,3.25-15.38L589.76,245.3z"/>
		</g>
		<g class="st18">
			<path class="st19" d="M595.08,257.62c-0.02,3.63-1.71,7.16-4.89,9.31c-2.64,1.79-5.96,2.85-9.56,2.85c-2.15,0-4.2-0.38-6.06-1.07
				c-7.25-2.65-10.12-11.41-6.27-18.1l2.99-5.19l9.18-15.92l0.12,0.21l-3.29,5.71l-2.99,5.19c-3.86,6.69-0.98,15.45,6.27,18.1
				c1.86,0.69,3.91,1.07,6.06,1.07C589.75,259.78,592.65,258.99,595.08,257.62z"/>
		</g>
	</g>
	<g>
		<g>
			<path class="st2" d="M838.68,307.83c-0.56,0-1.1-0.31-1.35-0.85c-2.84-5.93-14.04-25.88-38.68-33.58
				c-22.41-7-41.18,0.55-48.21,4.13c-0.74,0.38-1.64,0.08-2.02-0.66s-0.08-1.64,0.66-2.02c7.35-3.74,26.99-11.65,50.46-4.32
				c25.79,8.06,37.51,28.94,40.49,35.14c0.36,0.75,0.04,1.64-0.7,2C839.12,307.78,838.89,307.83,838.68,307.83z"/>
		</g>
		<g>
			<path class="st2" d="M819.24,312.73c-0.56,0-1.1-0.31-1.35-0.85c-1.87-3.89-9.22-16.99-25.38-22.04
				c-14.71-4.6-27.03,0.36-31.64,2.71c-0.74,0.38-1.64,0.08-2.02-0.66c-0.38-0.74-0.08-1.64,0.66-2.02
				c4.94-2.51,18.13-7.82,33.89-2.9c17.32,5.41,25.2,19.44,27.2,23.6c0.36,0.75,0.04,1.64-0.7,2
				C819.67,312.68,819.45,312.73,819.24,312.73z"/>
		</g>
	</g>
	<g>
		<g>
			<path class="st2" d="M805.79,626.12c-0.21,0-0.43-0.04-0.63-0.14c-0.75-0.35-1.08-1.24-0.73-1.99
				c2.77-5.97,11.05-27.29,1.33-51.2c-8.85-21.76-26.61-31.43-33.83-34.58c-0.76-0.33-1.11-1.21-0.78-1.97
				c0.33-0.76,1.21-1.11,1.97-0.78c7.56,3.3,26.15,13.43,35.41,36.2c10.18,25.03,1.51,47.35-1.39,53.6
				C806.9,625.8,806.36,626.12,805.79,626.12z"/>
		</g>
		<g>
			<path class="st2" d="M789.65,614.22c-0.21,0-0.43-0.04-0.63-0.14c-0.75-0.35-1.08-1.24-0.73-1.99
				c1.82-3.92,7.25-17.92,0.87-33.61c-5.8-14.28-17.46-20.63-22.21-22.7c-0.76-0.33-1.11-1.21-0.78-1.97
				c0.33-0.76,1.22-1.11,1.97-0.78c5.08,2.22,17.57,9.02,23.79,24.32c6.83,16.81,1.02,31.8-0.93,36
				C790.76,613.9,790.22,614.22,789.65,614.22z"/>
		</g>
	</g>
	<g>
		<g>
			<path class="st2" d="M430.41,604.05c-0.7,0-1.33-0.5-1.47-1.21c-1.59-8.1-3.82-29.15,9.64-49.72
				c14.8-22.6,38.09-28.17,44.88-29.33c0.81-0.14,1.59,0.41,1.73,1.22c0.14,0.82-0.41,1.59-1.22,1.73
				c-6.48,1.12-28.74,6.43-42.87,28.02c-12.86,19.65-10.73,39.76-9.21,47.5c0.16,0.81-0.37,1.6-1.18,1.76
				C430.6,604.04,430.51,604.05,430.41,604.05z"/>
		</g>
		<g>
			<path class="st2" d="M447.71,598.13c-0.7,0-1.33-0.5-1.47-1.21c-1.07-5.44-2.57-19.58,6.48-33.39
				c9.94-15.18,25.58-18.92,30.14-19.7c0.82-0.14,1.59,0.41,1.73,1.22c0.14,0.82-0.41,1.59-1.22,1.73
				c-4.25,0.73-18.86,4.22-28.14,18.39c-8.44,12.89-7.04,26.1-6.04,31.17c0.16,0.81-0.37,1.6-1.18,1.76
				C447.9,598.13,447.8,598.13,447.71,598.13z"/>
		</g>
	</g>
	<g>
		<g>
			<path class="st2" d="M420.85,316.89c-0.21,0-0.42-0.04-0.62-0.14c-0.75-0.34-1.09-1.23-0.74-1.99
				c3.43-7.51,13.87-25.93,36.79-34.8c25.19-9.75,47.37-0.72,53.56,2.28c0.75,0.36,1.06,1.26,0.7,2c-0.36,0.75-1.26,1.06-2,0.7
				c-5.92-2.87-27.11-11.5-51.17-2.19c-21.9,8.48-31.87,26.08-35.15,33.25C421.97,316.56,421.42,316.89,420.85,316.89z"/>
		</g>
		<g>
			<path class="st2" d="M438.36,322.15c-0.21,0-0.42-0.04-0.62-0.14c-0.75-0.34-1.09-1.23-0.74-1.99
				c2.3-5.04,9.31-17.41,24.71-23.38c16.93-6.55,31.82-0.48,35.98,1.53c0.75,0.36,1.06,1.26,0.7,2c-0.36,0.75-1.26,1.06-2,0.7
				c-3.88-1.88-17.79-7.55-33.59-1.43c-14.37,5.56-20.92,17.12-23.07,21.82C439.47,321.82,438.93,322.15,438.36,322.15z"/>
		</g>
	</g>
	<g>
		<g>
			<path class="st2" d="M723.83,203.08c-0.01,0-0.02,0-0.03,0c-0.83-0.02-1.49-0.7-1.47-1.53c0.07-3.49-0.45-15.63-10.28-25.18
				c-8.89-8.64-19.53-9.59-23.76-9.59c-0.02,0-0.06,0-0.07,0c-0.83,0-1.5-0.67-1.5-1.5c0-0.83,0.67-1.5,1.5-1.5
				c0.02,0,0.05,0,0.07,0c4.6,0,16.17,1.03,25.85,10.44c10.7,10.39,11.27,23.59,11.19,27.39
				C725.32,202.43,724.65,203.08,723.83,203.08z"/>
		</g>
		<g>
			<path class="st2" d="M713.24,200.69c-0.01,0-0.02,0-0.03,0c-0.83-0.02-1.49-0.7-1.47-1.53c0.05-2.27-0.29-10.15-6.67-16.35
				c-5.78-5.61-12.68-6.23-15.43-6.23c-0.02,0-0.04,0-0.05,0c-0.83,0-1.5-0.67-1.5-1.5c0-0.83,0.67-1.5,1.5-1.5
				c0.02,0,0.03,0,0.05,0c3.12,0,10.96,0.7,17.52,7.08c7.25,7.04,7.64,15.99,7.58,18.56C714.72,200.04,714.05,200.69,713.24,200.69z
				"/>
		</g>
	</g>
	<g>
		<g>
			<path class="st2" d="M552.03,222.08c-0.03,0-0.05,0-0.08,0c-0.83-0.04-1.46-0.75-1.42-1.57c0.23-4.55,1.83-16.12,11.78-25.34
				c10.94-10.14,24.15-10.01,27.94-9.74c0.83,0.06,1.45,0.78,1.39,1.61c-0.06,0.83-0.78,1.44-1.61,1.39
				c-3.49-0.26-15.63-0.37-25.68,8.95c-9.14,8.47-10.62,19.11-10.83,23.29C553.49,221.46,552.82,222.08,552.03,222.08z"/>
		</g>
		<g>
			<path class="st2" d="M561.89,221.24c-0.03,0-0.05,0-0.08,0c-0.83-0.04-1.46-0.75-1.42-1.57c0.15-3.08,1.24-10.93,7.99-17.18
				c7.41-6.87,16.36-6.79,18.94-6.6c0.83,0.06,1.45,0.78,1.39,1.61c-0.06,0.83-0.77,1.44-1.61,1.39
				c-2.26-0.17-10.15-0.24-16.68,5.81c-5.94,5.5-6.89,12.41-7.03,15.13C563.35,220.61,562.69,221.24,561.89,221.24z"/>
		</g>
	</g>
</g>
</svg>
