<?xml version="1.0" encoding="utf-8"?>
<!-- Generator: Adobe Illustrator 24.0.3, SVG Export Plug-In . SVG Version: 6.00 Build 0)  -->
<svg version="1.1" id="Layer_1" xmlns="http://www.w3.org/2000/svg" xmlns:xlink="http://www.w3.org/1999/xlink" x="0px" y="0px"
	 viewBox="0 0 1280 1024" style="enable-background:new 0 0 1280 1024;" xml:space="preserve">
<style type="text/css">
	.st0{fill:#A04902;}
	.st1{opacity:0.7;}
	.st2{fill:#232323;}
	.st3{fill:#7B27AD;}
	.st4{fill:#FFBDBD;}
	.st5{opacity:0.9;}
	.st6{fill:#14BDC1;}
	.st7{opacity:0.4;}
	.st8{opacity:0.3;}
	.st9{fill:#C1C1C1;}
	.st10{opacity:0.5;}
	.st11{fill:#F9F9F9;}
	.st12{fill:#231F20;}
	.st13{fill:#FFE91D;}
</style>
<g>
	<g>
		<g>
			<path class="st0" d="M1014.67,957.02v28.71c0,6.6-5.4,12-12,12H258.29c-6.6,0-12-5.4-12-12v-28.71c0-6.6,5.4-12,12-12h744.38
				C1009.27,945.02,1014.67,950.42,1014.67,957.02z"/>
		</g>
		<g>
			<path class="st0" d="M1014.67,957.02H246.29c0-6.6,5.4-12,12-12h744.38C1009.27,945.02,1014.67,950.42,1014.67,957.02z"/>
		</g>
		<g class="st1">
			<path class="st0" d="M1014.67,983.08v2.65c0,6.6-5.4,12-12,12H258.29c-6.6,0-12-5.4-12-12v-2.65H1014.67z"/>
		</g>
	</g>
	<g>
		<path class="st2" d="M1002.66,999.73H258.29c-7.72,0-14-6.28-14-14v-28.71c0-7.72,6.28-14,14-14h744.38c7.72,0,14,6.28,14,14
			v28.71C1016.66,993.45,1010.38,999.73,1002.66,999.73z M258.29,947.02c-5.51,0-10,4.49-10,10v28.71c0,5.51,4.49,10,10,10h744.38
			c5.51,0,10-4.49,10-10v-28.71c0-5.51-4.49-10-10-10H258.29z"/>
	</g>
</g>
<g>
	<g>
		<g>
			<g>
				<g>
					<path class="st3" d="M406.91,861.61c-7.18,2.33-10.78,10.4-7.65,17.27c7.95,17.44,19.78,32.45,34.7,43.92
						c18.54,14.25,40.94,21.9,63.08,21.52c32.17-0.54,55.75-17.26,68.84-29.65c5.58-5.27,5.23-14.25-0.74-19.07l-11.51-9.31
						c-4.87-3.94-11.86-3.72-16.5,0.48c-8.27,7.48-22.5,17.24-40.77,17.55c-24.63,0.42-48.09-15.87-60.05-40.67
						c-2.76-5.73-9.3-8.58-15.36-6.61L406.91,861.61z"/>
					<path d="M495.49,944.84c-21.74,0-43.63-7.65-61.83-21.64c-14.85-11.41-26.9-26.67-34.85-44.11c-1.54-3.38-1.57-7.29-0.06-10.7
						c1.52-3.44,4.44-6.09,8.01-7.25l0.15,0.48l-0.15-0.48l14.05-4.56c6.23-2.02,13.09,0.93,15.96,6.87
						c12.03,24.94,35.41,40.76,59.59,40.39c17.86-0.3,31.85-9.64,40.44-17.42c4.86-4.4,12.07-4.61,17.15-0.5l11.51,9.31
						c2.96,2.39,4.74,5.94,4.88,9.74c0.15,3.8-1.35,7.47-4.12,10.09c-14.05,13.29-37.46,29.25-69.18,29.78
						C496.54,944.84,496.01,944.84,495.49,944.84z M407.07,862.09c-3.31,1.07-6.01,3.52-7.41,6.7c-1.39,3.16-1.37,6.76,0.06,9.89
						c7.89,17.3,19.84,32.42,34.55,43.73c18.45,14.19,40.73,21.79,62.77,21.42c31.4-0.53,54.58-16.34,68.51-29.51
						c2.55-2.41,3.94-5.81,3.8-9.32c-0.14-3.51-1.78-6.79-4.51-9l-11.51-9.31c-4.69-3.8-11.36-3.6-15.85,0.46
						c-8.72,7.89-22.93,17.37-41.1,17.68c-24.56,0.37-48.31-15.66-60.51-40.96c-2.65-5.49-8.99-8.23-14.75-6.35L407.07,862.09z"/>
				</g>
			</g>
			<g>
				<g>
					<path class="st3" d="M399.62,867.75c-1.78,3.32-2.06,7.4-0.36,11.13c7.96,17.44,19.77,32.45,34.7,43.93
						c18.54,14.25,40.94,21.89,63.08,21.52c32.18-0.54,55.75-17.26,68.85-29.65c3.86-3.65,4.89-9.09,3.16-13.68
						c-0.63,1.18-1.46,2.3-2.49,3.28c-13.09,12.38-36.67,29.1-68.85,29.65c-22.14,0.37-44.54-7.27-63.08-21.53
						c-14.93-11.47-26.75-26.49-34.7-43.92C399.81,868.24,399.71,868,399.62,867.75z"/>
					<path d="M495.5,944.84c-21.74,0-43.65-7.65-61.84-21.64c-14.84-11.4-26.89-26.66-34.85-44.12c-1.7-3.73-1.56-7.95,0.37-11.57
						l0.51-0.96l0.39,1.02c0.09,0.24,0.18,0.46,0.29,0.7c7.9,17.31,19.85,32.43,34.56,43.73c18.44,14.19,40.73,21.81,62.76,21.42
						c31.39-0.53,54.58-16.34,68.51-29.51c0.97-0.91,1.77-1.97,2.4-3.15l0.52-0.98l0.39,1.04c1.88,4.98,0.59,10.56-3.28,14.22
						c-14.05,13.29-37.45,29.25-69.18,29.79C496.53,944.84,496.02,944.84,495.5,944.84z M399.59,868.96
						c-1.33,3.11-1.3,6.6,0.12,9.71c7.9,17.31,19.84,32.43,34.55,43.74c18.45,14.18,40.72,21.78,62.77,21.42
						c31.41-0.53,54.59-16.34,68.51-29.51c3.31-3.13,4.58-7.78,3.37-12.1c-0.57,0.89-1.25,1.7-2.02,2.43
						c-14.06,13.29-37.47,29.25-69.18,29.78c-22.26,0.38-44.77-7.31-63.39-21.63C419.56,901.46,407.56,886.3,399.59,868.96z"/>
				</g>
			</g>
			<g>
				<g>
					<path d="M495.49,945.84c-21.96,0-44.07-7.73-62.44-21.85c-14.97-11.51-27.13-26.9-35.15-44.49c-1.66-3.64-1.69-7.84-0.07-11.52
						c1.63-3.71,4.77-6.55,8.62-7.8l14.05-4.56c6.71-2.18,14.09,1,17.17,7.39c11.86,24.59,34.9,40.23,58.67,39.82
						c17.55-0.3,31.32-9.49,39.79-17.16c5.23-4.73,12.99-4.96,18.45-0.54l11.51,9.31c3.18,2.57,5.09,6.39,5.25,10.48
						s-1.46,8.04-4.43,10.85c-14.18,13.41-37.81,29.51-69.85,30.06C496.55,945.84,496.02,945.84,495.49,945.84z M424.83,857.94
						c-1.13,0-2.28,0.17-3.4,0.54l-14.05,4.56c-3.04,0.99-5.51,3.23-6.8,6.15c-1.27,2.9-1.26,6.2,0.05,9.07
						c7.82,17.15,19.67,32.14,34.25,43.36c18.27,14.05,40.34,21.59,62.14,21.21c31.08-0.53,54.04-16.19,67.84-29.24
						c2.34-2.22,3.62-5.33,3.49-8.56s-1.63-6.23-4.14-8.26l-11.51-9.31c-4.31-3.48-10.43-3.31-14.55,0.43
						c-8.85,8.01-23.27,17.62-41.75,17.93c-0.32,0-0.63,0.01-0.95,0.01c-24.61,0-48.27-16.21-60.48-41.53
						C433.06,860.34,429.03,857.94,424.83,857.94z"/>
				</g>
			</g>
		</g>
		<g>
			<g>
				<path class="st4" d="M421.49,816.43l-43.92,14.89c-6.25,2.12-9.63,8.97-7.51,15.22l8.82,26.02c2.12,6.25,8.97,9.63,15.22,7.51
					l43.92-14.89c6.25-2.12,9.63-8.97,7.51-15.22l-8.82-26.02C434.59,817.69,427.75,814.31,421.49,816.43z"/>
				<path d="M390.27,881.2c-1.9,0-3.79-0.44-5.54-1.31c-3-1.48-5.24-4.03-6.31-7.18l-8.82-26.02c-1.07-3.15-0.84-6.54,0.64-9.54
					c1.48-3,4.03-5.24,7.18-6.31l43.92-14.89c3.15-1.07,6.54-0.84,9.54,0.64c3,1.48,5.24,4.03,6.31,7.18L446,849.8
					c1.07,3.15,0.84,6.54-0.64,9.54c-1.48,3-4.03,5.24-7.18,6.31l-43.92,14.89C392.96,880.98,391.61,881.2,390.27,881.2z
					 M425.33,816.3c-1.24,0-2.47,0.2-3.68,0.61l-43.92,14.89c-2.9,0.98-5.24,3.04-6.61,5.81c-1.36,2.76-1.57,5.88-0.59,8.78
					l8.82,26.02c0.98,2.9,3.04,5.24,5.81,6.61c2.76,1.36,5.88,1.57,8.78,0.59l43.92-14.89c2.9-0.98,5.24-3.04,6.61-5.81
					c1.36-2.76,1.57-5.88,0.59-8.78l-8.82-26.02c-0.98-2.9-3.04-5.24-5.81-6.61C428.81,816.7,427.08,816.3,425.33,816.3z"/>
			</g>
			<g class="st5">
				<path class="st4" d="M421.77,816.42l-43.92,14.88c-6.25,2.13-9.63,8.97-7.51,15.22l0.32,0.96c0.67,1.96,2.79,3.02,4.75,2.37
					l51.74-17.12c1.9-0.63,3.96,0.34,4.69,2.21l6.88,17.61c1.75,4.48,8.61,2.13,7.11-2.45c-0.01-0.05-0.03-0.09-0.05-0.14
					l-8.82-26.02C434.87,817.69,428.02,814.31,421.77,816.42z"/>
				<path d="M442.17,855.44c-1.57,0-3.16-0.82-3.9-2.72l-6.88-17.61c-0.63-1.62-2.42-2.46-4.07-1.91l-51.74,17.12
					c-2.22,0.74-4.63-0.47-5.38-2.68l-0.32-0.96c-2.21-6.53,1.3-13.64,7.83-15.86l43.92-14.88c3.15-1.07,6.54-0.84,9.54,0.65
					c3,1.48,5.24,4.03,6.31,7.18l8.87,26.17c0.86,2.65-0.74,4.57-2.59,5.23C443.24,855.35,442.7,855.44,442.17,855.44z
					 M428.34,832.04c1.71,0,3.32,1.04,3.98,2.71l6.88,17.61c0.79,2.03,2.73,2.39,4.19,1.87c1.46-0.52,2.64-1.96,1.98-3.98
					l-0.04-0.13l-8.82-26.03c-0.98-2.9-3.04-5.24-5.8-6.61c-2.76-1.37-5.88-1.57-8.77-0.59l-43.92,14.88
					c-6,2.04-9.23,8.59-7.2,14.59l0.32,0.96c0.57,1.69,2.42,2.61,4.12,2.05L427,832.26C427.45,832.12,427.9,832.04,428.34,832.04z"
					/>
			</g>
			<g>
				<path d="M391,881.96c-2.05,0-4.09-0.47-5.98-1.41c-3.24-1.6-5.66-4.36-6.82-7.76l-8.82-26.02c-2.39-7.05,1.4-14.73,8.45-17.12
					l43.92-14.88c3.4-1.15,7.06-0.91,10.3,0.69c3.24,1.6,5.66,4.36,6.82,7.76l8.82,26.02c1.15,3.4,0.91,7.06-0.69,10.3
					c-1.6,3.24-4.36,5.66-7.76,6.82l-43.92,14.89C393.9,881.72,392.45,881.96,391,881.96z M426.06,817.05
					c-1.13,0-2.26,0.18-3.35,0.56l-43.92,14.88c-5.48,1.86-8.43,7.83-6.57,13.32l8.82,26.02c0.9,2.64,2.78,4.79,5.3,6.03
					c2.52,1.25,5.37,1.44,8.01,0.54l43.92-14.89c2.64-0.9,4.79-2.78,6.03-5.3s1.44-5.37,0.54-8.01l-8.82-26.02
					c-0.9-2.64-2.78-4.79-5.3-6.03C429.24,817.42,427.66,817.05,426.06,817.05z"/>
			</g>
		</g>
	</g>
	<g>
		<g>
			<g>
				<g>
					<path class="st3" d="M833.03,862.01c7.19,2.31,10.82,10.37,7.71,17.24c-7.9,17.46-19.68,32.51-34.56,44.03
						c-18.49,14.31-40.87,22.03-63.01,21.72c-32.18-0.44-55.8-17.08-68.94-29.43c-5.59-5.26-5.27-14.23,0.68-19.07l11.48-9.34
						c4.86-3.95,11.85-3.76,16.51,0.43c8.29,7.46,22.56,17.17,40.83,17.42c24.63,0.34,48.04-16.03,59.92-40.86
						c2.75-5.74,9.27-8.61,15.33-6.66L833.03,862.01z"/>
					<path d="M744.42,945.52c-0.42,0-0.85,0-1.27-0.01c-31.72-0.44-55.18-16.32-69.27-29.56c-2.77-2.6-4.28-6.27-4.15-10.07
						c0.13-3.8,1.9-7.35,4.85-9.75l11.48-9.34c5.07-4.12,12.28-3.94,17.16,0.45c8.62,7.75,22.64,17.04,40.5,17.29
						c24.14,0.34,47.51-15.59,59.46-40.58c2.85-5.95,9.7-8.93,15.94-6.92l14.07,4.52c3.58,1.15,6.51,3.78,8.04,7.22
						c1.51,3.41,1.5,7.31-0.03,10.7c-7.9,17.47-19.91,32.76-34.71,44.22C788.24,937.79,766.25,945.52,744.42,945.52z M694.37,884.81
						c-2.71,0-5.42,0.91-7.68,2.75l-11.48,9.34c-2.72,2.22-4.36,5.5-4.48,9.01c-0.12,3.51,1.27,6.9,3.83,9.31
						c13.97,13.12,37.2,28.86,68.6,29.29c21.98,0.3,44.29-7.37,62.7-21.62c14.68-11.36,26.58-26.52,34.41-43.84
						c1.42-3.13,1.42-6.73,0.03-9.88c-1.41-3.18-4.12-5.61-7.43-6.68l-14.07-4.52c-5.77-1.85-12.1,0.9-14.73,6.4
						c-11.99,25.07-35.33,41.15-59.62,41.15c-0.25,0-0.5,0-0.76,0c-18.17-0.25-32.41-9.68-41.15-17.54
						C700.21,885.87,697.29,884.81,694.37,884.81z"/>
				</g>
			</g>
			<g>
				<g>
					<path class="st3" d="M840.34,868.13c1.79,3.32,2.08,7.4,0.39,11.13c-7.9,17.47-19.67,32.52-34.56,44.04
						c-18.5,14.31-40.87,22.02-63.01,21.72c-32.18-0.44-55.81-17.08-68.94-29.43c-3.87-3.64-4.92-9.07-3.2-13.67
						c0.63,1.18,1.47,2.3,2.5,3.27c13.13,12.34,36.76,28.99,68.94,29.43c22.14,0.3,44.51-7.41,63.01-21.73
						c14.89-11.52,26.66-26.57,34.57-44.03C840.15,868.61,840.25,868.37,840.34,868.13z"/>
					<path d="M744.41,945.52c-0.42,0-0.83,0-1.25-0.01c-31.73-0.44-55.19-16.32-69.28-29.57c-3.88-3.65-5.19-9.22-3.33-14.21
						l0.39-1.04l0.52,0.98c0.63,1.18,1.44,2.23,2.4,3.14c13.97,13.13,37.21,28.86,68.61,29.29c22.04,0.34,44.3-7.38,62.7-21.62
						c14.67-11.35,26.57-26.51,34.42-43.84c0.11-0.24,0.2-0.47,0.29-0.7l0.39-1.02l0.52,0.96c1.95,3.62,2.1,7.84,0.41,11.57
						c-7.91,17.48-19.91,32.78-34.71,44.23C788.24,937.79,766.25,945.52,744.41,945.52z M671.15,903.13
						c-1.19,4.32,0.09,8.97,3.41,12.09c13.96,13.13,37.2,28.86,68.6,29.29c22.04,0.29,44.29-7.38,62.7-21.61
						c14.67-11.35,26.57-26.51,34.41-43.85c1.41-3.12,1.43-6.6,0.09-9.71c-7.91,17.37-19.87,32.56-34.59,43.95
						c-18.58,14.38-41.07,22.15-63.32,21.83c-31.71-0.43-55.18-16.32-69.28-29.56C672.41,904.83,671.73,904.01,671.15,903.13z"/>
				</g>
			</g>
			<g>
				<g>
					<path d="M744.42,946.52c-0.43,0-0.86,0-1.28-0.01c-32.04-0.44-55.72-16.47-69.94-29.83c-2.98-2.8-4.61-6.75-4.46-10.84
						c0.14-4.09,2.05-7.91,5.22-10.49l11.48-9.34c5.45-4.44,13.22-4.24,18.46,0.48c8.49,7.64,22.29,16.79,39.84,17.03
						c23.77,0.36,46.76-15.38,58.54-40.01c3.06-6.4,10.43-9.6,17.15-7.44l14.07,4.52c3.85,1.24,7,4.07,8.64,7.77
						c1.63,3.67,1.62,7.87-0.03,11.52c-7.97,17.62-20.08,33.04-35.01,44.6C788.68,938.72,766.48,946.52,744.42,946.52z
						 M694.37,885.81c-2.49,0-4.98,0.84-7.05,2.52l-11.48,9.34c-2.5,2.04-4,5.05-4.12,8.27c-0.11,3.22,1.17,6.34,3.52,8.54
						c13.84,13,36.85,28.59,67.93,29.02c21.8,0.29,43.85-7.3,62.07-21.41c14.55-11.26,26.35-26.29,34.11-43.46
						c1.3-2.87,1.31-6.17,0.02-9.07c-1.3-2.92-3.78-5.15-6.82-6.13l-14.07-4.52c-5.29-1.7-11.1,0.83-13.52,5.88
						c-12.16,25.42-35.85,41.72-60.52,41.72c-0.26,0-0.51,0-0.77,0c-18.48-0.25-32.94-9.82-41.81-17.8
						C699.73,886.78,697.05,885.81,694.37,885.81z"/>
				</g>
			</g>
		</g>
		<g>
			<g>
				<path class="st4" d="M818.3,816.88l43.96,14.75c6.26,2.1,9.66,8.94,7.56,15.19l-8.74,26.05c-2.1,6.26-8.94,9.66-15.19,7.56
					l-43.96-14.75c-6.26-2.1-9.66-8.94-7.56-15.19l8.74-26.05C805.21,818.18,812.04,814.78,818.3,816.88z"/>
				<path d="M849.7,881.55c-1.33,0-2.67-0.22-3.96-0.65l-43.96-14.75c-3.15-1.06-5.71-3.29-7.2-6.29c-1.49-3-1.73-6.38-0.67-9.54
					l8.74-26.05c1.06-3.15,3.29-5.71,6.29-7.2s6.39-1.73,9.54-0.67l43.96,14.75c6.53,2.19,10.07,9.29,7.88,15.83l-8.74,26.05
					c-1.06,3.15-3.29,5.71-6.29,7.2C853.51,881.1,851.61,881.55,849.7,881.55z M814.5,816.75c-1.76,0-3.51,0.41-5.13,1.22
					c-2.76,1.37-4.81,3.73-5.79,6.63l-8.74,26.05c-0.97,2.9-0.75,6.02,0.62,8.77s3.73,4.81,6.63,5.79l43.96,14.75
					c2.9,0.97,6.02,0.75,8.77-0.62c2.76-1.37,4.81-3.73,5.79-6.63l8.74-26.05c2.02-6.01-1.23-12.54-7.25-14.56l-43.96-14.75
					C816.95,816.95,815.72,816.75,814.5,816.75z"/>
			</g>
			<g class="st5">
				<path class="st4" d="M818.03,816.87l43.96,14.75c6.25,2.11,9.66,8.93,7.56,15.2l-0.32,0.96c-0.66,1.96-2.78,3.02-4.74,2.38
					l-51.8-16.95c-1.9-0.62-3.96,0.35-4.69,2.22l-6.83,17.63c-1.74,4.49-8.6,2.16-7.12-2.43c0.01-0.05,0.03-0.09,0.05-0.14
					l8.74-26.05C804.93,818.18,811.77,814.77,818.03,816.87z"/>
				<path d="M797.73,855.96c-0.53,0-1.05-0.09-1.54-0.27c-1.86-0.66-3.47-2.57-2.61-5.22l0.05-0.14l8.74-26.05
					c1.06-3.15,3.29-5.71,6.29-7.2c3-1.5,6.38-1.73,9.54-0.68l43.96,14.75c6.53,2.2,10.06,9.3,7.88,15.83l-0.32,0.96
					c-0.74,2.21-3.15,3.42-5.37,2.7l-51.8-16.95c-1.65-0.54-3.44,0.3-4.06,1.92l-6.83,17.63
					C800.9,855.13,799.31,855.96,797.73,855.96z M794.05,850.62l0.48,0.15c-0.65,2.02,0.53,3.45,1.99,3.97
					c1.46,0.52,3.4,0.15,4.19-1.88l6.83-17.63c0.82-2.12,3.15-3.22,5.31-2.51l51.8,16.95c1.7,0.56,3.54-0.37,4.12-2.06l0.32-0.96
					c2.01-6.01-1.24-12.54-7.25-14.57l-43.96-14.75c-2.9-0.97-6.01-0.75-8.77,0.62c-2.76,1.37-4.81,3.73-5.78,6.62l-8.74,26.05
					L794.05,850.62z"/>
			</g>
			<g>
				<path d="M848.97,882.3c-1.42,0-2.86-0.23-4.28-0.7l-43.96-14.75c-3.41-1.14-6.17-3.55-7.78-6.79c-1.61-3.24-1.87-6.9-0.73-10.3
					l8.74-26.05c2.37-7.06,10.04-10.88,17.09-8.51l43.96,14.75c3.41,1.14,6.17,3.55,7.78,6.79c1.61,3.24,1.87,6.9,0.73,10.3
					l-8.74,26.05C859.89,878.73,854.61,882.3,848.97,882.3z M813.76,817.51c-4.39,0-8.49,2.78-9.96,7.16l-8.74,26.05
					c-0.89,2.65-0.69,5.49,0.57,8.01s3.4,4.4,6.05,5.28l43.96,14.75c5.49,1.84,11.45-1.13,13.29-6.62l8.74-26.05
					c0.89-2.65,0.69-5.49-0.57-8.01s-3.4-4.4-6.05-5.28l-43.96-14.75C815.99,817.68,814.86,817.51,813.76,817.51z"/>
			</g>
		</g>
	</g>
	<g>
		<g>
			<g>
				<path class="st6" d="M491.12,848.67c0.85,1.78,1.97,3.51,3.44,5.15c3.46,3.87,7.24,7.48,10.85,11.21
					c11.99,12.38,23.99,24.77,35.98,37.15c6.53,6.75,13.07,13.5,19.6,20.24c4.59,4.74,12.23,4.86,16.97,0.27l31.48-30.48
					c4.74-4.59,4.86-12.23,0.27-16.97l-52.83-54.55l0.87-75.28c0.08-6.6-5.26-12.06-11.86-12.14l-43.82-0.5
					c-6.6-0.08-12.06,5.26-12.14,11.86c-0.3,25.94-0.6,51.88-0.89,77.82C488.94,831.54,487.33,840.72,491.12,848.67z"/>
				<path d="M569.62,926.57c-0.07,0-0.14,0-0.21,0c-3.35-0.05-6.47-1.4-8.78-3.79l-55.58-57.4c-1.2-1.24-2.42-2.46-3.64-3.69
					c-2.42-2.43-4.91-4.94-7.23-7.53c-1.44-1.61-2.62-3.38-3.52-5.27c-3.01-6.32-2.67-13.52-2.33-20.47
					c0.09-1.96,0.19-3.98,0.21-5.96l0.89-77.82c0.08-6.84,5.67-12.36,12.5-12.36c0.05,0,0.1,0,0.15,0l43.81,0.5
					c6.89,0.08,12.43,5.75,12.36,12.64l-0.86,75.08l52.68,54.41c2.31,2.39,3.56,5.55,3.5,8.9c-0.05,3.35-1.4,6.47-3.79,8.78
					l-31.48,30.48C575.97,925.33,572.89,926.57,569.62,926.57z M501.94,733.28c-6.28,0-11.43,5.07-11.5,11.37l-0.89,77.82
					c-0.02,2-0.12,4.03-0.21,6c-0.34,7.15-0.66,13.9,2.24,20c0.87,1.83,1.97,3.48,3.36,5.03c2.3,2.57,4.78,5.07,7.19,7.49
					c1.22,1.23,2.45,2.46,3.65,3.7l55.58,57.4c2.13,2.2,5,3.43,8.08,3.48c0.06,0,0.13,0,0.19,0c3.01,0,5.84-1.14,7.99-3.22
					l31.48-30.48c2.2-2.13,3.43-5,3.48-8.08c0.05-3.08-1.09-5.99-3.22-8.19l-52.97-54.7l0.87-75.49
					c0.07-6.34-5.03-11.56-11.37-11.63l-43.81-0.5C502.03,733.28,501.98,733.28,501.94,733.28z"/>
			</g>
			<g class="st7">
				<path class="st6" d="M489.05,822.46c0.3-25.94,0.6-51.88,0.9-77.83c0.08-6.6,5.53-11.93,12.13-11.86l7.11,0.08l-0.08,108.15
					l78.76,72.11l-9.91,9.59c-4.74,4.59-12.38,4.46-16.97-0.27c-6.54-6.75-13.07-13.51-19.6-20.25l-35.98-37.15
					c-3.6-3.73-7.4-7.34-10.85-11.21c-1.47-1.64-2.6-3.37-3.45-5.15C487.34,840.71,488.94,831.54,489.05,822.46z"/>
			</g>
			<g class="st8">
				<path class="st6" d="M582.13,864.01l-31.48,30.48c-4.74,4.59-4.86,12.23-0.27,16.97L561,922.43c4.59,4.74,12.23,4.86,16.97,0.27
					l31.48-30.48c4.74-4.59,4.86-12.23,0.27-16.97l-10.62-10.97C594.51,859.54,586.87,859.42,582.13,864.01z"/>
			</g>
			<g>
				<path d="M569.62,928.07c-0.08,0-0.16,0-0.23,0c-3.75-0.06-7.24-1.57-9.83-4.24l-55.58-57.4c-1.19-1.23-2.41-2.46-3.62-3.68
					c-2.43-2.44-4.94-4.97-7.28-7.59c-1.53-1.71-2.79-3.61-3.76-5.62c-3.17-6.66-2.82-14.05-2.48-21.19
					c0.09-1.94,0.19-3.95,0.21-5.91l0.89-77.82c0.09-7.66,6.35-13.84,14-13.84c0.05,0,0.11,0,0.16,0l43.81,0.5
					c7.72,0.09,13.93,6.44,13.84,14.16l-0.86,74.46l52.25,53.96c2.59,2.68,3.99,6.22,3.93,9.96c-0.06,3.75-1.57,7.24-4.24,9.83
					l-31.48,30.48C576.73,926.68,573.29,928.07,569.62,928.07z M501.94,734.78c-5.46,0-9.94,4.41-10,9.88l-0.89,77.82
					c-0.02,2.03-0.12,4.07-0.22,6.05c-0.33,6.96-0.65,13.53,2.09,19.28v0c0.81,1.7,1.83,3.23,3.13,4.68
					c2.27,2.54,4.74,5.03,7.14,7.43c1.23,1.24,2.46,2.47,3.66,3.71l55.58,57.4c1.85,1.91,4.34,2.99,7.02,3.03
					c2.69,0.02,5.21-0.95,7.12-2.8l31.48-30.48c1.91-1.85,2.98-4.34,3.03-7.02c0.04-2.68-0.95-5.21-2.8-7.12l-53.4-55.14l0.87-76.11
					c0.06-5.51-4.37-10.05-9.88-10.11l-43.81-0.5C502.02,734.78,501.98,734.78,501.94,734.78z"/>
			</g>
		</g>
		<g>
			<g>
				<path class="st9" d="M456.91,726.48l89.36,1.03c6.6,0.08,11.94,5.54,11.86,12.14l-0.35,30.19c-0.08,6.6-5.54,11.94-12.14,11.86
					l-89.36-1.03c-6.6-0.08-11.94-5.54-11.86-12.14l0.35-30.19C444.85,731.75,450.31,726.41,456.91,726.48z"/>
				<path d="M545.79,782.2c-0.05,0-0.1,0-0.15,0l-89.36-1.03c-6.89-0.08-12.43-5.75-12.36-12.64l0.35-30.19
					c0.08-6.84,5.67-12.36,12.5-12.36c0.05,0,0.1,0,0.15,0l89.36,1.03c3.33,0.04,6.45,1.38,8.79,3.77c2.34,2.39,3.61,5.54,3.57,8.87
					l-0.35,30.19c-0.04,3.33-1.38,6.45-3.77,8.79C552.15,780.93,549.06,782.2,545.79,782.2z M456.77,726.98
					c-6.28,0-11.42,5.07-11.5,11.37l-0.35,30.19c-0.07,6.34,5.03,11.56,11.37,11.63l89.36,1.03c0.04,0,0.09,0,0.13,0
					c3.01,0,5.85-1.16,8.02-3.29c2.2-2.15,3.44-5.02,3.47-8.08l0.35-30.19c0.07-6.34-5.03-11.56-11.37-11.63l-89.36-1.03
					C456.86,726.98,456.81,726.98,456.77,726.98z"/>
			</g>
			<g>
				<path class="st9" d="M444.65,737.32c1-5.67,6.02-9.98,11.96-9.92l89.37,1.03c5.77,0.06,10.57,4.25,11.63,9.7L444.65,737.32z"/>
			</g>
			<g class="st1">
				<path class="st9" d="M444.66,767.64l0.01-1.18l113.35,2.17l0,0.31c-0.07,6.59-5.53,11.93-12.13,11.86l-89.36-1.02
					C449.92,779.7,444.58,774.24,444.66,767.64z"/>
			</g>
			<g>
				<path d="M545.79,783.2c-0.05,0-0.11,0-0.16,0l-89.36-1.03c-7.44-0.09-13.43-6.21-13.34-13.66l0.35-30.19
					c0.09-7.39,6.13-13.34,13.5-13.34c0.05,0,0.11,0,0.16,0l89.36,1.03c3.59,0.04,6.96,1.49,9.49,4.07s3.9,5.99,3.85,9.58
					l-0.35,30.19c-0.04,3.59-1.49,6.96-4.07,9.49C552.67,781.83,549.32,783.2,545.79,783.2z M456.77,727.98
					c-5.73,0-10.43,4.63-10.5,10.38l-0.35,30.19c-0.07,5.79,4.59,10.55,10.38,10.62l89.36,1.03c2.81,0.08,5.44-1.03,7.45-3
					s3.14-4.59,3.17-7.38l0.35-30.19c0.03-2.79-1.03-5.44-3-7.45s-4.59-3.14-7.38-3.17l-89.36-1.03
					C456.85,727.98,456.81,727.98,456.77,727.98z"/>
			</g>
		</g>
	</g>
	<g>
		<g>
			<g>
				<path class="st6" d="M760.87,848.67c-0.85,1.78-1.97,3.51-3.44,5.15c-3.46,3.87-7.24,7.48-10.85,11.21
					c-11.99,12.38-23.99,24.77-35.98,37.15c-6.53,6.75-13.07,13.5-19.6,20.24c-4.59,4.74-12.23,4.86-16.97,0.27l-31.48-30.48
					c-4.74-4.59-4.86-12.23-0.27-16.97l52.83-54.55l-0.87-75.28c-0.08-6.6,5.26-12.06,11.86-12.14l43.82-0.5
					c6.6-0.08,12.06,5.26,12.14,11.86c0.3,25.94,0.6,51.88,0.89,77.82C763.05,831.54,764.66,840.72,760.87,848.67z"/>
				<path d="M682.37,926.57c-3.27,0-6.35-1.24-8.69-3.51l-31.48-30.48c-2.39-2.31-3.73-5.43-3.79-8.78c-0.05-3.35,1.19-6.51,3.5-8.9
					l52.68-54.41l-0.86-75.08c-0.08-6.89,5.46-12.56,12.36-12.64l43.81-0.5c0.05,0,0.1,0,0.14,0c6.83,0,12.42,5.51,12.5,12.36
					l0.89,77.82c0.02,1.98,0.12,4,0.21,5.96c0.33,6.96,0.68,14.15-2.33,20.47l-0.45-0.21l0.45,0.21c-0.9,1.89-2.08,3.66-3.52,5.27
					c-2.31,2.59-4.81,5.1-7.22,7.52c-1.22,1.23-2.44,2.46-3.64,3.7l-55.58,57.4c-2.31,2.39-5.43,3.73-8.78,3.79
					C682.51,926.57,682.44,926.57,682.37,926.57z M750.06,733.28c-0.04,0-0.09,0-0.13,0l-43.81,0.5
					c-6.34,0.07-11.44,5.29-11.37,11.63l0.87,75.49l-0.14,0.15l-52.83,54.55c-2.13,2.2-3.27,5.1-3.22,8.19
					c0.05,3.08,1.29,5.95,3.48,8.08l31.48,30.48c2.2,2.13,5.07,3.31,8.19,3.22c3.08-0.05,5.95-1.29,8.08-3.48l55.58-57.4
					c1.2-1.24,2.43-2.47,3.65-3.71c2.4-2.42,4.89-4.92,7.18-7.48c1.39-1.56,2.49-3.2,3.36-5.03c2.9-6.09,2.58-12.85,2.24-20
					c-0.09-1.96-0.19-4-0.21-6l-0.89-77.82C761.48,738.35,756.34,733.28,750.06,733.28z"/>
			</g>
			<g class="st7">
				<path class="st6" d="M762.95,822.46c-0.3-25.94-0.6-51.88-0.9-77.83c-0.08-6.6-5.53-11.93-12.13-11.86l-7.11,0.08l0.08,108.15
					l-78.76,72.11l9.91,9.59c4.74,4.59,12.38,4.46,16.97-0.27c6.54-6.75,13.07-13.51,19.6-20.25l35.98-37.15
					c3.6-3.73,7.4-7.34,10.85-11.21c1.47-1.64,2.6-3.37,3.45-5.15C764.66,840.71,763.05,831.54,762.95,822.46z"/>
			</g>
			<g class="st8">
				<path class="st6" d="M669.87,864.01l31.48,30.48c4.74,4.59,4.86,12.23,0.27,16.97L691,922.43c-4.59,4.74-12.23,4.86-16.97,0.27
					l-31.48-30.48c-4.74-4.59-4.86-12.23-0.27-16.97l10.62-10.97C657.49,859.54,665.13,859.42,669.87,864.01z"/>
			</g>
			<g>
				<path d="M682.37,928.07c-3.66,0-7.11-1.39-9.73-3.93l-31.48-30.48c-2.68-2.59-4.18-6.08-4.24-9.83
					c-0.06-3.75,1.33-7.29,3.93-9.96l52.25-53.96l-0.85-74.46c-0.09-7.72,6.12-14.07,13.84-14.16l43.81-0.5c0.05,0,0.11,0,0.16,0
					c7.65,0,13.91,6.17,14,13.84l0.89,77.82c0.02,1.96,0.12,3.96,0.21,5.91c0.34,7.14,0.69,14.53-2.48,21.19l0,0
					c-0.96,2.02-2.23,3.91-3.76,5.62c-2.34,2.62-4.85,5.14-7.28,7.58c-1.22,1.22-2.43,2.45-3.63,3.68l-55.58,57.4
					c-2.59,2.68-6.08,4.18-9.83,4.24C682.53,928.07,682.45,928.07,682.37,928.07z M750.06,734.78c-0.04,0-0.08,0-0.12,0l-43.81,0.5
					c-5.51,0.06-9.95,4.6-9.88,10.11l0.87,76.11l-53.4,55.14c-1.85,1.91-2.84,4.44-2.8,7.12c0.04,2.68,1.12,5.17,3.03,7.02
					l31.48,30.48c1.91,1.85,4.44,2.85,7.12,2.8c2.68-0.04,5.17-1.12,7.02-3.03l55.58-57.4c1.21-1.25,2.44-2.48,3.67-3.72
					c2.39-2.4,4.86-4.89,7.13-7.43c1.29-1.45,2.32-2.98,3.13-4.68v0c2.74-5.75,2.43-12.32,2.09-19.28
					c-0.09-1.98-0.19-4.02-0.22-6.05l-0.89-77.82C759.99,739.19,755.52,734.78,750.06,734.78z"/>
			</g>
		</g>
		<g>
			<g>
				<path class="st9" d="M795.09,726.48l-89.36,1.03c-6.6,0.08-11.94,5.54-11.86,12.14l0.35,30.19c0.08,6.6,5.54,11.94,12.14,11.86
					l89.36-1.03c6.6-0.08,11.94-5.54,11.86-12.14l-0.35-30.19C807.15,731.75,801.69,726.41,795.09,726.48z"/>
				<path d="M706.21,782.2c-3.27,0-6.36-1.26-8.72-3.57c-2.39-2.34-3.73-5.46-3.77-8.79l-0.35-30.19
					c-0.08-6.89,5.46-12.56,12.36-12.64l89.37-1.03c3.31-0.08,6.48,1.23,8.87,3.57c2.39,2.34,3.73,5.46,3.77,8.79l0.35,30.19
					c0.08,6.89-5.46,12.56-12.36,12.64l-89.37,1.03C706.3,782.2,706.25,782.2,706.21,782.2z M795.09,726.98l-89.37,1.03
					c-6.34,0.07-11.44,5.29-11.37,11.63l0.35,30.19c0.04,3.06,1.27,5.93,3.47,8.08c2.17,2.12,5.02,3.29,8.03,3.29
					c0.04,0,0.09,0,0.13,0l89.37-1.03c6.34-0.07,11.44-5.29,11.37-11.63l-0.35-30.19c-0.04-3.06-1.27-5.93-3.47-8.08
					C801.05,728.12,798.17,726.93,795.09,726.98L795.09,726.98z"/>
			</g>
			<g>
				<path class="st9" d="M807.35,737.32c-1-5.67-6.02-9.98-11.96-9.92l-89.37,1.03c-5.77,0.06-10.57,4.25-11.63,9.7L807.35,737.32z"
					/>
			</g>
			<g class="st1">
				<path class="st9" d="M807.34,767.64l-0.01-1.18l-113.35,2.17l0,0.31c0.07,6.59,5.53,11.93,12.13,11.86l89.36-1.02
					C802.07,779.7,807.41,774.24,807.34,767.64z"/>
			</g>
			<g>
				<path d="M706.21,783.2c-3.53,0-6.87-1.37-9.42-3.86c-2.59-2.53-4.03-5.9-4.07-9.49l-0.35-30.19
					c-0.08-7.44,5.9-13.57,13.34-13.66l89.37-1.03c3.58-0.07,7,1.33,9.58,3.85c2.59,2.53,4.03,5.9,4.07,9.49l0.35,30.19
					c0.08,7.44-5.9,13.57-13.34,13.66l-89.37,1.03C706.31,783.2,706.26,783.2,706.21,783.2z M795.11,727.98l-89.37,1.03
					c-5.79,0.07-10.45,4.83-10.38,10.62l0.35,30.19c0.03,2.79,1.16,5.41,3.17,7.38s4.68,3.04,7.45,3l89.37-1.03
					c5.79-0.07,10.45-4.83,10.38-10.62l-0.35-30.19c-0.03-2.79-1.16-5.41-3.17-7.38c-1.98-1.94-4.58-3-7.33-3
					C795.19,727.98,795.15,727.98,795.11,727.98L795.11,727.98z"/>
			</g>
		</g>
	</g>
	<g>
		<g>
			<path class="st6" d="M693.79,887.07H563.51c-6.6,0-12,5.4-12,12v33.96c0,6.6,5.4,12,12,12h130.29c6.6,0,12-5.4,12-12v-33.96
				C705.79,892.47,700.39,887.07,693.79,887.07z"/>
			<path d="M693.79,945.52H563.51c-6.89,0-12.5-5.61-12.5-12.5v-33.96c0-6.89,5.61-12.5,12.5-12.5h130.29
				c6.89,0,12.5,5.61,12.5,12.5v33.96C706.29,939.91,700.69,945.52,693.79,945.52z M563.51,887.57c-6.34,0-11.5,5.16-11.5,11.5
				v33.96c0,6.34,5.16,11.5,11.5,11.5h130.29c6.34,0,11.5-5.16,11.5-11.5v-33.96c0-6.34-5.16-11.5-11.5-11.5H563.51z"/>
		</g>
		<g class="st10">
			<path class="st6" d="M705.79,933.02v-9.39H551.51v9.39c0,6.6,5.4,12,12,12h130.28C700.39,945.02,705.79,939.62,705.79,933.02z"/>
		</g>
		<g>
			<path d="M693.79,947.02H563.51c-7.72,0-14-6.28-14-14v-33.96c0-7.72,6.28-14,14-14h130.29c7.72,0,14,6.28,14,14v33.96
				C707.79,940.74,701.51,947.02,693.79,947.02z M563.51,889.07c-5.51,0-10,4.49-10,10v33.96c0,5.51,4.49,10,10,10h130.29
				c5.51,0,10-4.49,10-10v-33.96c0-5.51-4.49-10-10-10H563.51z"/>
		</g>
		<g class="st10">
			<path class="st6" d="M705.77,897.76c-0.27-6.35-5.56-11.46-11.98-11.46H563.51c-6.42,0-11.71,5.11-11.98,11.46H705.77z"/>
		</g>
	</g>
</g>
<g>
	<path class="st11" d="M631.59,626.21c-70.03,0-135.99-16.9-185.71-47.57c-50.85-31.38-78.85-73.47-78.85-118.54
		c0-45.07,28-87.16,78.85-118.54c49.72-30.68,115.67-47.57,185.71-47.57s135.99,16.9,185.71,47.57
		c50.85,31.38,78.85,73.47,78.85,118.54c0,45.07-28,87.16-78.85,118.54C767.58,609.32,701.63,626.21,631.59,626.21z"/>
	<path d="M631.59,301.49c141.97,0,257.06,71.01,257.06,158.61S773.56,618.71,631.59,618.71S374.54,547.7,374.54,460.1
		S489.62,301.49,631.59,301.49 M631.59,286.49c-71.41,0-138.76,17.29-189.64,48.69c-25.4,15.67-45.45,34.08-59.59,54.7
		c-15.15,22.1-22.83,45.72-22.83,70.22s7.68,48.12,22.83,70.22c14.14,20.62,34.19,39.03,59.59,54.7
		c50.89,31.4,118.24,48.69,189.64,48.69s138.76-17.29,189.64-48.69c25.4-15.67,45.45-34.08,59.59-54.7
		c15.15-22.1,22.83-45.72,22.83-70.22s-7.68-48.12-22.83-70.22c-14.14-20.62-34.19-39.03-59.59-54.7
		C770.35,303.78,703,286.49,631.59,286.49L631.59,286.49z"/>
</g>
<g>
	<g>
		<g>
			<path d="M488.62,516.81c-2.49,0-4.5-2.01-4.5-4.5v-46.62c0-0.08,0-0.17,0.01-0.25l2.24-40.4c0.07-1.28,0.67-2.41,1.58-3.18
				c-2.01-0.45-3.51-2.25-3.51-4.39v-16.92c0-2.49,2.01-4.5,4.5-4.5h16.92c2.49,0,4.5,2.01,4.5,4.5v16.92c0,2.14-1.5,3.94-3.51,4.39
				c0.91,0.77,1.51,1.9,1.58,3.18l2.24,40.4c0,0.08,0.01,0.17,0.01,0.25v46.62c0,2.49-2.01,4.5-4.5,4.5H488.62z"/>
			<path class="st12" d="M505.86,400.54v16.92h-16.92v-16.92H505.86 M503.95,425.29l2.24,40.4v46.62h-17.56v-46.62l2.24-40.4H503.95
				 M505.86,391.54h-16.92c-4.97,0-9,4.03-9,9v16.92c0,2.22,0.81,4.26,2.14,5.83c-0.11,0.49-0.18,0.99-0.21,1.5l-2.24,40.4
				c-0.01,0.17-0.01,0.33-0.01,0.5v46.62c0,4.97,4.03,9,9,9h17.56c4.97,0,9-4.03,9-9v-46.62c0-0.17,0-0.33-0.01-0.5l-2.24-40.4
				c-0.03-0.51-0.1-1.01-0.21-1.5c1.33-1.57,2.14-3.6,2.14-5.83v-16.92C514.86,395.57,510.83,391.54,505.86,391.54L505.86,391.54z"
				/>
		</g>
		<g>
			<path d="M518.95,516.81c-2.49,0-4.5-2.01-4.5-4.5V400.54c0-2.49,2.01-4.5,4.5-4.5h25.87c10.1,0,17.85,2.85,23.03,8.48
				c5.08,5.52,7.66,13.48,7.66,23.64v14.53c0,10.17-2.58,18.13-7.66,23.64c-5.18,5.62-12.92,8.48-23.03,8.48h-3.8v37.49
				c0,2.49-2.01,4.5-4.5,4.5H518.95z M544.82,449.85c1.52,0,2.6-0.31,3.2-0.92c0.01-0.01,0.92-0.97,0.92-5.12v-16.76
				c0-4.15-0.91-5.11-0.92-5.12c-0.61-0.6-1.68-0.91-3.2-0.91h-3.8v28.84H544.82z"/>
			<path class="st12" d="M544.82,400.54c8.83,0,15.41,2.34,19.72,7.03c4.31,4.69,6.47,11.55,6.47,20.6v14.53
				c0,9.05-2.16,15.91-6.47,20.6c-4.31,4.69-10.88,7.03-19.72,7.03h-8.3v41.99h-17.56V400.54H544.82 M536.51,454.35h8.3
				c2.77,0,4.9-0.74,6.39-2.24c1.49-1.49,2.24-4.26,2.24-8.3v-16.76c0-4.04-0.75-6.81-2.24-8.3c-1.49-1.49-3.62-2.23-6.39-2.23h-8.3
				V454.35 M544.82,391.54h-25.87c-4.97,0-9,4.03-9,9v111.77c0,4.97,4.03,9,9,9h17.56c4.97,0,9-4.03,9-9v-33
				c11.08-0.13,19.7-3.47,25.64-9.93c5.87-6.37,8.84-15.35,8.84-26.69v-14.53c0-11.33-2.98-20.31-8.84-26.69
				C565.09,394.89,556.23,391.54,544.82,391.54L544.82,391.54z"/>
		</g>
		<g>
			<path d="M579.15,516.81c-2.49,0-4.5-2.01-4.5-4.5V400.54c0-2.49,2.01-4.5,4.5-4.5h17.56c2.49,0,4.5,2.01,4.5,4.5v91.3h24.4
				c2.49,0,4.5,2.01,4.5,4.5v15.97c0,2.49-2.01,4.5-4.5,4.5H579.15z"/>
			<path class="st12" d="M596.71,400.54v95.8h28.9v15.97h-46.46V400.54H596.71 M596.71,391.54h-17.56c-4.97,0-9,4.03-9,9v111.77
				c0,4.97,4.03,9,9,9h46.46c4.97,0,9-4.03,9-9v-15.97c0-4.97-4.03-9-9-9h-19.9v-86.8C605.71,395.57,601.68,391.54,596.71,391.54
				L596.71,391.54z"/>
		</g>
		<g>
			<path d="M658.82,518.09c-9.87,0-17.63-2.92-23.07-8.67c-5.37-5.68-8.09-13.73-8.09-23.93v-58.12c0-10.19,2.72-18.24,8.09-23.93
				c5.44-5.76,13.2-8.67,23.07-8.67c9.87,0,17.63,2.92,23.07,8.67c5.37,5.69,8.09,13.74,8.09,23.93v58.12
				c0,10.19-2.72,18.24-8.09,23.93C676.45,515.17,668.68,518.09,658.82,518.09z M658.82,419.73c-2.05,0-2.95,0.66-3.45,1.16
				c-0.27,0.27-1.16,1.46-1.16,5.36v60.35c0,3.9,0.88,5.09,1.16,5.36c0.5,0.5,1.39,1.16,3.45,1.16c2.05,0,2.95-0.66,3.44-1.16
				c0.27-0.27,1.16-1.46,1.16-5.36v-60.35c0-3.9-0.89-5.09-1.16-5.36C661.76,420.4,660.86,419.73,658.82,419.73z"/>
			<path class="st12" d="M658.82,399.27c8.62,0,15.22,2.42,19.8,7.27c4.57,4.84,6.87,11.79,6.87,20.84v58.12
				c0,9.05-2.29,15.99-6.87,20.84c-4.58,4.84-11.18,7.26-19.8,7.26c-8.62,0-15.22-2.42-19.8-7.26c-4.58-4.84-6.87-11.79-6.87-20.84
				v-58.12c0-9.05,2.29-15.99,6.87-20.84C643.59,401.69,650.19,399.27,658.82,399.27 M658.82,497.62c2.77,0,4.97-0.82,6.62-2.48
				c1.65-1.65,2.48-4.5,2.48-8.54v-60.35c0-4.04-0.83-6.89-2.48-8.54c-1.65-1.65-3.86-2.47-6.62-2.47c-2.77,0-4.98,0.83-6.63,2.47
				c-1.65,1.65-2.47,4.5-2.47,8.54v60.35c0,4.05,0.82,6.89,2.47,8.54C653.84,496.8,656.05,497.62,658.82,497.62 M658.82,390.27
				c-11.16,0-20.02,3.39-26.34,10.08c-6.19,6.55-9.32,15.64-9.32,27.02v58.12c0,11.38,3.14,20.47,9.33,27.02
				c6.32,6.69,15.18,10.08,26.34,10.08c11.16,0,20.02-3.39,26.34-10.08c6.19-6.55,9.32-15.64,9.32-27.02v-58.12
				c0-11.37-3.14-20.46-9.32-27.01C678.83,393.66,669.97,390.27,658.82,390.27L658.82,390.27z M658.82,488.43
				c-0.06-0.44-0.1-1.03-0.1-1.82v-60.35c0-0.79,0.05-1.39,0.1-1.82c0.06,0.43,0.1,1.03,0.1,1.82v60.35
				C658.92,487.39,658.87,487.99,658.82,488.43L658.82,488.43z"/>
		</g>
		<g>
			<path d="M696.81,516.81c-2.49,0-4.5-2.01-4.5-4.5V400.54c0-2.49,2.01-4.5,4.5-4.5h25.87c10.1,0,17.85,2.85,23.03,8.48
				c5.08,5.52,7.66,13.48,7.66,23.64v14.53c0,10.17-2.58,18.13-7.66,23.64c-5.17,5.62-12.92,8.48-23.03,8.48h-3.8v37.49
				c0,2.49-2.01,4.5-4.5,4.5H696.81z M722.68,449.85c1.52,0,2.6-0.31,3.21-0.92c0.01-0.01,0.92-0.96,0.92-5.12v-16.76
				c0-4.15-0.91-5.11-0.92-5.12c-0.6-0.6-1.68-0.91-3.2-0.91h-3.8v28.84H722.68z"/>
			<path class="st12" d="M722.68,400.54c8.83,0,15.41,2.34,19.72,7.03c4.31,4.69,6.47,11.55,6.47,20.6v14.53
				c0,9.05-2.16,15.91-6.47,20.6c-4.31,4.69-10.88,7.03-19.72,7.03h-8.3v41.99h-17.56V400.54H722.68 M714.38,454.35h8.3
				c2.77,0,4.89-0.74,6.39-2.24c1.49-1.49,2.24-4.26,2.24-8.3v-16.76c0-4.04-0.75-6.81-2.24-8.3c-1.49-1.49-3.62-2.23-6.39-2.23
				h-8.3V454.35 M722.68,391.54h-25.87c-4.97,0-9,4.03-9,9v111.77c0,4.97,4.03,9,9,9h17.56c4.97,0,9-4.03,9-9v-33
				c11.08-0.13,19.71-3.47,25.65-9.93c5.87-6.37,8.84-15.35,8.84-26.69v-14.53c0-11.33-2.98-20.31-8.84-26.69
				C742.95,394.89,734.09,391.54,722.68,391.54L722.68,391.54z"/>
		</g>
		<g>
			<path d="M757.33,516.81c-2.49,0-4.5-2.01-4.5-4.5v-16.92c0-2.14,1.5-3.94,3.51-4.39c-0.91-0.77-1.51-1.9-1.58-3.19l-2.24-40.4
				c0-0.08-0.01-0.17-0.01-0.25v-46.62c0-2.49,2.01-4.5,4.5-4.5h17.56c2.49,0,4.5,2.01,4.5,4.5v46.62c0,0.08,0,0.17-0.01,0.25
				l-2.24,40.4c-0.07,1.28-0.67,2.41-1.58,3.19c2.01,0.45,3.51,2.25,3.51,4.39v16.92c0,2.49-2.01,4.5-4.5,4.5H757.33z"/>
			<path class="st12" d="M774.57,400.54v46.62l-2.24,40.4h-13.09l-2.24-40.4v-46.62H774.57 M774.25,495.39v16.92h-16.92v-16.92
				H774.25 M774.57,391.54h-17.56c-4.97,0-9,4.03-9,9v46.62c0,0.17,0,0.33,0.01,0.5l2.24,40.4c0.03,0.51,0.1,1.01,0.21,1.5
				c-1.33,1.57-2.14,3.6-2.14,5.83v16.92c0,4.97,4.03,9,9,9h16.92c4.97,0,9-4.03,9-9v-16.92c0-2.22-0.81-4.26-2.14-5.83
				c0.11-0.49,0.18-0.99,0.21-1.5l2.24-40.4c0.01-0.17,0.01-0.33,0.01-0.5v-46.62C783.57,395.57,779.54,391.54,774.57,391.54
				L774.57,391.54z"/>
		</g>
	</g>
</g>
<g>
	<g>
		<path class="st13" d="M488.62,514.81c-1.38,0-2.5-1.12-2.5-2.5v-46.62c0-0.05,0-0.09,0-0.14l2.24-40.4
			c0.07-1.33,1.17-2.36,2.5-2.36h13.09c1.33,0,2.42,1.04,2.5,2.36l2.24,40.4c0,0.05,0,0.09,0,0.14v46.62c0,1.38-1.12,2.5-2.5,2.5
			H488.62z M488.94,419.97c-1.38,0-2.5-1.12-2.5-2.5v-16.92c0-1.38,1.12-2.5,2.5-2.5h16.92c1.38,0,2.5,1.12,2.5,2.5v16.92
			c0,1.38-1.12,2.5-2.5,2.5H488.94z"/>
		<path class="st12" d="M505.86,400.54v16.92h-16.92v-16.92H505.86 M503.95,425.29l2.24,40.4v46.62h-17.56v-46.62l2.24-40.4H503.95
			 M505.86,395.54h-16.92c-2.76,0-5,2.24-5,5v16.92c0,2.08,1.27,3.86,3.08,4.62c-0.67,0.8-1.09,1.81-1.16,2.93l-2.24,40.4
			c-0.01,0.09-0.01,0.18-0.01,0.28v46.62c0,2.76,2.24,5,5,5h17.56c2.76,0,5-2.24,5-5v-46.62c0-0.09,0-0.18-0.01-0.28l-2.24-40.4
			c-0.06-1.12-0.49-2.13-1.16-2.93c1.81-0.75,3.08-2.54,3.08-4.62v-16.92C510.86,397.78,508.62,395.54,505.86,395.54L505.86,395.54z
			"/>
	</g>
	<g>
		<path class="st13" d="M518.95,514.81c-1.38,0-2.5-1.12-2.5-2.5V400.54c0-1.38,1.12-2.5,2.5-2.5h25.87
			c9.52,0,16.77,2.64,21.56,7.83c4.73,5.14,7.13,12.64,7.13,22.29v14.53c0,9.65-2.4,17.15-7.13,22.29
			c-4.78,5.2-12.03,7.83-21.56,7.83h-5.8v39.49c0,1.38-1.12,2.5-2.5,2.5H518.95z M544.82,451.85c2.1,0,3.61-0.49,4.62-1.5
			c0.56-0.56,1.5-2.16,1.5-6.54v-16.76c0-4.38-0.94-5.97-1.5-6.54c-1.01-1.01-2.52-1.5-4.62-1.5h-5.8v32.84H544.82z"/>
		<path class="st12" d="M544.82,400.54c8.83,0,15.41,2.34,19.72,7.03c4.31,4.69,6.47,11.55,6.47,20.6v14.53
			c0,9.05-2.16,15.91-6.47,20.6c-4.31,4.69-10.88,7.03-19.72,7.03h-8.3v41.99h-17.56V400.54H544.82 M536.51,454.35h8.3
			c2.77,0,4.9-0.74,6.39-2.24c1.49-1.49,2.24-4.26,2.24-8.3v-16.76c0-4.04-0.75-6.81-2.24-8.3c-1.49-1.49-3.62-2.23-6.39-2.23h-8.3
			V454.35 M544.82,395.54h-25.87c-2.76,0-5,2.24-5,5v111.77c0,2.76,2.24,5,5,5h17.56c2.76,0,5-2.24,5-5v-36.99h3.3
			c10.25,0,18.12-2.91,23.4-8.64c5.17-5.61,7.79-13.68,7.79-23.98v-14.53c0-10.3-2.62-18.37-7.79-23.98
			C562.94,398.45,555.06,395.54,544.82,395.54L544.82,395.54z M541.51,421.51h3.3c1.38,0,2.34,0.26,2.85,0.77l0,0
			c0,0,0.77,0.95,0.77,4.76v16.76c0,3.82-0.77,4.77-0.78,4.78c-0.5,0.5-1.46,0.76-2.84,0.76h-3.3V421.51L541.51,421.51z"/>
	</g>
	<g>
		<path class="st13" d="M579.15,514.81c-1.38,0-2.5-1.12-2.5-2.5V400.54c0-1.38,1.12-2.5,2.5-2.5h17.56c1.38,0,2.5,1.12,2.5,2.5
			v93.3h26.4c1.38,0,2.5,1.12,2.5,2.5v15.97c0,1.38-1.12,2.5-2.5,2.5H579.15z"/>
		<path class="st12" d="M596.71,400.54v95.8h28.9v15.97h-46.46V400.54H596.71 M596.71,395.54h-17.56c-2.76,0-5,2.24-5,5v111.77
			c0,2.76,2.24,5,5,5h46.46c2.76,0,5-2.24,5-5v-15.97c0-2.76-2.24-5-5-5h-23.9v-90.8C601.71,397.78,599.47,395.54,596.71,395.54
			L596.71,395.54z"/>
	</g>
	<g>
		<path class="st13" d="M658.82,516.09c-9.3,0-16.57-2.71-21.62-8.05c-5.01-5.3-7.55-12.89-7.55-22.55v-58.12
			c0-9.66,2.54-17.25,7.55-22.55c5.05-5.34,12.32-8.05,21.62-8.05c9.29,0,16.57,2.71,21.62,8.05c5.01,5.31,7.55,12.89,7.55,22.55
			v58.12c0,9.66-2.54,17.25-7.55,22.55C675.38,513.38,668.11,516.09,658.82,516.09z M658.82,417.73c-2.1,0-3.69,0.57-4.86,1.74
			c-1.14,1.14-1.74,3.48-1.74,6.77v60.35c0,3.29,0.6,5.64,1.74,6.77c1.17,1.17,2.76,1.74,4.86,1.74c2.1,0,3.69-0.57,4.86-1.74
			c1.14-1.14,1.75-3.48,1.75-6.77v-60.35c0-3.29-0.6-5.63-1.75-6.77C662.5,418.3,660.91,417.73,658.82,417.73z"/>
		<path class="st12" d="M658.82,399.27c8.62,0,15.22,2.42,19.8,7.27c4.57,4.84,6.87,11.79,6.87,20.84v58.12
			c0,9.05-2.29,15.99-6.87,20.84c-4.58,4.84-11.18,7.26-19.8,7.26c-8.62,0-15.22-2.42-19.8-7.26c-4.58-4.84-6.87-11.79-6.87-20.84
			v-58.12c0-9.05,2.29-15.99,6.87-20.84C643.59,401.69,650.19,399.27,658.82,399.27 M658.82,497.62c2.77,0,4.97-0.82,6.62-2.48
			c1.65-1.65,2.48-4.5,2.48-8.54v-60.35c0-4.04-0.83-6.89-2.48-8.54c-1.65-1.65-3.86-2.47-6.62-2.47c-2.77,0-4.98,0.83-6.63,2.47
			c-1.65,1.65-2.47,4.5-2.47,8.54v60.35c0,4.05,0.82,6.89,2.47,8.54C653.84,496.8,656.05,497.62,658.82,497.62 M658.82,394.27
			c-10.01,0-17.9,2.97-23.43,8.83c-5.46,5.78-8.23,13.95-8.23,24.27v58.12c0,10.33,2.77,18.49,8.23,24.27
			c5.53,5.86,13.42,8.83,23.43,8.83c10.01,0,17.9-2.97,23.43-8.83c5.46-5.78,8.23-13.95,8.23-24.27v-58.12
			c0-10.32-2.77-18.48-8.23-24.27C676.71,397.24,668.82,394.27,658.82,394.27L658.82,394.27z M658.82,492.62
			c-1.87,0-2.66-0.58-3.09-1.01c-0.11-0.11-1.01-1.12-1.01-5.01v-60.35c0-3.88,0.91-4.9,1.01-5.01c0.43-0.43,1.23-1.01,3.09-1.01
			c1.86,0,2.66,0.58,3.09,1.01c0.1,0.1,1.01,1.12,1.01,5v60.35c0,3.88-0.91,4.9-1.01,5C661.47,492.04,660.68,492.62,658.82,492.62
			L658.82,492.62z"/>
	</g>
	<g>
		<path class="st13" d="M696.81,514.81c-1.38,0-2.5-1.12-2.5-2.5V400.54c0-1.38,1.12-2.5,2.5-2.5h25.87
			c9.52,0,16.77,2.64,21.56,7.83c4.73,5.14,7.13,12.64,7.13,22.29v14.53c0,9.65-2.4,17.15-7.13,22.29
			c-4.78,5.2-12.03,7.83-21.56,7.83h-5.8v39.49c0,1.38-1.12,2.5-2.5,2.5H696.81z M722.68,451.85c2.1,0,3.61-0.49,4.62-1.5
			c0.56-0.56,1.5-2.16,1.5-6.53v-16.76c0-4.38-0.94-5.97-1.5-6.54c-1.01-1.01-2.52-1.5-4.62-1.5h-5.8v32.84H722.68z"/>
		<path class="st12" d="M722.68,400.54c8.83,0,15.41,2.34,19.72,7.03c4.31,4.69,6.47,11.55,6.47,20.6v14.53
			c0,9.05-2.16,15.91-6.47,20.6c-4.31,4.69-10.88,7.03-19.72,7.03h-8.3v41.99h-17.56V400.54H722.68 M714.38,454.35h8.3
			c2.77,0,4.89-0.74,6.39-2.24c1.49-1.49,2.24-4.26,2.24-8.3v-16.76c0-4.04-0.75-6.81-2.24-8.3c-1.49-1.49-3.62-2.23-6.39-2.23h-8.3
			V454.35 M722.68,395.54h-25.87c-2.76,0-5,2.24-5,5v111.77c0,2.76,2.24,5,5,5h17.56c2.76,0,5-2.24,5-5v-36.99h3.3
			c10.25,0,18.12-2.91,23.4-8.64c5.17-5.61,7.79-13.68,7.79-23.98v-14.53c0-10.3-2.62-18.37-7.79-23.98
			C740.8,398.45,732.93,395.54,722.68,395.54L722.68,395.54z M719.38,421.51h3.3c1.38,0,2.34,0.26,2.85,0.77l0,0
			c0,0,0.77,0.95,0.77,4.76v16.76c0,3.82-0.77,4.77-0.78,4.78c-0.5,0.5-1.46,0.76-2.84,0.76h-3.3V421.51L719.38,421.51z"/>
	</g>
	<g>
		<path class="st13" d="M757.33,514.81c-1.38,0-2.5-1.12-2.5-2.5v-16.92c0-1.38,1.12-2.5,2.5-2.5h16.92c1.38,0,2.5,1.12,2.5,2.5
			v16.92c0,1.38-1.12,2.5-2.5,2.5H757.33z M759.24,490.06c-1.33,0-2.42-1.04-2.5-2.36l-2.24-40.4c0-0.05,0-0.09,0-0.14v-46.62
			c0-1.38,1.12-2.5,2.5-2.5h17.56c1.38,0,2.5,1.12,2.5,2.5v46.62c0,0.05,0,0.09,0,0.14l-2.24,40.4c-0.07,1.32-1.17,2.36-2.5,2.36
			H759.24z"/>
		<path class="st12" d="M774.57,400.54v46.62l-2.24,40.4h-13.09l-2.24-40.4v-46.62H774.57 M774.25,495.39v16.92h-16.92v-16.92
			H774.25 M774.57,395.54h-17.56c-2.76,0-5,2.24-5,5v46.62c0,0.09,0,0.18,0.01,0.28l2.24,40.4c0.06,1.12,0.49,2.13,1.16,2.93
			c-1.81,0.75-3.08,2.54-3.08,4.62v16.92c0,2.76,2.24,5,5,5h16.92c2.76,0,5-2.24,5-5v-16.92c0-2.08-1.27-3.86-3.08-4.62
			c0.67-0.8,1.09-1.81,1.16-2.93l2.24-40.4c0.01-0.09,0.01-0.18,0.01-0.28v-46.62C779.57,397.78,777.33,395.54,774.57,395.54
			L774.57,395.54z"/>
	</g>
</g>
<g>
	<g>
		<path class="st13" d="M438.34,690.48c-0.65,0-1.3-0.25-1.78-0.75L322.3,573.32c-0.48-0.49-0.74-1.16-0.71-1.85
			c0.03-0.69,0.34-1.34,0.86-1.79l15.11-13.11c0.46-0.4,1.04-0.61,1.64-0.61c0.08,0,0.17,0,0.25,0.01c0.69,0.07,1.31,0.42,1.73,0.97
			l99.15,129.52c0.8,1.05,0.65,2.54-0.35,3.41C439.51,690.28,438.93,690.48,438.34,690.48z"/>
		<g>
			<path class="st12" d="M339.19,558.46l99.15,129.52L324.08,571.57L339.19,558.46 M339.19,553.46c-1.2,0-2.36,0.43-3.28,1.22
				l-15.11,13.11c-1.04,0.9-1.66,2.2-1.72,3.58c-0.06,1.38,0.46,2.72,1.43,3.7l114.26,116.42c0.98,0.99,2.27,1.5,3.57,1.5
				c1.16,0,2.33-0.4,3.28-1.22c2-1.73,2.3-4.72,0.69-6.82l-99.15-129.52c-0.84-1.1-2.09-1.8-3.46-1.94
				C339.53,553.47,339.36,553.46,339.19,553.46L339.19,553.46z"/>
		</g>
	</g>
	<g>
		<g>
			<path class="st13" d="M436.42,729.91c-0.45,0-0.9-0.12-1.3-0.37l-139.16-85.11c-0.59-0.36-1-0.95-1.14-1.62
				c-0.14-0.67,0-1.38,0.4-1.94l11.46-16.39c0.4-0.57,1.01-0.94,1.69-1.04c0.12-0.02,0.24-0.03,0.36-0.03
				c0.56,0,1.11,0.19,1.56,0.54l127.7,101.5c1.03,0.82,1.25,2.31,0.49,3.39C437.99,729.53,437.21,729.91,436.42,729.91z"/>
			<path class="st12" d="M308.72,625.91l127.7,101.5L297.26,642.3L308.72,625.91 M308.72,620.91c-0.24,0-0.48,0.02-0.72,0.05
				c-1.36,0.2-2.59,0.95-3.38,2.08l-11.46,16.39c-0.79,1.13-1.08,2.54-0.8,3.89c0.28,1.35,1.11,2.52,2.29,3.24l139.16,85.11
				c0.81,0.5,1.71,0.73,2.6,0.73c1.58,0,3.13-0.75,4.1-2.14c1.51-2.17,1.08-5.14-0.99-6.78L311.84,622
				C310.95,621.29,309.85,620.91,308.72,620.91L308.72,620.91z"/>
		</g>
		<g>
			<path class="st13" d="M306.71,963.16c-0.25,0-0.5-0.04-0.74-0.11c-0.67-0.21-1.22-0.69-1.52-1.33l-8.51-18.1
				c-0.3-0.64-0.32-1.37-0.05-2.02c0.27-0.65,0.8-1.16,1.46-1.39l101.96-36.87c0.28-0.1,0.57-0.15,0.85-0.15
				c0.94,0,1.84,0.54,2.26,1.44c0.55,1.17,0.12,2.56-1,3.22l-93.46,54.97C307.58,963.04,307.15,963.16,306.71,963.16z"/>
			<path class="st12" d="M400.16,905.69L400.16,905.69 M400.16,905.69l-93.46,54.97l-8.51-18.1L400.16,905.69 M400.16,900.69
				c-0.25,0-0.51,0.02-0.77,0.06c-0.36,0.06-0.71,0.15-1.04,0.28L296.5,937.85c-1.32,0.48-2.38,1.49-2.92,2.79
				c-0.54,1.3-0.5,2.77,0.1,4.04l8.51,18.1c0.6,1.27,1.7,2.23,3.05,2.65c0.48,0.15,0.98,0.22,1.48,0.22c0.88,0,1.76-0.23,2.54-0.69
				l93.36-54.91c0.37-0.21,0.71-0.46,1.01-0.75c0,0,0,0,0,0c0,0,0,0,0,0c0,0,0,0,0,0l0,0c0.03-0.03,0.06-0.06,0.09-0.09c0,0,0,0,0,0
				c0,0,0,0,0,0c0,0,0,0,0,0c0,0,0,0,0,0c0.89-0.9,1.44-2.14,1.44-3.51c0-2.61-2-4.75-4.55-4.98
				C400.47,900.69,400.31,900.69,400.16,900.69L400.16,900.69z M400.16,910.69L400.16,910.69L400.16,910.69L400.16,910.69z"/>
		</g>
		<g>
			<path class="st13" d="M270.28,933.6c-0.45,0-0.9-0.12-1.3-0.36c-0.6-0.37-1.02-0.97-1.16-1.66l-3.85-19.63
				c-0.14-0.69,0.03-1.41,0.44-1.97c0.42-0.56,1.06-0.93,1.76-1l107.87-10.94c0.09-0.01,0.17-0.01,0.25-0.01
				c1.18,0,2.22,0.84,2.45,2.02c0.25,1.27-0.51,2.51-1.75,2.88L270.99,933.5C270.76,933.56,270.52,933.6,270.28,933.6z"/>
			<path class="st12" d="M374.31,900.53L374.31,900.53 M374.31,900.53L270.28,931.1l-3.85-19.63L374.31,900.53 M374.31,895.53
				c-0.08,0-0.16,0-0.25,0.01c-0.11,0.01-0.22,0.01-0.33,0.03l-107.81,10.94c-1.4,0.14-2.67,0.87-3.51,2
				c-0.84,1.13-1.16,2.56-0.89,3.94l3.85,19.63c0.27,1.38,1.11,2.58,2.31,3.31c0.79,0.48,1.69,0.73,2.6,0.73
				c0.47,0,0.95-0.07,1.41-0.2l103.92-30.54c0.54-0.14,1.04-0.38,1.49-0.68c0.17-0.11,0.33-0.24,0.49-0.37c0,0,0,0,0,0c0,0,0,0,0,0
				c1.05-0.92,1.72-2.27,1.72-3.77c0-2.63-2.02-4.78-4.6-4.98C374.58,895.53,374.45,895.53,374.31,895.53L374.31,895.53z
				 M374.31,905.53L374.31,905.53L374.31,905.53L374.31,905.53z"/>
		</g>
		<g>
			<path class="st13" d="M274.32,810.26c-0.59,0-1.16-0.21-1.62-0.59c-0.53-0.45-0.84-1.09-0.88-1.78l-1.01-19.97
				c-0.04-0.69,0.22-1.36,0.69-1.86c0.47-0.49,1.12-0.77,1.8-0.77c0.01,0,163.14,1.75,163.14,1.75c1.32,0.01,2.4,1.05,2.47,2.37
				c0.07,1.32-0.9,2.46-2.22,2.61l-162.1,18.22C274.51,810.26,274.42,810.26,274.32,810.26z"/>
			<path class="st12" d="M273.31,787.79l163.11,1.75l-162.1,18.22L273.31,787.79 M273.31,782.79c-1.36,0-2.66,0.55-3.61,1.54
				c-0.96,0.99-1.46,2.34-1.39,3.72l1.01,19.97c0.07,1.38,0.71,2.67,1.76,3.56c0.91,0.77,2.06,1.19,3.24,1.19
				c0.19,0,0.37-0.01,0.56-0.03l162.1-18.22c2.63-0.3,4.57-2.58,4.43-5.22c-0.13-2.64-2.3-4.72-4.94-4.75l-163.11-1.75
				C273.35,782.79,273.33,782.79,273.31,782.79L273.31,782.79z"/>
		</g>
		<g>
			<path class="st13" d="M403.29,770.06c-0.11,0-0.22-0.01-0.34-0.02L241.3,748.26c-0.68-0.09-1.3-0.46-1.7-1.02
				c-0.4-0.56-0.55-1.26-0.42-1.94l3.88-19.62c0.13-0.68,0.54-1.27,1.13-1.63c0.4-0.25,0.86-0.38,1.33-0.38
				c0.21,0,0.43,0.03,0.63,0.08l157.78,41.4c1.28,0.33,2.07,1.61,1.82,2.9C405.51,769.23,404.47,770.06,403.29,770.06z"/>
			<path class="st12" d="M245.51,726.16l157.78,41.4l-161.66-21.78L245.51,726.16 M245.51,721.16c-0.93,0-1.85,0.26-2.65,0.76
				c-1.17,0.73-1.98,1.91-2.25,3.27l-3.88,19.62c-0.27,1.35,0.04,2.76,0.84,3.88c0.8,1.12,2.03,1.86,3.4,2.05l161.66,21.78
				c0.23,0.03,0.45,0.05,0.67,0.05c2.35,0,4.43-1.66,4.9-4.03c0.51-2.59-1.08-5.14-3.64-5.81l-157.78-41.4
				C246.36,721.22,245.93,721.16,245.51,721.16L245.51,721.16z"/>
		</g>
	</g>
</g>
<g>
	<g>
		<path class="st13" d="M807.35,724.82c-0.79,0-1.57-0.38-2.05-1.07c-0.76-1.08-0.54-2.57,0.49-3.39l127.7-101.5
			c0.45-0.35,0.99-0.54,1.56-0.54c0.12,0,0.24,0.01,0.36,0.03c0.68,0.1,1.29,0.48,1.69,1.04l11.46,16.39
			c0.4,0.57,0.54,1.27,0.4,1.94c-0.14,0.68-0.55,1.26-1.14,1.62l-139.16,85.11C808.25,724.7,807.8,724.82,807.35,724.82z"/>
		<path class="st12" d="M935.05,620.82l11.46,16.39l-139.16,85.11L935.05,620.82 M935.05,615.82c-1.12,0-2.22,0.38-3.11,1.09
			l-127.7,101.5c-2.07,1.64-2.5,4.61-0.99,6.78c0.97,1.39,2.52,2.14,4.1,2.14c0.89,0,1.79-0.24,2.6-0.73l139.16-85.11
			c1.18-0.72,2-1.89,2.29-3.24c0.28-1.35-0.01-2.76-0.8-3.89l-11.46-16.39c-0.79-1.13-2.01-1.88-3.38-2.08
			C935.53,615.84,935.28,615.82,935.05,615.82L935.05,615.82z"/>
	</g>
	<g>
		<path class="st13" d="M820.01,687.13c-0.58,0-1.17-0.2-1.64-0.61c-1-0.87-1.15-2.36-0.35-3.41l99.16-129.52
			c0.42-0.55,1.05-0.9,1.73-0.97c0.08-0.01,0.17-0.01,0.25-0.01c0.6,0,1.18,0.22,1.64,0.61l15.11,13.11
			c0.52,0.45,0.83,1.1,0.86,1.79c0.03,0.69-0.23,1.36-0.71,1.85L821.8,686.38C821.31,686.88,820.66,687.13,820.01,687.13z"/>
		<path class="st12" d="M919.17,555.11l15.11,13.11L820.02,684.63L919.17,555.11 M919.17,550.11c-0.17,0-0.34,0.01-0.51,0.03
			c-1.37,0.14-2.63,0.84-3.46,1.94l-99.15,129.52c-1.61,2.1-1.3,5.08,0.69,6.82c0.94,0.82,2.11,1.22,3.28,1.22
			c1.3,0,2.59-0.5,3.57-1.5l114.26-116.42c0.97-0.98,1.48-2.32,1.43-3.7c-0.06-1.38-0.68-2.67-1.72-3.58l-15.11-13.11
			C921.53,550.54,920.37,550.11,919.17,550.11L919.17,550.11z"/>
	</g>
	<g>
		<path class="st13" d="M937.07,958.07c-0.44,0-0.88-0.12-1.27-0.34l-93.46-54.97c-1.11-0.66-1.54-2.05-1-3.22
			c0.42-0.9,1.32-1.44,2.26-1.44c0.28,0,0.57,0.05,0.85,0.15l101.96,36.87c0.66,0.24,1.19,0.75,1.46,1.39
			c0.27,0.65,0.25,1.38-0.05,2.02l-8.51,18.1c-0.3,0.64-0.85,1.12-1.52,1.33C937.56,958.03,937.31,958.07,937.07,958.07z"/>
		<path class="st12" d="M843.61,900.6l101.96,36.87l-8.51,18.1L843.61,900.6 M843.61,895.6c-1.89,0-3.68,1.08-4.53,2.87
			c-1.1,2.34-0.24,5.13,1.99,6.44l93.46,54.97c0.78,0.46,1.65,0.69,2.54,0.69c0.5,0,0.99-0.07,1.48-0.22
			c1.34-0.42,2.45-1.38,3.05-2.65l8.51-18.1c0.6-1.27,0.63-2.74,0.1-4.04c-0.54-1.3-1.6-2.31-2.92-2.79L845.31,895.9
			C844.75,895.7,844.17,895.6,843.61,895.6L843.61,895.6z"/>
	</g>
	<g>
		<path class="st13" d="M973.49,928.51c-0.24,0-0.47-0.03-0.71-0.1l-104.03-30.57c-1.24-0.36-2-1.61-1.75-2.88
			c0.23-1.18,1.27-2.02,2.45-2.02c0.08,0,0.17,0,0.25,0.01l107.87,10.94c0.7,0.07,1.34,0.43,1.76,1s0.58,1.28,0.45,1.97l-3.85,19.63
			c-0.13,0.69-0.55,1.29-1.16,1.66C974.39,928.39,973.94,928.51,973.49,928.51z"/>
		<path class="st12" d="M869.46,895.44l107.87,10.94l-3.85,19.63L869.46,895.44 M869.46,890.44c-2.36,0-4.44,1.67-4.9,4.04
			c-0.5,2.53,1.02,5.03,3.5,5.76l104.03,30.57c0.46,0.14,0.94,0.2,1.41,0.2c0.91,0,1.81-0.25,2.6-0.73c1.2-0.73,2.04-1.93,2.31-3.31
			l3.85-19.63c0.27-1.38-0.05-2.81-0.89-3.94c-0.84-1.13-2.11-1.85-3.51-2l-107.87-10.94C869.8,890.45,869.63,890.44,869.46,890.44
			L869.46,890.44z"/>
	</g>
	<g>
		<path class="st13" d="M969.45,805.18c-0.09,0-0.19,0-0.28-0.02l-162.1-18.22c-1.31-0.15-2.28-1.29-2.22-2.61
			c0.07-1.32,1.15-2.36,2.47-2.37c0,0,163.13-1.75,163.14-1.75c0.68,0,1.33,0.28,1.8,0.77c0.48,0.5,0.73,1.17,0.69,1.86l-1.01,19.98
			c-0.04,0.69-0.35,1.33-0.88,1.78C970.61,804.97,970.04,805.18,969.45,805.18z"/>
		<path class="st12" d="M970.46,782.7L970.46,782.7 M970.46,782.7l-1.01,19.97l-162.1-18.22L970.46,782.7 M970.46,777.7
			L970.46,777.7c-0.03,0-0.05,0-0.07,0l-163.1,1.75c-2.64,0.03-4.81,2.11-4.94,4.75c-0.13,2.64,1.81,4.93,4.43,5.22l162.1,18.22
			c0.19,0.02,0.37,0.03,0.56,0.03c1.18,0,2.33-0.42,3.24-1.19c1.05-0.89,1.69-2.18,1.76-3.56l1-19.81c0.01-0.14,0.02-0.28,0.02-0.42
			C975.46,779.94,973.23,777.7,970.46,777.7L970.46,777.7z M970.46,787.7L970.46,787.7L970.46,787.7L970.46,787.7z"/>
	</g>
	<g>
		<path class="st13" d="M840.48,764.97c-1.18,0-2.22-0.83-2.45-2.01c-0.26-1.3,0.54-2.57,1.82-2.9l157.78-41.4
			c0.21-0.05,0.42-0.08,0.63-0.08c0.46,0,0.93,0.13,1.33,0.38c0.58,0.37,0.99,0.96,1.12,1.63l3.88,19.62
			c0.13,0.68-0.02,1.38-0.42,1.94c-0.4,0.56-1.02,0.93-1.7,1.02l-161.66,21.78C840.7,764.97,840.59,764.97,840.48,764.97z"/>
		<path class="st12" d="M998.26,721.08l3.88,19.62l-161.66,21.78L998.26,721.08 M998.26,716.08c-0.42,0-0.85,0.05-1.27,0.16
			l-157.78,41.4c-2.56,0.67-4.15,3.21-3.64,5.81c0.47,2.37,2.55,4.03,4.9,4.03c0.22,0,0.45-0.01,0.67-0.05l161.66-21.78
			c1.37-0.18,2.6-0.92,3.4-2.05c0.8-1.12,1.11-2.53,0.84-3.88l-3.88-19.62c-0.27-1.35-1.08-2.54-2.25-3.27
			C1000.11,716.34,999.19,716.08,998.26,716.08L998.26,716.08z"/>
	</g>
</g>
</svg>
